<?xml version="1.0" encoding="UTF-8"?>
<svg version="1.1" xmlns="http://www.w3.org/2000/svg" width="817" height="817">
<path d="M0 0 C5.29112204 2.74731337 9.09375244 6.28125733 11 12 C11.09144208 14.81470122 11.12598604 17.60416426 11.11352539 20.41870117 C11.11367142 21.27745346 11.11381744 22.13620575 11.1139679 23.02098083 C11.11327079 25.8616691 11.10548783 28.70229193 11.09765625 31.54296875 C11.09579135 33.51166244 11.09436779 35.48035659 11.09336853 37.4490509 C11.08954901 42.63253051 11.07972352 47.81598214 11.06866455 52.99945068 C11.0584383 58.2880414 11.0538683 63.57663663 11.04882812 68.86523438 C11.03810077 79.24350386 11.02050851 89.62174523 11 100 C21.23 100 31.46 100 42 100 C41.94199219 97.2775 41.88398438 94.555 41.82421875 91.75 C41.78514543 89.09231474 41.75483104 86.43466234 41.7253418 83.77685547 C41.70030711 81.93979401 41.66626855 80.10283107 41.62280273 78.26611328 C41.56165963 75.61466073 41.53368043 72.96453266 41.51171875 70.3125 C41.47300911 69.09481934 41.47300911 69.09481934 41.43351746 67.85253906 C41.43056615 61.75537779 43.15687417 57.73391718 47 53 C50.73705187 49.95135242 54.20357319 49.16259074 59 49 C63.30271716 49.90244255 66.25345404 51.25345404 69.375 54.375 C72.8450732 59.98050287 73.27791888 64.35558955 73.1953125 70.80078125 C73.19106766 72.0553437 73.19106766 72.0553437 73.18673706 73.33525085 C73.1755832 75.99448226 73.15048763 78.65337118 73.125 81.3125 C73.11496399 83.12043783 73.10583923 84.92838096 73.09765625 86.73632812 C73.07736501 91.15778872 73.03820776 95.57851305 73 100 C83.23 100 93.46 100 104 100 C103.98428955 97.36563965 103.9685791 94.7312793 103.95239258 92.01708984 C103.90265756 83.30794593 103.86953534 74.59879571 103.84456348 65.88954735 C103.82891535 60.6097194 103.80769245 55.3300371 103.77368164 50.05029297 C103.74105808 44.95394079 103.72314057 39.85772861 103.71536827 34.76128006 C103.70983017 32.81803814 103.69901559 30.87480379 103.68280983 28.93162155 C103.66099582 26.20733907 103.65803475 23.48363327 103.65942383 20.75927734 C103.64324509 19.55733734 103.64324509 19.55733734 103.6267395 18.33111572 C103.65713555 12.81284126 104.62653988 8.5425616 108.53515625 4.35546875 C112.83624138 1.06640365 115.2328873 -0.41825098 120.76953125 -0.34765625 C125.91324391 0.4540783 129.85979161 3.49198245 132.9375 7.5625 C135.08120747 12.48041713 135.13769294 17.03969249 135.11352539 22.34863281 C135.11367142 23.18802399 135.11381744 24.02741516 135.1139679 24.89224243 C135.11327207 27.66256304 135.10549507 30.43281615 135.09765625 33.203125 C135.0957909 35.12554894 135.09436755 37.04797336 135.09336853 38.97039795 C135.08955257 44.02727575 135.07973012 49.08412477 135.06866455 54.14099121 C135.05843065 59.30232351 135.05386667 64.46366047 135.04882812 69.625 C135.03810705 79.75001467 135.02051768 89.87500044 135 100 C145.23 100 155.46 100 166 100 C165.96519531 97.17050781 165.93039062 94.34101563 165.89453125 91.42578125 C165.87112049 88.67880258 165.85291256 85.93183511 165.83520508 83.18481445 C165.82013872 81.27883919 165.79968176 79.37289848 165.77368164 77.46704102 C165.73720358 74.72403424 165.72025208 71.98148672 165.70703125 69.23828125 C165.69154739 68.38913651 165.67606354 67.53999176 165.66011047 66.66511536 C165.65826958 60.16206703 167.0706835 56.97418433 171.6875 52.25 C175.20861857 49.49585775 178.56377927 48.71628821 183 49 C188.88968853 50.6970289 191.52506995 53.19642023 195 58 C196.14315747 60.28631494 196.12112732 61.54347406 196.11352539 64.08251953 C196.11344986 64.92324005 196.11337433 65.76396057 196.11329651 66.63015747 C196.10813522 67.53853363 196.10297394 68.44690979 196.09765625 69.3828125 C196.09553383 70.77691849 196.09553383 70.77691849 196.09336853 72.19918823 C196.08776053 75.17449124 196.07520668 78.14971964 196.0625 81.125 C196.05748603 83.13932183 196.05292295 85.15364484 196.04882812 87.16796875 C196.0377885 92.11200802 196.02051849 97.05599135 196 102 C196.61393112 102.0612204 197.22786224 102.1224408 197.86039734 102.18551636 C199.07165031 102.31194016 199.07165031 102.31194016 200.30737305 102.44091797 C201.10692917 102.52276337 201.90648529 102.60460876 202.73027039 102.68893433 C207.85347962 103.39106841 212.38322499 105.77883117 217 108 C217.98226563 108.47179687 218.96453125 108.94359375 219.9765625 109.4296875 C236.57997162 118.23518943 249.19043085 134.23352689 255 152 C255.36855748 153.56091783 255.72206779 155.12544084 256.06298828 156.69262695 C256.23951935 157.50012894 256.41605042 158.30763092 256.59793091 159.13960266 C256.73061371 159.75353378 256.86329651 160.3674649 257 161 C258.21059082 161.0093457 259.42118164 161.01869141 260.66845703 161.02832031 C265.1751741 161.06829948 269.68121422 161.1340804 274.1875 161.20751953 C276.13500245 161.23568321 278.08261822 161.2569206 280.03027344 161.27099609 C282.83587468 161.29248946 285.64012 161.33917198 288.4453125 161.390625 C289.74409836 161.39246796 289.74409836 161.39246796 291.06912231 161.39434814 C296.51986295 161.52535916 299.67085509 162.38698545 304 166 C307.77468819 170.28478119 309.42201585 172.93761419 309.34765625 178.76953125 C308.58780549 183.6445288 305.81793593 187.58078046 301.97851562 190.578125 C297.86907815 192.53987613 294.26263127 192.47784881 289.76171875 192.51171875 C288.88095169 192.52966995 288.00018463 192.54762115 287.09272766 192.56611633 C284.2910332 192.6201191 281.48950813 192.65408266 278.6875 192.6875 C276.78317961 192.72068195 274.87888154 192.75517243 272.97460938 192.79101562 C268.31638323 192.87829394 263.65892081 192.93844706 259 193 C258.67 202.9 258.34 212.8 258 223 C260.13919922 222.98952637 262.27839844 222.97905273 264.48242188 222.96826172 C271.57106276 222.9350384 278.65970719 222.91299701 285.74840546 222.89637566 C290.04390094 222.88596354 294.33931626 222.87185159 298.63476562 222.84912109 C302.78447756 222.82730064 306.93411266 222.81541205 311.08387756 222.81024551 C312.66261503 222.80656622 314.24134857 222.79938167 315.8200531 222.78853989 C318.04093327 222.77390232 320.2615008 222.77202712 322.48242188 222.77294922 C323.74372925 222.768508 325.00503662 222.76406677 326.30456543 222.75949097 C332.73254462 223.17784151 338.35350664 224.22074969 343 229 C345.99286627 233.54090054 346.9580176 237.67767999 346 243 C343.25268663 248.29112204 339.71874267 252.09375244 334 254 C331.55113511 254.09072258 329.1314223 254.1261038 326.68286133 254.11352539 C325.57029716 254.11374443 325.57029716 254.11374443 324.43525696 254.1139679 C321.98415195 254.11327134 319.53312298 254.10549097 317.08203125 254.09765625 C315.38238059 254.09579116 313.68272939 254.09436768 311.983078 254.09336853 C307.50980139 254.08955055 303.03655724 254.07972638 298.56329346 254.06866455 C293.99858031 254.05843499 289.43386193 254.0538676 284.86914062 254.04882812 C275.91274386 254.03810348 266.95637971 254.02051248 258 254 C258 264.23 258 274.46 258 285 C260.73410156 284.95359375 263.46820312 284.9071875 266.28515625 284.859375 C268.94944403 284.82813056 271.61371097 284.80387068 274.27807617 284.78027344 C276.12191994 284.76022639 277.96570068 284.7329812 279.80932617 284.69824219 C282.4680949 284.64941792 285.12601915 284.62696228 287.78515625 284.609375 C289.01057884 284.57840729 289.01057884 284.57840729 290.26075745 284.54681396 C296.00412701 284.54459014 299.26862015 285.71115527 304 289 C307.38938099 292.6569637 308.83129826 295.24550186 309.3125 300.25 C308.93790449 304.74514607 307.82194965 307.51151622 305 311 C298.87923377 315.8456066 294.10647673 316.14733206 286.515625 316.09765625 C285.70003113 316.0962413 284.88443726 316.09482635 284.04412842 316.09336853 C281.44604788 316.08778303 278.84805437 316.07523321 276.25 316.0625 C274.48567833 316.05748312 272.72135531 316.05292054 270.95703125 316.04882812 C266.63796055 316.03867039 262.31907738 316.01909219 258 316 C258 326.23 258 336.46 258 347 C260.27084473 346.98428955 262.54168945 346.9685791 264.88134766 346.95239258 C272.39306739 346.90263272 279.90479449 346.86952546 287.41663551 346.84456348 C291.97006592 346.82892274 296.52332712 346.8077136 301.07666016 346.77368164 C305.47275831 346.74103134 309.86869395 346.72313501 314.26490402 346.71536827 C315.9402052 346.70983493 317.61549772 346.69902961 319.29072952 346.68280983 C321.64144199 346.66095982 323.9914871 346.65803618 326.34228516 346.65942383 C327.37591187 346.64324509 327.37591187 346.64324509 328.43041992 346.6267395 C334.09294964 346.66279227 337.98421995 348.2641894 342.25 351.9375 C345.50281114 355.77117027 346.51800567 358.67353338 346.3828125 363.83984375 C345.47845625 368.94299685 342.49819527 372.86721821 338.4375 375.9375 C333.7862323 377.96497566 329.83764936 378.12217287 324.75292969 378.11352539 C323.6694072 378.11374443 323.6694072 378.11374443 322.56399536 378.1139679 C320.18325772 378.11327284 317.80259892 378.1054995 315.421875 378.09765625 C313.76849409 378.09579063 312.11511262 378.0943674 310.46173096 378.09336853 C306.11505603 378.08955473 301.76841463 378.07973415 297.42175293 378.06866455 C292.98429823 378.05842599 288.54683811 378.05386567 284.109375 378.04882812 C275.40623291 378.03811086 266.70312449 378.02052326 258 378 C258 388.23 258 398.46 258 409 C260.87847656 408.94199219 263.75695312 408.88398437 266.72265625 408.82421875 C269.52593229 408.78516941 272.32917746 408.75484124 275.13256836 408.7253418 C277.07346265 408.700274 279.01426324 408.66621045 280.95483398 408.62280273 C283.75267711 408.56180846 286.54926711 408.53371313 289.34765625 408.51171875 C290.2083522 408.48591232 291.06904816 408.4601059 291.95582581 408.43351746 C297.94252772 408.43076133 301.68193357 409.77534307 306 414 C309.06477174 418.4488622 309.96128025 422.71824037 309 428 C306.38512056 432.85620467 303.34347171 437.21884276 298 439 C296.63484686 439.11265547 295.26522788 439.17582586 293.89575195 439.20532227 C293.07512772 439.22526749 292.25450348 439.24521271 291.40901184 439.26576233 C290.0870002 439.29083107 290.0870002 439.29083107 288.73828125 439.31640625 C287.83248825 439.33718735 286.92669525 439.35796844 285.99345398 439.37937927 C283.09987984 439.44476558 280.20621493 439.50370904 277.3125 439.5625 C275.35090207 439.6056956 273.38931332 439.64931023 271.42773438 439.69335938 C266.61858261 439.80043582 261.80933954 439.90173414 257 440 C256.82114258 440.78286377 256.64228516 441.56572754 256.45800781 442.37231445 C253.48576955 454.88705248 248.38516271 465.15922225 240 475 C238.9171875 476.485 238.9171875 476.485 237.8125 478 C231.67810848 485.16338623 223.23234303 490.15980596 214.9375 494.4375 C214.31383545 494.76733887 213.6901709 495.09717773 213.04760742 495.43701172 C207.5756718 498.13385903 202.00633262 499.11831752 196 500 C196.02094727 501.205354 196.04189453 502.41070801 196.06347656 503.65258789 C196.1361483 508.14579277 196.18189828 512.6389462 196.21972656 517.13256836 C196.23978028 519.07341258 196.26703045 521.01419685 196.30175781 522.95483398 C196.35055175 525.75259232 196.37303127 528.54954845 196.390625 531.34765625 C196.41127014 532.2083522 196.43191528 533.06904816 196.45318604 533.95582581 C196.45534584 539.82008253 195.35474892 543.16651307 192 548 C188.8839317 550.96026488 185.26113006 552.24400188 181 552.5 C176.72165623 552.25125908 173.20653331 550.85534157 170 548 C165.66168021 542.79320078 165.45516003 538.91308831 165.609375 532.4453125 C165.61503479 531.54376434 165.62069458 530.64221619 165.62652588 529.71334839 C165.64881445 526.85001237 165.69899611 523.98795411 165.75 521.125 C165.77007475 519.17710148 165.78832381 517.22918323 165.8046875 515.28125 C165.8452437 510.51995191 165.92354582 505.76139636 166 501 C155.77 501 145.54 501 135 501 C135.01571045 503.19978516 135.0314209 505.39957031 135.04760742 507.66601562 C135.09743521 514.9542021 135.13050154 522.24239631 135.15543652 529.53070831 C135.17105696 533.94732209 135.19222864 538.36376054 135.22631836 542.78027344 C135.25904157 547.04670421 135.27688023 551.31296691 135.28463173 555.57951355 C135.29015206 557.20292301 135.30093175 558.82632383 135.31719017 560.44966125 C135.47083266 576.43364413 135.47083266 576.43364413 132 583 C129.625 585.3125 129.625 585.3125 127 587 C125.7934375 587.86625 125.7934375 587.86625 124.5625 588.75 C121.25678926 590.36254182 119.64834626 590.64382581 116 590 C110.56689345 586.80830813 106.03442807 583.10328421 104 577 C103.90927742 574.55113511 103.8738962 572.1314223 103.88647461 569.68286133 C103.88632858 568.94115189 103.88618256 568.19944244 103.8860321 567.43525696 C103.88672866 564.98415195 103.89450903 562.53312298 103.90234375 560.08203125 C103.90420884 558.38238059 103.90563232 556.68272939 103.90663147 554.983078 C103.91044945 550.50980139 103.92027362 546.03655724 103.93133545 541.56329346 C103.94156501 536.99858031 103.9461324 532.43386193 103.95117188 527.86914062 C103.96189652 518.91274386 103.97948752 509.95637971 104 501 C93.77 501 83.54 501 73 501 C73.03480469 503.74570312 73.06960938 506.49140625 73.10546875 509.3203125 C73.12889146 511.99120037 73.14709257 514.66207662 73.16479492 517.33300781 C73.17984471 519.18364619 73.20028933 521.03424911 73.22631836 522.88476562 C73.2628698 525.55087045 73.27976454 528.21650208 73.29296875 530.8828125 C73.31619453 532.11597702 73.31619453 532.11597702 73.33988953 533.37405396 C73.3415296 539.02224879 72.4746741 543.34901324 68.46484375 547.64453125 C63.06823106 551.77135272 59.75593784 552.8202825 53 552 C47.6964772 549.29820537 43.90167702 545.70503105 42 540 C41.914591 537.05035887 41.88417073 534.12496981 41.90234375 531.17578125 C41.90446617 529.88367989 41.90446617 529.88367989 41.90663147 528.56547546 C41.9122286 525.81444831 41.92478054 523.06350256 41.9375 520.3125 C41.94251537 518.4472668 41.94707821 516.58203233 41.95117188 514.71679688 C41.96134616 510.14447466 41.98092213 505.57232845 42 501 C31.77 501 21.54 501 11 501 C11.02094727 503.3011377 11.04189453 505.60227539 11.06347656 507.97314453 C11.1298196 515.58461677 11.17396453 523.19610194 11.20724869 530.80778694 C11.22810426 535.42181851 11.25638462 540.03555329 11.30175781 544.64941406 C11.34528828 549.10387963 11.36915238 553.55806012 11.37950897 558.01272202 C11.38688745 559.71037151 11.40129606 561.40800579 11.42292023 563.1055336 C11.4520508 565.48752543 11.4559521 567.86834636 11.45410156 570.25048828 C11.46848267 570.94892349 11.48286377 571.6473587 11.49768066 572.36695862 C11.44806147 578.28786405 9.20977819 581.82600769 5.0703125 585.8984375 C2.09105221 588.15980374 -0.28532674 589.81753023 -3.9375 590.75 C-9.63954654 589.35358044 -14.39975791 586.05031018 -18 581.4375 C-20.00136047 576.55918386 -20.12257247 571.96945813 -20.11352539 566.73120117 C-20.11367142 566.01846039 -20.11381744 565.3057196 -20.1139679 564.57138062 C-20.11327432 562.2285451 -20.105508 559.88579028 -20.09765625 557.54296875 C-20.0957901 555.91343733 -20.09436713 554.28390535 -20.09336853 552.65437317 C-20.08955888 548.37511636 -20.07974188 544.09589374 -20.06866455 539.81665039 C-20.05841702 535.44613101 -20.05386376 531.07560607 -20.04882812 526.70507812 C-20.03811818 518.13670135 -20.02053399 509.56835887 -20 501 C-29.9 501.33 -39.8 501.66 -50 502 C-50.02578125 504.81789063 -50.0515625 507.63578125 -50.078125 510.5390625 C-50.11657912 513.27955961 -50.16172846 516.01987072 -50.20751953 518.76025391 C-50.2356792 520.65925154 -50.25691858 522.5583653 -50.27099609 524.45751953 C-50.29249518 527.19363638 -50.33918008 529.92836452 -50.390625 532.6640625 C-50.39185364 533.50804596 -50.39308228 534.35202942 -50.39434814 535.22158813 C-50.52715772 540.61231376 -51.45866995 543.69813833 -55 548 C-58.70873249 551.30253798 -62.93437836 552.73193682 -67.9453125 552.44921875 C-71.83929506 551.59787275 -75.12524803 549.74089434 -78 547 C-81.32792718 541.75698344 -81.40023709 537.44375788 -81.29296875 531.4453125 C-81.28872391 530.54376434 -81.28447906 529.64221619 -81.28010559 528.71334839 C-81.26339058 525.85025435 -81.22575192 522.98787921 -81.1875 520.125 C-81.17244387 518.17709354 -81.15875709 516.22917598 -81.14648438 514.28125 C-81.11351058 509.52055878 -81.06177813 504.76040104 -81 500 C-81.6997998 499.89840576 -82.39959961 499.79681152 -83.12060547 499.69213867 C-89.34326457 498.69170946 -94.56511863 497.26587853 -100.125 494.3125 C-100.80804199 493.96018311 -101.49108398 493.60786621 -102.19482422 493.24487305 C-107.61515742 490.37373195 -112.36168906 487.01585363 -117 483 C-117.99 482.278125 -118.98 481.55625 -120 480.8125 C-132.15153042 470.44498928 -138.52685398 455.12168669 -142 440 C-143.21059082 439.9906543 -144.42118164 439.98130859 -145.66845703 439.97167969 C-150.1751741 439.93170052 -154.68121422 439.8659196 -159.1875 439.79248047 C-161.13500245 439.76431679 -163.08261822 439.7430794 -165.03027344 439.72900391 C-167.83587468 439.70751054 -170.64012 439.66082802 -173.4453125 439.609375 C-174.31116974 439.60814636 -175.17702698 439.60691772 -176.06912231 439.60565186 C-181.52120953 439.47460848 -184.66710447 438.60950047 -189 435 C-192.33997264 431.29894924 -193.83029663 428.76491504 -194.3125 423.75 C-193.94625937 419.35511246 -192.90525673 416.33250036 -190 413 C-184.79619747 408.65959266 -180.9114889 408.45519817 -174.4453125 408.609375 C-173.54376434 408.61503479 -172.64221619 408.62069458 -171.71334839 408.62652588 C-168.85001237 408.64881445 -165.98795411 408.69899611 -163.125 408.75 C-161.17710148 408.77007475 -159.22918323 408.78832381 -157.28125 408.8046875 C-152.51995191 408.8452437 -147.76139636 408.92354582 -143 409 C-143 398.77 -143 388.54 -143 378 C-145.20502197 378.01571045 -147.41004395 378.0314209 -149.68188477 378.04760742 C-156.98205242 378.09740364 -164.28222775 378.130489 -171.58252048 378.15543652 C-176.00700964 378.17106639 -180.4313242 378.19225549 -184.85571289 378.22631836 C-189.12862289 378.25900769 -193.40136536 378.27687316 -197.67439079 378.28463173 C-199.30141778 378.2901581 -200.928436 378.30094974 -202.55539131 378.31719017 C-204.84124411 378.33909225 -207.12641202 378.34196168 -209.41235352 378.34057617 C-210.71141129 378.34723801 -212.01046906 378.35389984 -213.34889221 378.36076355 C-220.08521024 377.69515241 -224.50286826 375.13957913 -229 370 C-231.85377839 365.71933241 -231.97831545 362.01757244 -231 357 C-228.02810422 351.94944679 -224.58515839 348.79527548 -219 347 C-216.44622159 346.82383419 -214.00639124 346.74647222 -211.45581055 346.77294922 C-210.71380905 346.77265717 -209.97180756 346.77236511 -209.20732117 346.77206421 C-206.76699933 346.77345197 -204.32698692 346.78898687 -201.88671875 346.8046875 C-200.18992784 346.8084196 -198.49313478 346.81126564 -196.79634094 346.81326294 C-192.33948778 346.82088387 -187.88276583 346.8405191 -183.42596436 346.8626709 C-178.87448908 346.88316253 -174.32299252 346.89227175 -169.77148438 346.90234375 C-160.84758945 346.9237665 -151.92382619 346.95893606 -143 347 C-143 336.77 -143 326.54 -143 316 C-145.578125 316.03480469 -148.15625 316.06960938 -150.8125 316.10546875 C-153.3312062 316.12891757 -155.84989988 316.14710374 -158.36865234 316.16479492 C-160.10861728 316.17980854 -161.84854484 316.20022577 -163.58837891 316.22631836 C-166.1006802 316.26303107 -168.6124778 316.27980069 -171.125 316.29296875 C-172.27705933 316.31619453 -172.27705933 316.31619453 -173.45239258 316.33988953 C-179.20714199 316.34165128 -185.11211994 315.61169868 -189.56665039 311.58317566 C-192.59116576 308.0902038 -193.87131528 305.33832106 -194.3125 300.75 C-193.8307199 294.9686388 -191.65335704 291.53237969 -187.4375 287.625 C-182.83531619 284.55687746 -178.50657323 284.86949519 -173.17578125 284.90234375 C-171.88367989 284.90446617 -171.88367989 284.90446617 -170.56547546 284.90663147 C-167.81444831 284.9122286 -165.06350256 284.92478054 -162.3125 284.9375 C-160.4472668 284.94251537 -158.58203233 284.94707821 -156.71679688 284.95117188 C-152.14447466 284.96134616 -147.57232845 284.98092213 -143 285 C-143 274.77 -143 264.54 -143 254 C-146.40626709 254.02356567 -146.40626709 254.02356567 -149.88134766 254.04760742 C-157.39306739 254.09736728 -164.90479449 254.13047454 -172.41663551 254.15543652 C-176.97006592 254.17107726 -181.52332712 254.1922864 -186.07666016 254.22631836 C-190.47275831 254.25896866 -194.86869395 254.27686499 -199.26490402 254.28463173 C-200.9402052 254.29016507 -202.61549772 254.30097039 -204.29072952 254.31719017 C-206.64144199 254.33904018 -208.9914871 254.34196382 -211.34228516 254.34057617 C-212.03136963 254.351362 -212.7204541 254.36214783 -213.43041992 254.3732605 C-218.84008211 254.33881771 -222.65017944 252.82280319 -226.8984375 249.52734375 C-230.01722979 246.16927903 -231.44049474 243.6366415 -231.6875 239 C-231.35944252 233.86824369 -229.63323395 230.58332689 -226 227 C-220.50211893 222.77086071 -214.42595161 222.87469131 -207.70947266 222.88647461 C-206.6547728 222.88625557 -206.6547728 222.88625557 -205.57876587 222.8860321 C-203.27383245 222.88672416 -200.96898166 222.8944832 -198.6640625 222.90234375 C-197.05838058 222.90421044 -195.45269808 222.90563316 -193.84701538 222.90663147 C-189.63517668 222.91043685 -185.42337284 222.92025012 -181.21154785 222.93133545 C-176.90796378 222.94159223 -172.60437404 222.94613821 -168.30078125 222.95117188 C-159.86716977 222.96187427 -151.43359325 222.97945493 -143 223 C-143 212.77 -143 202.54 -143 192 C-145.89007813 192.04640625 -148.78015625 192.0928125 -151.7578125 192.140625 C-154.56769048 192.17185104 -157.37754888 192.19612146 -160.1875 192.21972656 C-162.13517966 192.23979906 -164.08279937 192.26706332 -166.03027344 192.30175781 C-168.83543721 192.35046852 -171.63980187 192.37301241 -174.4453125 192.390625 C-175.74409836 192.42159271 -175.74409836 192.42159271 -177.06912231 192.45318604 C-182.55551163 192.45520648 -185.63443487 191.64124711 -190 188 C-192.81917609 184.76623919 -193.91679207 181.67755032 -194.4375 177.4375 C-193.75640466 172.08603663 -192.01475004 168.66662045 -187.9375 165.1875 C-183.20393684 161.66250616 -179.58421332 161.79196123 -173.8359375 161.68359375 C-172.92872955 161.66281265 -172.02152161 161.64203156 -171.08682251 161.62062073 C-168.1829602 161.55512865 -165.27900595 161.49624186 -162.375 161.4375 C-160.40884458 161.39431445 -158.44269853 161.35070015 -156.4765625 161.30664062 C-151.65113638 161.19944761 -146.8256176 161.09817919 -142 161 C-141.82984375 160.23236328 -141.6596875 159.46472656 -141.484375 158.67382812 C-139.96589285 152.17585532 -138.19486681 146.36057935 -135 140.5 C-134.42113037 139.42335083 -134.42113037 139.42335083 -133.83056641 138.32495117 C-129.85191256 131.24098724 -124.84258134 125.59282214 -119 120 C-118.37222656 119.38769531 -117.74445313 118.77539062 -117.09765625 118.14453125 C-107.26293817 109.14287165 -94.77052912 104.12674152 -82 101 C-81.98541748 99.81970215 -81.97083496 98.6394043 -81.95581055 97.42333984 C-81.89767303 93.02850625 -81.82044119 88.63417674 -81.73754883 84.23974609 C-81.70437207 82.34074101 -81.67631769 80.44163904 -81.65356445 78.54248047 C-81.61988482 75.80654765 -81.5675628 73.07149689 -81.51171875 70.3359375 C-81.50532883 69.49195404 -81.4989389 68.64797058 -81.49235535 67.77841187 C-81.33045536 61.23198542 -79.9488872 57.03953312 -75.3125 52.1875 C-71.40653187 49.60808709 -68.6502249 48.71105399 -64 49 C-58.01981534 50.64970611 -54.17062825 53.74048274 -51 59 C-50.23112615 62.24732808 -50.29452881 65.33010399 -50.4140625 68.65234375 C-50.42255219 69.55247696 -50.43104187 70.45261017 -50.43978882 71.38002014 C-50.47317471 74.23377021 -50.54842219 77.08461521 -50.625 79.9375 C-50.65511892 81.88081835 -50.68249135 83.82418132 -50.70703125 85.76757812 C-50.76780128 90.5137174 -50.88522008 95.25363757 -51 100 C-35.655 99.505 -35.655 99.505 -20 99 C-20.01047363 96.49204834 -20.02094727 93.98409668 -20.03173828 91.40014648 C-20.06491843 83.10210333 -20.08698584 74.80405721 -20.10362434 66.50596523 C-20.11404934 61.47619039 -20.12818514 56.44648368 -20.15087891 51.41674805 C-20.172653 46.56030167 -20.18457828 41.70392071 -20.18975449 36.84742928 C-20.19344204 34.99713168 -20.20064289 33.14683756 -20.21146011 31.29656792 C-20.22603571 28.69950574 -20.22797541 26.10271191 -20.22705078 23.50561523 C-20.23424133 22.74532013 -20.24143188 21.98502502 -20.24884033 21.20169067 C-20.22589466 15.22257717 -19.66211561 9.97656991 -15.6875 5.25 C-10.63638111 1.02115628 -6.77921233 -1.19868194 0 0 Z M-91.1875 137 C-92.08855469 137.495 -92.98960937 137.99 -93.91796875 138.5 C-96.29237964 139.90234686 -96.29237964 139.90234686 -97 143 C-97.928125 143.46212891 -97.928125 143.46212891 -98.875 143.93359375 C-105.061175 147.03805289 -108.85297622 156.69105321 -111 163 C-112.20876265 168.54685768 -112.14245967 173.99888414 -112.13371277 179.64546204 C-112.13597833 180.71821276 -112.13824388 181.79096349 -112.14057809 182.89622182 C-112.14690861 186.49112822 -112.14608933 190.08599684 -112.14526367 193.6809082 C-112.14825575 196.2582911 -112.15165839 198.83567356 -112.15544128 201.41305542 C-112.16373891 207.68779858 -112.16649572 213.96253234 -112.16705366 220.23728053 C-112.16752925 225.33908323 -112.16958612 230.44088283 -112.17275429 235.54268456 C-112.18155846 250.01541624 -112.18617404 264.48814051 -112.18542381 278.96087489 C-112.18538386 279.7406978 -112.1853439 280.52052071 -112.18530273 281.32397461 C-112.18526185 282.10475249 -112.18522097 282.88553037 -112.18517885 283.68996819 C-112.18477246 296.34174498 -112.19434099 308.99349201 -112.2084411 321.64526019 C-112.22281333 334.64402837 -112.22971082 347.64278203 -112.22884732 360.64155835 C-112.22851565 367.93614948 -112.23124996 375.23070939 -112.24202538 382.52529335 C-112.25209555 389.38628729 -112.25178636 396.24721432 -112.24450874 403.10821152 C-112.24346275 405.62486429 -112.24582665 408.14152115 -112.2518692 410.65816689 C-112.25958986 414.09671776 -112.2549436 417.53504104 -112.24723816 420.97358704 C-112.25238172 421.96659815 -112.25752529 422.95960926 -112.26282471 423.98271161 C-112.19355805 437.99559635 -108.04554784 448.59198675 -98.30859375 458.80859375 C-84.68174654 471.74372283 -66.98914378 470.58388788 -49.43603516 470.53344727 C-46.84764618 470.54051275 -44.25926133 470.5492604 -41.67088318 470.55955505 C-35.3943667 470.58109423 -29.11803223 470.58109416 -22.841491 470.57292951 C-17.73512355 470.56660551 -12.6288088 470.56778842 -7.52244186 470.57420158 C-6.42837409 470.57555407 -6.42837409 470.57555407 -5.31220394 470.57693387 C-3.83002483 470.57878526 -2.34784575 470.58064782 -0.86566667 470.58252143 C13.00436056 470.59906502 26.87428581 470.59041036 40.74430688 470.57353585 C53.40459486 470.55884481 66.06464538 470.57346494 78.72490279 470.60230602 C91.75784563 470.63177257 104.79067916 470.64265103 117.82365382 470.63312382 C119.30070597 470.63210137 120.77775814 470.63110676 122.25481033 470.6301403 C123.34462588 470.62942572 123.34462588 470.62942572 124.45645791 470.6286967 C129.54917386 470.62654198 134.64178521 470.63628624 139.734478 470.65091133 C146.6047456 470.6703678 153.47456683 470.66323279 160.34481621 470.63871193 C162.85733893 470.63372389 165.3698955 470.63714116 167.88239098 470.64986038 C185.00169093 470.72962852 200.96326108 470.6657748 214 458 C214.63421875 457.40445312 215.2684375 456.80890625 215.921875 456.1953125 C223.11153254 448.79057974 227.1153248 438.57907279 227.13142776 428.27409077 C227.13526891 427.34720269 227.13911005 426.4203146 227.1430676 425.465339 C227.14176787 423.95076516 227.14176787 423.95076516 227.14044189 422.40559387 C227.14341302 421.32623603 227.14638414 420.24687819 227.1494453 419.13481253 C227.15812941 415.51149806 227.15964031 411.88821664 227.16113281 408.26489258 C227.16576119 405.66957529 227.17078588 403.07425868 227.17617798 400.47894287 C227.18974686 393.42300914 227.19578382 386.36708109 227.20018864 379.31113648 C227.20295362 374.90301217 227.20719145 370.49489004 227.21169281 366.0867672 C227.22388381 353.87529164 227.23418331 341.66381782 227.2375679 329.45233631 C227.23778747 328.67111056 227.23800703 327.8898848 227.23823325 327.08498554 C227.23845153 326.30191941 227.23866981 325.51885329 227.2388947 324.71205789 C227.23933816 323.12534002 227.23978473 321.53862216 227.24023438 319.9519043 C227.2404558 319.16484199 227.24067723 318.37777969 227.24090537 317.56686702 C227.24485191 304.81869068 227.26230225 292.07057155 227.2855939 279.3224173 C227.30932928 266.22536472 227.32177075 253.12834082 227.32293582 240.03126639 C227.32385137 232.68127716 227.32957348 225.33136247 227.34775543 217.98139381 C227.36480187 211.06621715 227.36639269 204.15118397 227.35761642 197.23599243 C227.35684592 194.70040699 227.36119048 192.16481396 227.37107468 189.62924767 C227.38379457 186.16243857 227.37791659 182.69613021 227.36749268 179.22932434 C227.37554908 178.23076206 227.38360548 177.23219977 227.39190602 176.20337802 C227.30087718 163.21969486 222.64046984 152.6254834 214 143 C203.12490873 133.14716731 191.3107708 130.68389725 176.96963501 130.73930359 C175.37080807 130.73356527 175.37080807 130.73356527 173.7396816 130.72771102 C170.1918004 130.71744711 166.64408303 130.7213606 163.09619141 130.7253418 C160.54278922 130.72099168 157.98938833 130.71580753 155.43598938 130.70985413 C149.23429971 130.69787215 143.03266977 130.69530879 136.83097078 130.69765439 C131.78697098 130.69944183 126.74298429 130.69767881 121.69898605 130.69342995 C120.97943634 130.69283476 120.25988663 130.69223957 119.51853239 130.69162634 C118.0564795 130.69041452 116.59442662 130.68920038 115.13237374 130.68798397 C101.43988314 130.67712273 87.74741722 130.67926423 74.05492525 130.68536881 C61.54767472 130.69053697 49.0405021 130.6792827 36.53326698 130.66027059 C23.66882392 130.64086648 10.80441767 130.63264069 -2.06004012 130.63639385 C-9.2736382 130.63830196 -16.48716998 130.63585648 -23.70075607 130.62167931 C-30.48551648 130.60847905 -37.27009614 130.61106036 -44.05486488 130.62409019 C-46.53962189 130.62645199 -49.02438992 130.62373559 -51.50913429 130.61546707 C-54.91149121 130.60496459 -58.31332897 130.61312879 -61.71566772 130.6257782 C-62.68942994 130.61840391 -63.66319215 130.61102963 -64.6664623 130.60343188 C-73.91012574 130.67530096 -83.0756782 132.39890758 -91.1875 137 Z " fill="#211F20" transform="translate(351,113)"/>
<path d="M0 0 C0.80757881 -0.00226556 1.61515763 -0.00453111 2.44720852 -0.00686532 C5.16250278 -0.01321268 7.87774722 -0.01237549 10.5930481 -0.0115509 C12.53609278 -0.01454194 14.47913687 -0.01794434 16.42218018 -0.02172852 C21.70729683 -0.03057844 26.99239731 -0.03290705 32.27752066 -0.0335443 C36.68617396 -0.03449272 41.09482347 -0.03817024 45.50347531 -0.0417164 C55.90312652 -0.04986476 66.30276906 -0.05230029 76.7024231 -0.05158997 C87.43774283 -0.05098908 98.17301233 -0.06154213 108.90831935 -0.07733363 C118.11857524 -0.09040007 127.3288147 -0.09577424 136.53907979 -0.09513456 C142.04283419 -0.0948793 147.54654397 -0.09774557 153.05028915 -0.10831261 C158.226185 -0.1179785 163.40199342 -0.11808313 168.5778923 -0.11079597 C170.47861356 -0.10974825 172.37934021 -0.11212412 174.28005219 -0.11815643 C176.87284008 -0.1258528 179.4653243 -0.12124719 182.05810547 -0.11352539 C183.18880126 -0.12124074 183.18880126 -0.12124074 184.3423394 -0.12911195 C189.9525359 -0.09213931 193.45051383 0.78516006 197.84353638 4.25871277 C202.27442613 9.76738652 202.45298839 16.40938904 202.41000366 23.25505066 C202.41468363 24.42064939 202.41468363 24.42064939 202.41945815 25.60979557 C202.42738262 28.1920658 202.42113635 30.77409739 202.41482544 33.35636902 C202.41753777 35.21646766 202.42110006 37.07656522 202.42544556 38.93666077 C202.43454301 43.97378054 202.4310362 49.01081814 202.42468739 54.0479393 C202.41961371 59.32661404 202.42432264 64.60528188 202.42745972 69.88395691 C202.43109537 78.74749511 202.42631076 87.61099995 202.41677856 96.47453308 C202.4058948 106.71287109 202.40942066 116.95112944 202.42043138 127.18946552 C202.42951565 135.98968594 202.43078394 144.78988242 202.42555404 153.59010601 C202.42244062 158.84180697 202.42200774 164.09347053 202.42862701 169.34516907 C202.43441642 174.28312523 202.43037437 179.22097897 202.4188385 184.1589241 C202.41620045 185.96808324 202.41694237 187.77725105 202.42136383 189.58640671 C202.42685456 192.0618447 202.41994266 194.53695743 202.41000366 197.01237488 C202.41669583 198.07815561 202.41669583 198.07815561 202.42352319 199.16546726 C202.37569984 205.33505648 201.62650254 210.92801352 198.15603638 216.13371277 C197.49603638 216.13371277 196.83603638 216.13371277 196.15603638 216.13371277 C196.15603638 216.79371277 196.15603638 217.45371277 196.15603638 218.13371277 C190.95722555 221.59958666 185.3261747 221.2814788 179.24397278 221.27415466 C178.46523782 221.27712579 177.68650286 221.28009691 176.88416988 221.28315806 C174.28426996 221.29180437 171.68441631 221.29334984 169.08450317 221.29484558 C167.21647036 221.29947658 165.34843849 221.30450162 163.48040771 221.30989075 C158.41213889 221.32298819 153.34388329 221.32945432 148.27560019 221.33390141 C145.1072171 221.33683595 141.9388376 221.34094144 138.77045631 221.34540558 C128.85152983 221.35907248 118.93261159 221.36874352 109.01367635 221.37260747 C97.57406194 221.3770887 86.13456699 221.39464308 74.69498891 221.42360806 C65.84469188 221.44523734 56.99442843 221.45531239 48.14410526 221.45664859 C42.86156893 221.45769556 37.57914502 221.46358081 32.29663658 221.4814682 C27.32667169 221.49797075 22.35690349 221.50009375 17.38692093 221.49132919 C15.56688853 221.49056004 13.74684545 221.49488548 11.92683983 221.50478745 C-8.92596333 221.61155232 -8.92596333 221.61155232 -14.4398241 216.71713638 C-18.78463277 211.81757152 -18.99154078 207.53493277 -18.98440552 201.29647827 C-18.98737664 200.48960502 -18.99034776 199.68273178 -18.99340892 198.85140783 C-19.00210421 196.13845153 -19.00360487 193.42553933 -19.00509644 190.71257019 C-19.00972401 188.77114772 -19.01474859 186.82972616 -19.0201416 184.88830566 C-19.0332732 179.60725748 -19.03971201 174.32622202 -19.04415226 169.04516006 C-19.04708168 165.74699656 -19.05118624 162.44883656 -19.05565643 159.15067482 C-19.06933319 148.83502982 -19.07899905 138.51939278 -19.08285832 128.20373935 C-19.08734005 116.28920261 -19.10489257 104.37478055 -19.13385892 92.46027869 C-19.15546285 83.25510268 -19.16556191 74.04995896 -19.16689944 64.84475785 C-19.16794837 59.34485711 -19.17387484 53.84506414 -19.19171906 48.34519005 C-19.20817748 43.17172414 -19.21036605 37.99844726 -19.20158005 32.82496452 C-19.20080849 30.92627202 -19.20516803 29.02756944 -19.2150383 27.12890244 C-19.22772525 24.53634183 -19.22189881 21.94445401 -19.2114563 19.35189819 C-19.2195127 18.60101384 -19.22756911 17.85012948 -19.23586965 17.07649106 C-19.19140791 12.35487707 -18.33407222 9.14478654 -15.84396362 5.13371277 C-10.7372429 0.4099961 -6.71592013 -0.01371602 0 0 Z M13.15603638 31.13371277 C13.15603638 83.27371277 13.15603638 135.41371277 13.15603638 189.13371277 C64.63603638 189.13371277 116.11603638 189.13371277 169.15603638 189.13371277 C169.15603638 136.99371277 169.15603638 84.85371277 169.15603638 31.13371277 C117.67603638 31.13371277 66.19603638 31.13371277 13.15603638 31.13371277 Z " fill="#211F20" transform="translate(317.8439636230469,303.8662872314453)"/>
</svg>
