<?xml version="1.0" encoding="UTF-8"?>
<svg version="1.1" xmlns="http://www.w3.org/2000/svg" width="850" height="850">
<path d="M0 0 C1.00463841 -0.00205263 2.00927682 -0.00410527 3.04435882 -0.0062201 C6.39578683 -0.01185451 9.74717328 -0.01043728 13.09860516 -0.00901413 C15.53175376 -0.01159979 17.96490194 -0.01461351 20.39804953 -0.01801753 C26.37408342 -0.02522388 32.35010352 -0.02778899 38.3261404 -0.02834659 C45.48827223 -0.0292633 52.65039587 -0.03593981 59.81252415 -0.04269341 C77.11674349 -0.05872196 94.42096191 -0.06465255 111.72518733 -0.06944216 C119.91438636 -0.07178067 128.1035847 -0.07538354 136.29278319 -0.07913754 C164.33810432 -0.09196858 192.38342508 -0.10268946 220.42874908 -0.10614014 C222.18782226 -0.10636177 223.94689543 -0.10658355 225.7059686 -0.10680549 C227.46921484 -0.10702613 229.23246109 -0.10724661 230.99570733 -0.10746694 C234.53291086 -0.10790948 238.07011439 -0.1083566 241.60731792 -0.10880661 C242.92284014 -0.1089707 242.92284014 -0.1089707 244.26493857 -0.1091381 C272.70964742 -0.11276968 301.15433081 -0.12869584 329.59902991 -0.15199697 C359.69002894 -0.17660157 389.78101342 -0.19031321 419.87202281 -0.19150805 C423.17601184 -0.1916795 426.48000087 -0.19189493 429.78398991 -0.19214249 C430.59749326 -0.19219826 431.41099662 -0.19225402 432.2491516 -0.19231148 C445.3294758 -0.19346118 458.4097738 -0.20447591 471.49008916 -0.21902954 C484.63911348 -0.2334066 497.78810428 -0.23662463 510.9371343 -0.22858956 C518.74386189 -0.22413951 526.55048113 -0.22796895 534.35719444 -0.24382807 C540.19295752 -0.25475251 546.02863965 -0.24991784 551.86440512 -0.2390562 C554.22030052 -0.23709795 556.57620683 -0.24018352 558.93208692 -0.24890056 C588.84994094 -0.35256824 588.84994094 -0.35256824 602.4713316 7.13142776 C603.14937847 7.49365433 603.82742535 7.85588089 604.5260191 8.22908401 C615.29751581 14.68014523 626.23338778 25.17199471 630.4713316 37.13142776 C631.0591441 38.70924026 631.0591441 38.70924026 631.6588316 40.31892776 C631.9269566 41.24705276 632.1950816 42.17517776 632.4713316 43.13142776 C632.81284085 44.20420131 633.1543501 45.27697485 633.50620812 46.38225669 C634.45747823 50.07761223 634.72294624 53.12714931 634.72580719 56.93066502 C634.73061691 57.90572456 634.73061691 57.90572456 634.73552379 58.90048227 C634.74379815 61.06978452 634.73790864 63.23880882 634.73202801 65.40811539 C634.73504987 66.98270543 634.73893953 68.557294 634.74362057 70.13187999 C634.75390494 74.45218494 634.75171762 78.77240695 634.74743998 83.09271872 C634.74497354 87.75473465 634.75398594 92.41673056 634.76147747 97.07873917 C634.77422907 106.20988666 634.77601756 115.34100476 634.77367721 124.47215966 C634.77189429 131.89467972 634.77364312 139.31719086 634.77790165 146.73970985 C634.77849684 147.79606219 634.77909203 148.85241452 634.77970525 149.94077754 C634.780917 152.08676349 634.78213114 154.23274944 634.78334763 156.37873539 C634.79422509 176.50586693 634.79205979 196.63298172 634.78596278 216.76011422 C634.78079427 235.16960202 634.79204699 253.57903689 634.811061 271.98851422 C634.83043741 290.89389659 634.83869569 309.79925392 634.83493775 328.70464629 C634.8330253 339.31752907 634.83551748 349.93036682 634.84965229 360.5432415 C634.86156458 369.57880713 634.86297271 378.61429999 634.85086212 387.64986662 C634.8449722 392.25868286 634.84387715 396.86736601 634.85586452 401.4761734 C634.86671903 405.6985509 634.8636251 409.92068411 634.84960284 414.14305016 C634.84695471 415.66723475 634.84932611 417.19143845 634.8573387 418.71560428 C634.907519 428.97646917 634.43429403 438.41632883 628.4713316 447.13142776 C627.93185894 448.03634964 627.93185894 448.03634964 627.38148785 448.95955276 C618.87600891 463.19875712 606.34323135 473.60678318 590.17616558 478.03372574 C577.70608196 480.62066918 565.41467141 480.51409633 552.7213316 480.42439651 C550.36765599 480.41878897 548.01397683 480.41452436 545.66029644 480.41153336 C539.51847139 480.40017577 533.37686518 480.37078846 527.23512554 480.33742142 C520.94670349 480.30652284 514.65824547 480.29298605 508.3697691 480.27791214 C496.07019471 480.2459087 483.77078148 480.19482452 471.4713316 480.13142776 C471.48243465 480.68995438 471.49353771 481.24848099 471.50497723 481.82393265 C471.61603827 487.66422322 471.69119128 493.50421135 471.7459898 499.34529495 C471.77105416 501.5218513 471.80511491 503.69832415 471.84852886 505.87459183 C471.90953572 509.01249731 471.93762281 512.14928513 471.95961285 515.28767776 C471.99832249 516.73503311 471.99832249 516.73503311 472.03781414 518.21162796 C472.04052018 524.80627186 470.6479519 528.9953197 466.4713316 534.13142776 C463.00736599 537.59539337 459.31767122 537.25722556 454.58949661 537.26285553 C453.37936104 537.26669667 452.16922547 537.27053782 450.92241913 537.27449536 C449.5777664 537.27371513 448.23311372 537.27283635 446.88846111 537.27186966 C445.46139061 537.2744534 444.03432084 537.27746659 442.60725206 537.28087306 C438.68099435 537.28894493 434.75475492 537.29073273 430.8284899 537.29147053 C426.59597287 537.2933207 422.36346533 537.30086775 418.13095379 537.30760574 C408.87495309 537.32118982 399.61895671 537.32721359 390.3629477 537.3316164 C384.58581116 537.33437808 378.80867628 537.33861524 373.03154087 537.34312057 C357.0421859 537.35531218 341.05283227 537.36561246 325.06347275 537.36899567 C324.04007755 537.36921523 323.01668235 537.3694348 321.96227517 537.36966102 C320.93641287 537.3698793 319.91055056 537.37009757 318.85360152 537.37032247 C316.77476219 537.37076593 314.69592287 537.3712125 312.61708355 537.37166214 C311.5859044 537.37188357 310.55472524 537.372105 309.49229824 537.37233314 C292.77347283 537.37628343 276.05469095 537.393745 259.33588237 537.41702166 C242.17875158 537.44071623 225.02164265 537.45319661 207.86449522 537.45436358 C198.22814274 537.45528129 188.59184701 537.46105776 178.95551014 537.4791832 C170.75233186 537.49455848 162.54922787 537.49971982 154.34603793 537.49144509 C150.15910879 537.48752975 145.97232937 537.48851117 141.78541851 537.50250244 C137.95423637 537.51518824 134.12331727 537.51409107 130.29213577 537.50191173 C128.90455529 537.49994548 127.51695653 537.50307576 126.12940181 537.51175609 C124.24596738 537.5227947 122.36244669 537.51359886 120.47900772 537.50336456 C118.90850925 537.5042602 118.90850925 537.5042602 117.30628353 537.50517392 C112.71380485 536.89972406 109.4794034 534.42876084 106.2213316 531.25642776 C105.72117535 530.78463089 105.2210191 530.31283401 104.7057066 529.82674026 C94.94539344 516.42175321 102.4713316 496.71326695 102.4713316 480.13142776 C59.5713316 480.13142776 16.6713316 480.13142776 -27.5286684 480.13142776 C-27.5286684 500.59142776 -27.5286684 521.05142776 -27.5286684 542.13142776 C-29.80559148 547.82373546 -29.80559148 547.82373546 -32.4036684 550.38142776 C-32.89609028 550.88158401 -33.38851215 551.38174026 -33.8958559 551.89705276 C-37.62678045 554.71756032 -42.02566942 554.36434151 -46.5286684 554.13142776 C-51.59263203 553.01735577 -54.09033369 550.96271502 -57.5286684 547.13142776 C-57.8586684 546.80142776 -58.1886684 546.47142776 -58.5286684 546.13142776 C-58.62751299 543.60351906 -58.66044399 541.10292779 -58.65171623 538.57451153 C-58.65287008 537.76969181 -58.65402392 536.96487209 -58.65521273 536.1356639 C-58.65788682 533.40387997 -58.65335077 530.67215348 -58.64892292 527.94037247 C-58.64935846 525.9761043 -58.65023305 524.01183618 -58.65151209 522.04756838 C-58.65376042 516.62267125 -58.64973116 511.19779367 -58.64473403 505.77289903 C-58.64043454 499.93305292 -58.64187559 494.093208 -58.6426363 488.25336075 C-58.64316186 478.12638396 -58.64001177 467.9994136 -58.63439846 457.87243843 C-58.62628771 443.23034765 -58.62366534 428.58825892 -58.62241047 413.94616611 C-58.62030827 390.19305822 -58.61356594 366.43995368 -58.60410786 342.68684769 C-58.59492822 319.60644422 -58.58784226 296.52604167 -58.58360004 273.44563675 C-58.58340275 272.37907812 -58.58340275 272.37907812 -58.58320148 271.29097285 C-58.581883 264.15063411 -58.58060718 257.01029537 -58.57936262 249.86995662 C-58.57682619 235.32337033 -58.57400494 220.7767841 -58.57101154 206.23019791 C-58.57080561 205.22688475 -58.57080561 205.22688475 -58.57059551 204.20330264 C-58.56138989 159.51267628 -58.54552336 114.82205182 -58.5286684 70.13142776 C-59.14174854 70.14031021 -59.75482868 70.14919266 -60.38648701 70.15834427 C-66.77802407 70.24696459 -73.16938607 70.30722308 -79.56138325 70.35115433 C-81.94556997 70.3712467 -84.32970755 70.39852558 -86.713727 70.43318558 C-90.14435178 70.48180635 -93.57432396 70.50442088 -97.0052309 70.52205276 C-98.06795216 70.54269791 -99.13067341 70.56334305 -100.22559834 70.5846138 C-106.30834989 70.58645047 -109.94667472 70.28126356 -114.5286684 66.13142776 C-117.80736739 60.66692946 -118.40480307 55.431722 -117.5286684 49.13142776 C-116.24721511 44.84543707 -114.91545601 42.04927111 -111.1302309 39.54402542 C-106.16228544 37.59550777 -101.72970704 37.75812055 -96.4427309 37.83845901 C-95.38581043 37.84270386 -94.32888996 37.8469487 -93.2399416 37.85132217 C-89.877587 37.86806074 -86.51584062 37.90570487 -83.1536684 37.94392776 C-80.86852083 37.9589808 -78.58336383 37.97266812 -76.29819965 37.98494339 C-70.7081498 38.01794846 -65.11845257 38.06810005 -59.5286684 38.13142776 C-59.34110981 37.4610347 -59.15355122 36.79064163 -58.96030903 36.09993362 C-58.70443012 35.21185013 -58.44855122 34.32376663 -58.1849184 33.40877151 C-57.93548481 32.53212845 -57.68605122 31.65548538 -57.42905903 30.75227737 C-53.85796814 20.35757544 -44.00478495 10.11664119 -34.3411684 5.06892776 C-23.36871798 0.29004605 -11.82529679 -0.02290175 0 0 Z M-28.5286684 42.13142776 C-28.96965571 45.34285672 -28.96965571 45.34285672 -28.88219452 48.99550629 C-28.88396768 49.68897813 -28.88574084 50.38244997 -28.88756773 51.09693611 C-28.88984219 53.43211037 -28.87056113 55.76661335 -28.85146809 58.10170364 C-28.84864676 59.78807275 -28.84714778 61.47444451 -28.84686118 63.16081595 C-28.84222811 67.80373203 -28.81877019 72.44639396 -28.79232228 77.08923006 C-28.76708927 82.09258822 -28.7591947 87.09597668 -28.74921894 92.09938431 C-28.72954476 100.77107022 -28.69882915 109.44266104 -28.66066265 118.11428452 C-28.60549589 130.65206269 -28.56690581 143.18984851 -28.53239141 155.72769853 C-28.47594571 176.06837715 -28.40605099 196.40898651 -28.32774067 216.74959183 C-28.25168781 236.51129147 -28.18194279 256.27299672 -28.12070942 276.03474808 C-28.11693425 277.25239138 -28.11315909 278.47003468 -28.10926952 279.72457626 C-28.09037007 285.83299448 -28.07159492 291.94141308 -28.0528816 298.04983187 C-27.89741828 348.74376949 -27.72014625 399.43761427 -27.5286684 450.13142776 C-26.90934028 450.13050597 -26.29001215 450.12958418 -25.6519165 450.12863445 C-10.44583619 450.10636155 4.76023897 450.08991166 19.96633148 450.07961559 C27.3204619 450.07450169 34.67458131 450.06755497 42.02870464 450.05598831 C48.45307747 450.04588897 54.8774423 450.03953889 61.30182284 450.03733927 C64.69027339 450.03605748 68.07868332 450.03257795 71.46712971 450.02569771 C89.159126 449.99125811 106.79655514 450.33497429 124.4713316 451.13142776 C124.4713316 451.79142776 124.4713316 452.45142776 124.4713316 453.13142776 C125.98124759 454.32008504 127.49546325 455.50557346 129.06117535 456.61970901 C132.75259681 460.57699463 131.69457856 467.92684219 131.78773785 473.02595901 C131.81890949 474.44699181 131.81890949 474.44699181 131.85071087 475.89673233 C131.91590938 478.91239287 131.97495292 481.92813787 132.0338316 484.94392776 C132.07704507 486.9927645 132.12066026 489.0415928 132.16469097 491.09041214 C132.27156026 496.10399823 132.37291091 501.11766899 132.4713316 506.13142776 C136.4457148 507.09816963 140.00470451 507.17800148 144.08461285 507.01033401 C145.9553648 506.93782425 145.9553648 506.93782425 147.86390972 506.86384964 C149.15748394 506.80777542 150.45105816 506.7517012 151.7838316 506.69392776 C153.09674175 506.64172073 154.40965191 506.5895137 155.76234722 506.53572464 C158.99892898 506.40626137 162.2351858 506.27130234 165.4713316 506.13142776 C165.4696397 504.63361771 165.4696397 504.63361771 165.46791363 503.10554886 C165.47159989 499.3813459 165.51452674 495.65842837 165.56898785 491.93465042 C165.5870951 490.32666202 165.59472591 488.71851868 165.59144878 487.11043167 C165.58857605 484.79070284 165.62404157 482.47415186 165.6666441 480.15486526 C165.65755016 479.44212448 165.64845623 478.7293837 165.63908672 477.99504471 C165.78362389 472.97031394 167.22968502 470.5964798 170.69884014 467.25951004 C174.17192257 465.04910574 178.18042445 465.00653127 182.20396996 465.01117325 C183.59647737 465.00911172 183.59647737 465.00911172 185.01711625 465.00700855 C186.02839815 465.01060351 187.03968006 465.01419847 188.08160686 465.01790237 C189.16252568 465.01775352 190.2434445 465.01760466 191.35711843 465.01745129 C194.9852971 465.01814672 198.61342538 465.02599327 202.24159527 465.03377151 C204.8400396 465.03569027 207.4384843 465.03715427 210.03692913 465.03819656 C215.63481756 465.04108205 221.23269279 465.04751921 226.83057499 465.05626297 C234.92633673 465.06881576 243.02209359 465.07489331 251.11786345 465.07919633 C264.25579096 465.08626218 277.3937123 465.09706404 290.53163433 465.11091995 C291.3178045 465.11174776 292.10397467 465.11257558 292.91396818 465.11342847 C298.49558943 465.11933004 304.07721053 465.1253646 309.6588316 465.13142776 C316.03993501 465.13835766 322.42103849 465.14522424 328.80214214 465.15193558 C329.58826455 465.1527637 330.37438696 465.15359183 331.18433126 465.15444505 C344.2768211 465.16811557 357.36931104 465.17788245 370.46180612 465.18484592 C378.54103382 465.18933398 386.62024331 465.19738813 394.69946251 465.20999074 C400.88184226 465.21938712 407.06421588 465.22375592 413.24660206 465.22624207 C415.788771 465.2281222 418.33093931 465.2317391 420.87310314 465.23717499 C424.32941946 465.24433588 427.78568484 465.24543121 431.24200726 465.24495316 C432.25998132 465.24854812 433.27795539 465.25214308 434.32677716 465.25584698 C435.24729219 465.25447263 436.16780723 465.25309828 437.11621666 465.25168228 C437.91471619 465.25260407 438.71321573 465.25352587 439.53591222 465.25447559 C441.55416089 465.25233071 441.55416089 465.25233071 443.4713316 464.13142776 C443.9044566 463.05892776 444.3375816 461.98642776 444.7838316 460.88142776 C446.7803536 455.94586322 450.08411525 453.05623866 454.4713316 450.13142776 C456.60295296 449.87250805 456.60295296 449.87250805 459.11719036 449.85968399 C460.07160015 449.84996567 461.02600994 449.84024734 462.00934124 449.83023453 C463.0550378 449.82964539 464.10073437 449.82905624 465.17811871 449.82844925 C466.28094189 449.82000992 467.38376507 449.81157059 468.52000713 449.80287552 C472.17956745 449.77701127 475.83904678 449.76493084 479.49867535 449.75252151 C482.04397501 449.73634601 484.58926847 449.71916596 487.13455486 449.7010231 C493.16564659 449.65992343 499.19672455 449.62695912 505.22788483 449.59854895 C516.63489638 449.54469473 528.04180033 449.47595947 539.44868946 449.40060997 C543.18416972 449.37791345 546.91963869 449.36154635 550.65515423 449.34589005 C552.97010191 449.3324668 555.28504848 449.31885061 557.59999371 449.30501175 C558.62747219 449.30239838 559.65495068 449.299785 560.71356487 449.29709244 C579.13526647 449.27287571 579.13526647 449.27287571 594.60805035 440.13142776 C607.57657327 425.77633321 604.75750753 406.16425397 604.71425152 387.97908401 C604.71532637 385.34646028 604.71718901 382.71384771 604.72000408 380.08122635 C604.72502355 373.68594957 604.71942389 367.29072495 604.71015378 360.89545465 C604.69964533 353.36488255 604.69984364 345.83432105 604.70032636 338.303743 C604.70082665 324.77266106 604.69169519 311.24160272 604.67714214 297.71052933 C604.66323502 284.7723738 604.65602669 271.83423929 604.65663433 258.8960762 C604.65668666 257.30424277 604.65673685 255.71240934 604.65678489 254.1205759 C604.65680868 253.33410763 604.65683246 252.54763936 604.65685696 251.73733872 C604.65687854 250.95197749 604.65690011 250.16661626 604.65692234 249.35745621 C604.65694409 248.57335052 604.65696584 247.78924484 604.65698826 246.98137838 C604.67464004 167.80371593 604.67464004 167.80371593 604.16990018 88.62824249 C604.14743959 86.16722888 604.13016258 83.7062323 604.11451054 81.24516678 C604.09026438 77.53973072 604.05183872 73.83474167 604.00082469 70.12957954 C603.97756657 68.2222916 603.9678848 66.31485251 603.95888233 64.407444 C603.80689383 55.51858169 602.56004445 48.80492222 596.4713316 41.94392776 C595.7907066 41.14599808 595.1100816 40.34806839 594.4088316 39.52595901 C583.02100558 30.24306361 570.46159677 31.42324807 556.49997234 31.48978043 C554.02954322 31.48330044 551.559119 31.47464517 549.08870429 31.46400613 C543.7247721 31.44596098 538.36116751 31.44340033 532.99724102 31.45465088 C525.02100343 31.47133546 517.04498495 31.45938863 509.0687582 31.44194302 C494.8225373 31.41176851 480.57642201 31.41030331 466.33017972 31.42129605 C453.86489003 31.43088745 441.39964084 31.43159594 428.93435001 31.42341042 C427.26175825 31.42234462 425.58916648 31.42127908 423.91657471 31.42021379 C421.3961134 31.41859271 418.8756521 31.41696041 416.35519081 31.41530076 C392.9280662 31.40004789 369.50095518 31.39453608 346.07382965 31.4098978 C345.19100714 31.41047657 344.30818463 31.41105534 343.39860992 31.41165165 C336.2295898 31.4164163 329.06056988 31.42147428 321.89154998 31.42654937 C293.91556844 31.44614986 265.9397312 31.43692668 237.96376324 31.40413284 C206.52861221 31.36736219 175.09354565 31.35025233 143.65837306 31.36354512 C140.30787068 31.36490262 136.95736829 31.36620269 133.60686588 31.36747169 C132.78189278 31.36779966 131.95691968 31.36812762 131.1069474 31.36846552 C118.64730817 31.37304491 106.18774104 31.36240022 93.72811604 31.34422112 C79.56373463 31.32360988 65.39953342 31.32415039 51.2351623 31.35285351 C43.30709374 31.36830713 35.37943497 31.36720392 27.45138813 31.34232648 C21.53593544 31.32562163 15.62083158 31.34019812 9.70540711 31.367098 C7.30924676 31.37311988 4.91303534 31.36895732 2.51691578 31.35373477 C-0.73476681 31.334578 -3.98424484 31.35221266 -7.23582458 31.37917423 C-8.6386818 31.35767497 -8.6386818 31.35767497 -10.06987956 31.33574137 C-18.37734497 31.47634974 -23.99135474 35.17794579 -28.5286684 42.13142776 Z M194.4713316 495.13142776 C194.4713316 498.76142776 194.4713316 502.39142776 194.4713316 506.13142776 C197.61475618 506.91728391 199.6455517 507.25331278 202.77416134 507.23885822 C204.06103041 507.2366197 204.06103041 507.2366197 205.37389684 507.23433596 C206.78050686 507.22413027 206.78050686 507.22413027 208.21553326 507.21371841 C209.21533773 507.21048929 210.21514221 507.20726016 211.24524379 507.20393318 C214.60482456 507.19184227 217.96432423 507.17247259 221.32387066 507.15315628 C223.72836918 507.14301517 226.13286963 507.13332132 228.53737164 507.12404251 C233.71895088 507.10303819 238.90050568 507.07891412 244.082057 507.0519619 C251.57371447 507.01299887 259.06538866 506.9796475 266.55707881 506.94766664 C278.71178449 506.89562765 290.86646464 506.83904901 303.02113628 506.77962112 C314.82841784 506.72190144 326.63570626 506.66631628 338.44301128 506.6136055 C339.17078731 506.61035578 339.89856334 506.60710606 340.64839318 506.60375787 C344.29942388 506.5874682 347.95045476 506.57122053 351.60148573 506.55499375 C381.891466 506.42031746 412.18140738 506.27820058 442.4713316 506.13142776 C442.4982131 504.48568211 442.51767283 502.83981363 442.5338316 501.19392776 C442.55123394 499.81914261 442.55123394 499.81914261 442.56898785 498.41658401 C442.73082209 496.16549449 442.73082209 496.16549449 441.4713316 495.13142776 C438.29843809 495.03334614 435.14729259 495.00152624 431.97400188 495.01117325 C430.96451003 495.01031882 429.95501817 495.0094644 428.91493565 495.00858408 C425.50459887 495.00692624 422.09431039 495.01245561 418.68397808 495.01790237 C416.250364 495.01818421 413.81674983 495.01802659 411.3831358 495.01745987 C406.12948698 495.01723155 400.87585344 495.02008292 395.6222086 495.02569771 C388.02623868 495.03381057 380.43027478 495.03642771 372.834301 495.0376857 C360.51156627 495.03987656 348.18883813 495.04653755 335.86610699 495.05598831 C323.89280003 495.06516156 311.91949487 495.07224282 299.94618511 495.07649612 C299.20865993 495.07675885 298.47113474 495.07702157 297.71126031 495.07729226 C294.01146536 495.07859725 290.31167039 495.07986097 286.61187541 495.08110416 C255.89835601 495.09147782 225.1848448 495.10917117 194.4713316 495.13142776 Z " fill="#211F20" transform="translate(166.5286684036255,147.86857223510742)"/>
<path d="M0 0 C0.73379883 0.04108887 1.46759766 0.08217773 2.22363281 0.12451172 C42.68573295 2.59517839 83.25740224 15.05436602 115 41 C115.76828125 41.58394531 116.5365625 42.16789062 117.328125 42.76953125 C123.92135181 47.89647296 129.83043323 53.61794921 135.75 59.5 C136.55421387 60.2950293 137.35842773 61.09005859 138.18701172 61.90917969 C143.23225061 66.98051644 147.75550648 72.24401964 152 78 C152.57516357 78.77666016 153.15032715 79.55332031 153.74291992 80.35351562 C173.72153332 107.67533379 185.69457957 140.36926893 189 174 C189.11085938 175.11761719 189.22171875 176.23523438 189.3359375 177.38671875 C193.56668855 225.69732197 179.27070456 274.47766204 150 313 C149.58878906 313.5480127 149.17757813 314.09602539 148.75390625 314.66064453 C139.4540976 327.02014541 129.19845399 337.41550044 117 347 C116.0615625 347.77859375 115.123125 348.5571875 114.15625 349.359375 C83.99808166 373.76572773 43.20384916 389.00598622 4.34765625 389.203125 C3.44865097 389.20882507 2.54964569 389.21452515 1.62339783 389.22039795 C-0.27164558 389.22978833 -2.16670487 389.236358 -4.06176758 389.24023438 C-6.89890677 389.24986894 -9.73529794 389.28092057 -12.57226562 389.3125 C-29.06069921 389.41010622 -44.29775027 387.09165659 -60.1875 382.6875 C-61.30044434 382.38191162 -62.41338867 382.07632324 -63.56005859 381.76147461 C-88.60914569 374.7242912 -111.85069753 362.41430982 -132 346 C-132.54398437 345.56429688 -133.08796875 345.12859375 -133.6484375 344.6796875 C-170.08030328 315.4315699 -190.7595159 273.32771809 -199 228 C-199.19505127 226.99316162 -199.39010254 225.98632324 -199.59106445 224.94897461 C-201.32327325 215.17807693 -201.44308392 205.45698007 -201.4375 195.5625 C-201.4375705 194.66360046 -201.43764099 193.76470093 -201.43771362 192.83856201 C-201.34120497 160.64313226 -194.90614148 129.29161839 -179 101 C-178.33371039 99.77133451 -177.6683525 98.54216333 -177.00390625 97.3125 C-170.0931751 84.69788733 -161.42782959 73.77974477 -152 63 C-151.54189941 62.47196777 -151.08379883 61.94393555 -150.61181641 61.39990234 C-144.3017451 54.16115364 -137.58937579 47.91149036 -130 42 C-129.21238281 41.33484375 -128.42476563 40.6696875 -127.61328125 39.984375 C-120.58331065 34.08152365 -112.95237308 29.52417698 -105 25 C-104.39526855 24.64905273 -103.79053711 24.29810547 -103.16748047 23.93652344 C-73.11118544 6.56775931 -34.63163258 -1.97056505 0 0 Z M-38 35 C-36.7336782 42.35547784 -35.2210279 49.60921785 -33.46875 56.86328125 C-32.98288409 58.90555404 -32.49721306 60.94787321 -32.01171875 62.99023438 C-31.25722713 66.14994345 -30.50080381 69.30915994 -29.74072266 72.4675293 C-24.55764463 94.04238587 -24.55764463 94.04238587 -23.43945312 104.57495117 C-23.20639322 107.17340057 -23.20639322 107.17340057 -21 109 C-18.16720659 109.21249428 -18.16720659 109.21249428 -14.83984375 109.0546875 C-13.5780127 109.02761719 -12.31618164 109.00054687 -11.01611328 108.97265625 C-10.34904358 108.95605957 -9.68197388 108.93946289 -8.99468994 108.92236328 C3.16027493 108.642516 14.35137541 109.17405878 26 113 C26.24169922 112.01386719 26.24169922 112.01386719 26.48828125 111.0078125 C30.70167434 96.27092101 39.9428916 83.36974443 50 72 C50.55816406 71.33355469 51.11632812 70.66710937 51.69140625 69.98046875 C55.86787849 65.03914858 60.43091873 60.51869558 65.08911133 56.03540039 C66.429153 54.72653738 67.71926933 53.36695392 69 52 C69 51.34 69 50.68 69 50 C48.21476462 39.76953663 26.16473363 32.86441132 2.8203125 32.83203125 C1.54110428 32.82703865 1.54110428 32.82703865 0.23605347 32.82194519 C-1.55730658 32.81691233 -3.35067587 32.81453573 -5.14404297 32.81469727 C-7.86051122 32.81251166 -10.57657214 32.79431936 -13.29296875 32.77539062 C-21.77895045 32.74878239 -29.73509419 32.81730567 -38 35 Z M-124.5 79.25 C-132.62896733 86.25938044 -132.62896733 86.25938044 -137 95 C-137.66 95 -138.32 95 -139 95 C-140.64661088 97.30158249 -142.15017043 99.59057554 -143.625 102 C-144.06505371 102.71027344 -144.50510742 103.42054688 -144.95849609 104.15234375 C-149.45368885 111.531398 -153.28866115 119.20411505 -157 127 C-156.14728516 127.52787109 -156.14728516 127.52787109 -155.27734375 128.06640625 C-151.43692489 130.52196622 -147.95170311 132.86803653 -144.875 136.25 C-131.36025117 150.25619424 -108.53165213 161.58855337 -90 167 C-89.01 166.67 -88.02 166.34 -87 166 C-85.98318521 163.72941357 -85.12879491 161.52891733 -84.3125 159.1875 C-81.51583555 151.70588615 -77.79096974 145.41717288 -73 139 C-72.53078125 138.34644531 -72.0615625 137.69289063 -71.578125 137.01953125 C-65.67066141 129.42670305 -56.95124134 124.24166654 -49 119 C-50.45079901 110.59052035 -52.18970483 102.26252169 -54.0625 93.9375 C-54.2087381 93.28578827 -54.3549762 92.63407654 -54.50564575 91.96261597 C-58.21035546 75.52285806 -62.57784144 59.25886841 -67 43 C-86.36235588 43 -111.57785813 66.3364683 -124.5 79.25 Z M96 68 C83.95930551 75.19699955 73.76490654 87.57019145 66 99 C65.360625 99.89074219 64.72125 100.78148437 64.0625 101.69921875 C60.96821516 106.01187825 58.26026041 110.18466261 56 115 C54.41370203 117.84382952 52.81629689 120.6808208 51.20703125 123.51171875 C49.78177661 125.98893398 49.78177661 125.98893398 50 129 C53.03655958 132.05076843 53.03655958 132.05076843 57 133 C57.25007813 133.55171875 57.50015625 134.1034375 57.7578125 134.671875 C59.22392026 137.41967445 60.99514785 139.7671764 62.875 142.25 C66.14898773 146.6847652 68.7295438 150.98607588 71 156 C72.06250977 155.75878418 72.06250977 155.75878418 73.14648438 155.51269531 C101.45687634 150.42612591 130.50224678 159.01938345 157 168 C151.17019483 139.5674865 140.97528339 110.18771336 119.55541992 89.54541016 C117.63656959 87.63890841 116.0682554 85.57535835 114.5 83.375 C111.85941239 79.88184598 109.29555893 77.49018155 105.6328125 75.125 C103.12767343 73.39897117 101.14552165 71.14552165 99 69 C98.01 68.67 97.02 68.34 96 68 Z M-51.1484375 160.4375 C-53.23086434 163.31950846 -54.66666603 166.19633365 -56.125 169.4375 C-56.62257813 170.52933594 -57.12015625 171.62117188 -57.6328125 172.74609375 C-62.82382462 185.10070259 -63.96768788 199.14744998 -59.29736328 211.921875 C-52.65573771 228.15433822 -41.92636183 237.97518311 -26 245 C-13.88032757 250.05983503 0.94764789 249.58332522 13.17578125 245.1953125 C20.82209051 241.95911522 27.91460156 237.71135503 34 232 C34 231.34 34 230.68 34 230 C34.66 230 35.32 230 36 230 C46.73278293 216.2663634 50.43268073 201.10238221 49 184 C46.22716068 169.34356358 38.60152645 156.36398795 26.25878906 147.79052734 C-0.57444338 130.71811801 -30.69504536 137.23219692 -51.1484375 160.4375 Z M-168 157 C-173.72466032 188.68015906 -171.92244943 221.32824142 -161.5 251.75 C-161.21552002 252.584104 -160.93104004 253.41820801 -160.63793945 254.27758789 C-157.9204108 262.36332654 -157.9204108 262.36332654 -152 268 C-149.72163417 267.67307507 -149.72163417 267.67307507 -147.1171875 266.99609375 C-145.62541992 266.63185303 -145.62541992 266.63185303 -144.10351562 266.26025391 C-143.03810547 265.98874512 -141.97269531 265.71723633 -140.875 265.4375 C-139.78638672 265.16083496 -138.69777344 264.88416992 -137.57617188 264.59912109 C-116.74259594 259.16896226 -98.6046736 250.34350677 -81 238 C-82.09728352 234.57220281 -83.26121607 231.33923081 -84.875 228.125 C-88.56619957 219.96841667 -90.80368297 210.52980569 -91.625 201.625 C-91.61901696 197.96058796 -91.61901696 197.96058796 -94 196 C-95.80515748 195.22690508 -95.80515748 195.22690508 -97.90234375 194.58984375 C-98.7005957 194.3271167 -99.49884766 194.06438965 -100.32128906 193.79370117 C-101.18463867 193.51115479 -102.04798828 193.2286084 -102.9375 192.9375 C-125.0298905 185.42122388 -145.77707248 174.2263732 -163.5625 159 C-165.7321912 156.78856113 -165.7321912 156.78856113 -168 157 Z M79 184 C78.98541748 184.65895264 78.97083496 185.31790527 78.95581055 185.99682617 C78.54904826 202.4584816 77.33557698 216.10194781 70.890625 231.41796875 C70.59671875 232.27003906 70.3028125 233.12210938 70 234 C70.33 234.66 70.66 235.32 71 236 C71.70125 236.20625 72.4025 236.4125 73.125 236.625 C76.72541564 238.34693792 78.46281047 240.56314633 80.984375 243.60546875 C83.20973579 246.24916287 85.5661127 248.73676592 87.9375 251.25 C99.61222449 264.10630537 113.35579782 284.60721688 117 302 C117.66 302 118.32 302 119 302 C119 301.34 119 300.68 119 300 C119.66 300 120.32 300 121 300 C122.61893663 298.01381877 124.10035258 296.03573693 125.5625 293.9375 C126.22958984 292.98411743 126.22958984 292.98411743 126.91015625 292.01147461 C128.28906832 290.01778125 129.64885274 288.01259999 131 286 C131.39171387 285.41766602 131.78342773 284.83533203 132.18701172 284.23535156 C146.24594971 262.97250848 155.77471168 237.45173513 158 212 C158.0825 211.18015625 158.165 210.3603125 158.25 209.515625 C158.43364088 206.37077493 158.40634574 204.51370129 156.41796875 202 C153.48731421 199.5759368 150.41053184 198.09011202 146.9375 196.625 C146.24068115 196.32754883 145.5438623 196.03009766 144.82592773 195.72363281 C127.16361305 188.37523528 98.15157736 177.61614088 79 184 Z M43.0625 262.6875 C33.59604814 269.13327259 23.80474428 273.25909241 13 277 C12.90203125 278.28390625 12.8040625 279.5678125 12.703125 280.890625 C10.73439913 304.87932076 5.83710997 328.77554793 -3.17138672 351.16699219 C-4.29367208 353.96629898 -5 355.94664942 -5 359 C30.64304172 357.95167524 67.56729005 347.72444808 95 324 C85.98789662 298.32916008 73.40749847 275.56009613 52 258 C48.5071534 258 45.85375065 260.74185428 43.0625 262.6875 Z M-63 259 C-64.1446875 260.485 -64.1446875 260.485 -65.3125 262 C-69.39220821 266.87027367 -74.5641004 269.81265333 -80.03076172 272.88916016 C-81.37719104 273.64867583 -82.71713835 274.41976749 -84.05126953 275.20068359 C-100.67284872 284.89755286 -118.5079415 290.05164527 -137 295 C-135.68540518 297.87587226 -134.24593563 300.04457634 -132.09375 302.35546875 C-131.23317993 303.28238525 -131.23317993 303.28238525 -130.35522461 304.22802734 C-129.74300049 304.87465332 -129.13077637 305.5212793 -128.5 306.1875 C-127.86779541 306.8573291 -127.23559082 307.5271582 -126.58422852 308.21728516 C-105.4547032 330.4111959 -71.36164651 353.99936859 -39.45703125 355.125 C-38.64621094 355.08375 -37.83539063 355.0425 -37 355 C-25.94573973 330.71730032 -18.15591474 305.6887377 -16 279 C-19.62541964 276.90058607 -23.45936735 276.10506728 -27.5 275.1875 C-38.4882681 272.52529767 -47.68979754 268.65288454 -56.81323242 261.9465332 C-59.60807228 259.68952952 -59.60807228 259.68952952 -63 259 Z " fill="#211F20" transform="translate(466,200)"/>
</svg>
