<?xml version="1.0" encoding="UTF-8"?>
<svg version="1.1" xmlns="http://www.w3.org/2000/svg" width="850" height="850">
<path d="M0 0 C179.52 0 359.04 0 544 0 C544 0.66 544 1.32 544 2 C546.475 2.495 546.475 2.495 549 3 C549 3.99 549 4.98 549 6 C550.485 5.505 550.485 5.505 552 5 C558.26213354 7.60922231 563.24306191 13.92930382 566 20 C566.66 20 567.32 20 568 20 C569.4606285 22.64738916 570 23.89448334 570 27 C570.66 27 571.32 27 572 27 C572.66 28.98 573.32 30.96 574 33 C574.66 33 575.32 33 576 33 C575.67 34.32 575.34 35.64 575 37 C575.33 37 575.66 37 576 37 C576.01710968 86.08439558 576.03303142 135.16879136 576.04234314 184.25318909 C576.0424812 184.97906586 576.04261925 185.70494264 576.04276149 186.45281568 C576.04575405 202.22614504 576.04852428 217.99947443 576.05106533 233.77280387 C576.05231272 241.50747147 576.05360927 249.24213906 576.05493164 256.97680664 C576.05512778 258.13137648 576.05512778 258.13137648 576.05532788 259.30927097 C576.05959309 284.28071426 576.06710728 309.25215529 576.07629722 334.22359721 C576.08571999 359.87412356 576.09188316 385.52464866 576.09391499 411.17517671 C576.09420317 414.79391422 576.0945288 418.41265173 576.09487724 422.03138924 C576.09494467 422.74364431 576.09501209 423.45589939 576.09508156 424.18973795 C576.09626561 435.67856043 576.10090995 447.16737906 576.10683203 458.65619997 C576.11270514 470.19211489 576.11489029 481.72802446 576.11350138 493.2639411 C576.11285765 499.52011763 576.11387939 505.77628281 576.11920547 512.03245735 C576.12403752 517.74970568 576.12433994 523.46693492 576.12089889 529.18418408 C576.12047301 531.26225043 576.12177037 533.34031792 576.12488318 535.41838198 C576.1288439 538.22361408 576.12676544 541.02877551 576.12304783 543.83400631 C576.12567484 544.6576172 576.12830186 545.48122809 576.13100848 546.32979688 C576.1141458 551.8858542 576.1141458 551.8858542 575 553 C575.33 553 575.66 553 576 553 C576 554.98 576 556.96 576 559 C575.34 559 574.68 559 574 559 C573.34 560.98 572.68 562.96 572 565 C571.34 565 570.68 565 570 565 C569.87625 566.051875 569.87625 566.051875 569.75 567.125 C568.82861136 570.65698979 567.07354186 573.01928357 565 576 C564.67 576.99 564.34 577.98 564 579 C563.236875 579.45375 562.47375 579.9075 561.6875 580.375 C558.68584229 582.18995582 557.1443702 584.2640794 555 587 C554.34 587 553.68 587 553 587 C552.67 587.66 552.34 588.32 552 589 C548.65489648 590.62734766 546.81164166 591 543 591 C543 591.66 543 592.32 543 593 C363.81 593 184.62 593 0 593 C0 592.34 0 591.68 0 591 C-0.72960937 590.90460937 -1.45921875 590.80921875 -2.2109375 590.7109375 C-5.40161729 589.89762696 -7.08424238 588.69427683 -9.625 586.625 C-10.75808594 585.71621094 -10.75808594 585.71621094 -11.9140625 584.7890625 C-14 583 -14 583 -15.5859375 581.3359375 C-17.07552748 579.74058327 -17.07552748 579.74058327 -20 579 C-21.60546875 576.6015625 -21.60546875 576.6015625 -23.1875 573.625 C-23.71730469 572.64789062 -24.24710938 571.67078125 -24.79296875 570.6640625 C-26 568 -26 568 -26 565 C-26.66 565 -27.32 565 -28 565 C-28.185625 564.0409375 -28.185625 564.0409375 -28.375 563.0625 C-28.58125 562.381875 -28.7875 561.70125 -29 561 C-29.66 560.67 -30.32 560.34 -31 560 C-31.06845085 509.71857921 -31.13213624 459.43715515 -31.16937256 409.15570068 C-31.16992479 408.41191149 -31.17047702 407.6681223 -31.17104598 406.90179403 C-31.18301669 390.73853747 -31.19409755 374.57528041 -31.20426132 358.41202261 C-31.20925081 350.48594465 -31.214437 342.55986682 -31.21972656 334.63378906 C-31.2202496 333.84503516 -31.22077263 333.05628125 -31.22131152 332.24362571 C-31.23836697 306.66261057 -31.2684197 281.08163069 -31.30518888 255.50063692 C-31.3428951 229.22009329 -31.36753616 202.93956918 -31.37565996 176.65899895 C-31.37681264 172.94986878 -31.37811518 169.24073867 -31.37950897 165.53160858 C-31.37977866 164.80157482 -31.38004836 164.07154106 -31.38032622 163.31938506 C-31.38505918 151.55217864 -31.40362776 139.78503248 -31.42732814 128.01785066 C-31.45084219 116.19733812 -31.45955611 104.37689083 -31.45400551 92.55635574 C-31.45143361 86.14784745 -31.45548351 79.7395165 -31.4768219 73.33103943 C-31.49619235 67.47106281 -31.49733208 61.61138392 -31.48359558 55.751394 C-31.4818962 53.62481681 -31.4870505 51.49822153 -31.49953273 49.37168029 C-31.51545274 46.49347084 -31.50701587 43.61635361 -31.49219131 40.73816299 C-31.50269937 39.90157666 -31.51320742 39.06499032 -31.5240339 38.20305288 C-31.48130659 34.56289534 -31.39919967 32.49127854 -29.06201148 29.61499763 C-28.38154769 29.08204841 -27.7010839 28.54909919 -27 28 C-25.48201581 25.44294092 -25.48201581 25.44294092 -24.25 22.75 C-23.60804688 21.41195312 -23.60804688 21.41195312 -22.953125 20.046875 C-22.63859375 19.37140625 -22.3240625 18.6959375 -22 18 C-21.34 18 -20.68 18 -20 18 C-19.731875 17.4225 -19.46375 16.845 -19.1875 16.25 C-17.97070811 13.94449957 -16.69666121 11.97943808 -15 10 C-14.34 10 -13.68 10 -13 10 C-13 9.34 -13 8.68 -13 8 C-11.03533587 6.93224776 -9.03144641 5.93446535 -7 5 C-6.34 5.33 -5.68 5.66 -5 6 C-4.67 5.01 -4.34 4.02 -4 3 C-1.9375 2.3125 -1.9375 2.3125 0 2 C0 1.34 0 0.68 0 0 Z M1.4375 36.5625 C-0.88832274 40.10210052 -1.27518338 42.56614939 -1.15234375 46.77734375 C-1.13034912 47.75823975 -1.10835449 48.73913574 -1.08569336 49.74975586 C-1.05741455 50.49233643 -1.02913574 51.23491699 -1 52 C6.65380144 52.02528903 14.30759217 52.04284104 21.96142578 52.05493164 C24.56689863 52.0599703 27.17236863 52.0668013 29.77783203 52.07543945 C33.51595764 52.08752544 37.25404597 52.09323288 40.9921875 52.09765625 C42.74847977 52.10539818 42.74847977 52.10539818 44.54025269 52.11329651 C45.62122223 52.11337204 46.70219177 52.11344757 47.81591797 52.11352539 C49.24821243 52.11685631 49.24821243 52.11685631 50.70944214 52.12025452 C53.030239 52.1514245 53.030239 52.1514245 55 51 C55.495 52.485 55.495 52.485 56 54 C56.99 54.33 57.98 54.66 59 55 C60.01187895 56.65948148 61.0126546 58.32580562 62 60 C62.66 60 63.32 60 64 60 C64.05477943 70.40593191 64.06626571 80.81094198 64.02334595 91.21695614 C64.00475524 96.04966329 64.00075977 100.88144217 64.03076172 105.71411133 C64.05919966 110.38306971 64.04845962 115.0504823 64.01119995 119.71936226 C64.00378588 121.49542492 64.01019905 123.27160384 64.03103638 125.04755974 C64.19903954 140.65674359 64.19903954 140.65674359 59.75195312 146.59375 C54.44556395 151.37505534 48.81780307 151.23987381 41.96875 151.09765625 C40.73709106 151.10711777 39.50543213 151.11657928 38.2364502 151.12632751 C34.32306301 151.14683848 30.41315249 151.10556778 26.5 151.0625 C23.83844482 151.06055726 21.17718405 151.07269271 18.515625 151.08398438 C12.00822734 151.11035475 5.5091677 151.05311005 -1 151 C-1 164.53 -1 178.06 -1 192 C2.03445312 191.96519531 5.06890625 191.93039062 8.1953125 191.89453125 C11.14419616 191.87111447 14.09306935 191.85290995 17.04199219 191.83520508 C19.08663594 191.82014712 21.13124755 191.79969643 23.17578125 191.77368164 C26.11987252 191.73716689 29.06353557 191.72024349 32.0078125 191.70703125 C32.9174173 191.69154739 33.82702209 191.67606354 34.76419067 191.66011047 C40.00939267 191.65872917 43.37686761 192.26051645 48 195 C48.66 195 49.32 195 50 195 C50 195.99 50 196.98 50 198 C50.99 198.66 51.98 199.32 53 200 C53.94941167 203.25516991 54.12664096 206.36745692 54.13371277 209.74365234 C54.13797775 210.66885681 54.14224274 211.59406128 54.14663696 212.54730225 C54.14618378 213.55005188 54.14573059 214.55280151 54.14526367 215.5859375 C54.14862228 216.65152893 54.1519809 217.71712036 54.15544128 218.81500244 C54.16493516 222.3350135 54.16689345 225.85497694 54.16796875 229.375 C54.17118181 231.82210306 54.17454593 234.26920594 54.17805481 236.71630859 C54.18404173 241.84408005 54.1858951 246.97183467 54.18530273 252.09960938 C54.185201 258.67369962 54.19886692 265.24768214 54.21607494 271.82174683 C54.22718523 276.87459816 54.22922226 281.92742334 54.22869301 286.98028564 C54.22987406 289.40440239 54.23430284 291.82851978 54.24202538 294.25262451 C54.25180787 297.63984774 54.24895425 301.02683559 54.24291992 304.4140625 C54.24853943 305.41681213 54.25415894 306.41956177 54.25994873 307.45269775 C54.23106266 313.82427844 54.00195098 317.95038352 49.375 322.6875 C48.59125 323.450625 47.8075 324.21375 47 325 C47 325.66 47 326.32 47 327 C46.01 326.67 45.02 326.34 44 326 C42.51155284 325.91349416 41.01951743 325.88229827 39.52856445 325.88647461 C38.62785721 325.88655014 37.72714996 325.88662567 36.79914856 325.88670349 C35.34589424 325.89444542 35.34589424 325.89444542 33.86328125 325.90234375 C32.86870407 325.9037587 31.87412689 325.90517365 30.84941101 325.90663147 C27.67041018 325.91223239 24.49147957 325.92478504 21.3125 325.9375 C19.15820414 325.94251488 17.00390718 325.94707781 14.84960938 325.95117188 C9.56638226 325.96220212 4.28319615 325.97894114 -1 326 C-1.13696256 354.51039986 -1.24310275 383.02075825 -1.30639198 411.53142285 C-1.31389595 414.89961122 -1.32166191 418.26779893 -1.32958984 421.63598633 C-1.33116371 422.30651386 -1.33273757 422.97704139 -1.33435912 423.66788793 C-1.3604461 434.51597408 -1.40774185 445.36386889 -1.46291678 456.21184164 C-1.5190845 467.34813133 -1.55191612 478.48435569 -1.56453097 489.62078863 C-1.57235063 495.87383223 -1.59071885 502.12644226 -1.63438034 508.37934685 C-1.67515742 514.26696115 -1.68765838 520.15396398 -1.67864609 526.04170609 C-1.68029441 528.20039889 -1.69219844 530.3591125 -1.71523285 532.51768303 C-1.74519917 535.47114715 -1.73786983 538.42231928 -1.7215271 541.37583923 C-1.73900415 542.22508703 -1.7564812 543.07433482 -1.77448785 543.9493174 C-1.67526585 550.60783895 0.73849862 554.94241481 5 560 C8.47735943 562.73221098 9.49200867 563 14 563 C14.33 563.66 14.66 564.32 15 565 C15.99 564.67 16.98 564.34 18 564 C18.33 564.99 18.66 565.98 19 567 C66.44608988 567.01711836 113.89217999 567.03303898 161.33827209 567.04234314 C162.04048861 567.0424812 162.74270513 567.04261925 163.46620094 567.04276149 C178.72725556 567.0457544 193.98831021 567.04852458 209.24936491 567.05106533 C216.73338195 567.05231267 224.21739899 567.05360922 231.70141602 567.05493164 C232.44616569 567.0550624 233.19091536 567.05519316 233.9582332 567.05532788 C258.09772935 567.05958923 282.23722315 567.06710054 306.37671787 567.07629722 C331.18317148 567.08573083 355.9896238 567.09188568 380.79607918 567.09391499 C384.29981393 567.09420314 387.80354866 567.09452878 391.3072834 567.09487724 C391.99686868 567.09494467 392.68645397 567.09501209 393.39693577 567.09508156 C404.4973678 567.09626327 415.59779581 567.10090134 426.6982262 567.10683203 C437.85788928 567.11272061 449.01754846 567.11488668 460.17721342 567.11350138 C466.22375361 567.11285982 472.27028204 567.11385505 478.31682014 567.11920547 C483.85191226 567.12406763 489.3869847 567.12432006 494.92207772 567.12089889 C496.92491678 567.12047598 498.92775707 567.12174794 500.93059372 567.12488318 C503.65358703 567.12889804 506.37650937 567.1267317 509.09950161 567.12304783 C510.26488949 567.12698835 510.26488949 567.12698835 511.45382056 567.13100848 C518.06340581 567.11081315 524.59451983 566.71508084 531 565 C531 564.34 531 563.68 531 563 C532.0209375 562.9071875 532.0209375 562.9071875 533.0625 562.8125 C536.96915667 561.73193539 540.20290341 559.96619059 543 557 C545.10626342 552.0115025 545.28453915 547.62577002 545.25726891 542.31361389 C545.26252802 541.01431979 545.26252802 541.01431979 545.26789337 539.68877733 C545.27721781 536.77821293 545.27228134 533.86784817 545.26742554 530.95727539 C545.27116125 528.85272337 545.27576245 526.74817273 545.28115618 524.64362431 C545.29341099 518.85394558 545.2931228 513.06432453 545.29076743 507.27463579 C545.2903599 501.03325029 545.30139218 494.79188344 545.31088257 488.55050659 C545.32750625 476.32105751 545.33301859 464.09163473 545.33410732 451.86217666 C545.33502618 441.9252964 545.33914168 431.98842241 545.34550858 422.05154419 C545.34730363 419.1919241 545.34908326 416.33230401 545.35085833 413.47268391 C545.35130043 412.76179441 545.35174252 412.05090491 545.35219802 411.31847331 C545.3645064 391.32260158 545.37239913 371.32673201 545.37151146 351.33085632 C545.3714803 350.576945 545.37144914 349.82303367 545.37141704 349.04627655 C545.37125083 345.22506915 545.37105274 341.40386175 545.37084763 337.58265436 C545.37080774 336.82373635 545.37076785 336.06481834 545.37072675 335.28290282 C545.37064587 333.74818678 545.37056228 332.21347074 545.37047596 330.6787547 C545.36924999 306.79199704 545.38427218 282.90529612 545.41162109 259.01855469 C545.44232762 232.18813562 545.45955452 205.35775384 545.45769465 178.52731609 C545.45754538 175.667696 545.45744797 172.80807591 545.45738602 169.94845581 C545.45736271 169.24433261 545.4573394 168.5402094 545.45731538 167.81474913 C545.45725379 156.47413804 545.47003575 145.13357614 545.48725055 133.79297969 C545.50418594 122.40107193 545.50585343 111.00925598 545.4930319 99.61733556 C545.4864816 93.44347303 545.48645938 87.26978921 545.5037384 81.09594345 C545.51938272 75.44826822 545.51669431 69.80091469 545.49917014 64.15324771 C545.49608116 62.10622612 545.49980338 60.05918102 545.51089029 58.01218712 C545.52493245 55.2365266 545.5144874 52.46200687 545.49777794 49.68638611 C545.5077143 48.8856471 545.51765066 48.08490809 545.52788812 47.25990427 C545.45143514 41.28158565 543.63599852 37.71333833 539.40234375 33.35546875 C534.07874135 29.1107831 530.16374933 28.85385068 523.56619835 28.86577892 C522.69085562 28.86342669 521.81551288 28.86107446 520.91364461 28.85865095 C517.95392261 28.85194609 514.99424436 28.85241962 512.03451538 28.85282898 C509.90169318 28.84953128 507.7688716 28.84580591 505.63605082 28.8416875 C499.75418822 28.83164869 493.87233583 28.82794769 487.99046588 28.82529819 C481.65490454 28.82140071 475.31935133 28.81182199 468.98379517 28.80308533 C454.39689682 28.78424034 439.80999945 28.77406248 425.22309196 28.76562465 C418.01607884 28.76141935 410.80906656 28.7561972 403.60205415 28.75094012 C378.93586321 28.73304889 354.26967203 28.71805259 329.60347557 28.71061993 C328.05463395 28.71014517 326.50579232 28.70966928 324.9569507 28.70919226 C324.18885734 28.70895589 323.42076399 28.70871951 322.62939507 28.70847597 C318.73779332 28.70727476 314.84619158 28.70605932 310.95458984 28.70483398 C310.18228682 28.70459383 309.40998379 28.70435368 308.61427765 28.70410626 C283.57327484 28.69621299 258.5323194 28.67278113 233.49133728 28.64027804 C207.02217522 28.60598386 180.55304087 28.58626915 154.08385623 28.58297569 C151.17835719 28.58255814 148.27285818 28.58207858 145.36735916 28.58155251 C144.65193352 28.58142931 143.93650788 28.58130612 143.19940267 28.5811792 C131.68347714 28.57884662 120.16760659 28.56318343 108.65170065 28.54271066 C97.07678358 28.52245942 85.50195706 28.51730557 73.92702095 28.52648129 C67.6555923 28.53103592 61.38434225 28.52907208 55.11293793 28.50971985 C49.37247254 28.49215871 43.63231699 28.49302869 37.89184864 28.50861714 C35.81439922 28.51100393 33.73692874 28.50661449 31.65951161 28.49478849 C28.83558042 28.47970777 26.01275248 28.4893158 23.1888485 28.50501537 C21.97902309 28.48968206 21.97902309 28.48968206 20.74475676 28.47403899 C13.65646913 28.56004539 5.90529166 30.66908821 1.4375 36.5625 Z M-2 77 C-2 92.51 -2 108.02 -2 124 C-1.67 123.34 -1.34 122.68 -1 122 C-0.01 122.33 0.98 122.66 2 123 C4.32136666 123.0957004 6.64541243 123.13073915 8.96875 123.1328125 C9.64546753 123.13376923 10.32218506 123.13472595 11.01940918 123.13571167 C12.44832451 123.13639132 13.87724296 123.13455201 15.30615234 123.13037109 C17.4919326 123.12501975 19.67750738 123.13032328 21.86328125 123.13671875 C23.25260462 123.13605793 24.64192786 123.13477669 26.03125 123.1328125 C27.92713867 123.13112061 27.92713867 123.13112061 29.86132812 123.12939453 C33.02990983 123.14385354 33.02990983 123.14385354 36 122 C36.02464513 115.8944529 36.04283371 109.78893449 36.05493164 103.68334961 C36.05997288 101.60456844 36.06680574 99.52579084 36.07543945 97.44702148 C36.08751422 94.46597414 36.09323024 91.48497351 36.09765625 88.50390625 C36.10281754 87.56849503 36.10797882 86.6330838 36.11329651 85.66932678 C36.11337204 84.80850998 36.11344757 83.94769318 36.11352539 83.06079102 C36.115746 82.29912125 36.11796661 81.53745148 36.12025452 80.75270081 C36.19090955 78.97189395 36.19090955 78.97189395 35 78 C32.26321352 77.83990837 29.54812082 77.74045579 26.80859375 77.68359375 C26.08224731 77.66494263 25.35590088 77.6462915 24.60754395 77.6270752 C21.88432419 77.5585799 19.16089667 77.49855759 16.4375 77.4375 C10.353125 77.293125 4.26875 77.14875 -2 77 Z M-2 219 C-2 244.74 -2 270.48 -2 297 C7.24 297 16.48 297 26 297 C26 271.26 26 245.52 26 219 C16.76 219 7.52 219 -2 219 Z " fill="#211F20" transform="translate(153,129)"/>
<path d="M0 0 C1.6207972 0.00848969 1.6207972 0.00848969 3.27433777 0.01715088 C6.71850264 0.03950457 10.1616194 0.08970109 13.60546875 0.140625 C15.94334433 0.16069121 18.28123625 0.17894177 20.61914062 0.1953125 C26.34410636 0.23936605 32.06846267 0.30626879 37.79296875 0.390625 C38.28796875 1.875625 38.28796875 1.875625 38.79296875 3.390625 C39.41171875 3.514375 40.03046875 3.638125 40.66796875 3.765625 C42.79296875 4.390625 42.79296875 4.390625 44.40183687 6.60531336 C45.88545446 9.57579905 46.17026124 11.29287269 46.1760788 14.58061123 C46.18513544 15.61098458 46.19419208 16.64135793 46.20352316 17.70295471 C46.19819523 18.82823658 46.19286731 19.95351846 46.18737793 21.11289978 C46.19651459 22.91380447 46.19651459 22.91380447 46.20583582 24.75109106 C46.2196069 28.08044056 46.21991654 31.4092969 46.21446085 34.7386378 C46.21179131 38.33041153 46.22632095 41.92212206 46.23855591 45.51387024 C46.25961484 52.54910189 46.26415052 59.58425114 46.26236802 66.61951058 C46.26106071 72.33731394 46.26486296 78.05509158 46.27229309 83.77289009 C46.27439227 85.41950482 46.27648987 87.06611955 46.27858591 88.71273428 C46.27962944 89.5322813 46.28067297 90.35182832 46.28174812 91.19621009 C46.30065211 106.69735771 46.29959971 122.19845801 46.29277879 137.69961239 C46.2872023 151.88287442 46.30803294 166.06595589 46.34113926 180.24917572 C46.37486502 194.81071836 46.39004605 209.37217446 46.38542223 223.93375689 C46.38317652 232.1097279 46.38843551 240.28553198 46.41331482 248.46146965 C46.43431352 255.42142952 46.43793425 262.38113091 46.41901523 269.34110134 C46.40984862 272.89234482 46.40874179 276.44310619 46.42937088 279.99431229 C46.45148413 283.84356415 46.43488544 287.6920928 46.41442871 291.54136658 C46.42694656 292.66441773 46.43946441 293.78746888 46.45236158 294.94455189 C46.35607036 303.37014751 46.35607036 303.37014751 43.44944 306.9866724 C36.80534944 312.99918948 31.96076527 314.54665905 23.1796875 314.55859375 C22.33251663 314.56192215 21.48534576 314.56525055 20.61250305 314.56867981 C18.81955508 314.5737421 17.02659769 314.57608835 15.23364258 314.57592773 C12.50130505 314.57810837 9.76937516 314.59625517 7.03710938 314.61523438 C5.29297013 314.61816968 3.54882897 314.62015356 1.8046875 314.62109375 C0.99198898 314.62827927 0.17929047 314.63546478 -0.65803528 314.64286804 C-5.23807715 314.6245839 -8.89396131 314.13512589 -13.20703125 312.390625 C-13.20703125 311.400625 -13.20703125 310.410625 -13.20703125 309.390625 C-14.38265625 309.08125 -14.38265625 309.08125 -15.58203125 308.765625 C-18.20703125 307.390625 -18.20703125 307.390625 -19.35437965 305.03214073 C-20.5526586 299.91451515 -20.48918899 294.99102118 -20.47445679 289.75137329 C-20.4789879 288.57174464 -20.48351901 287.39211598 -20.48818743 286.176741 C-20.49864642 282.91064477 -20.5001592 279.64468725 -20.49779868 276.37857962 C-20.49739005 272.85292076 -20.50843404 269.32729458 -20.51791382 265.801651 C-20.53451408 258.89757884 -20.54002291 251.99354083 -20.54113857 245.08945037 C-20.54208942 239.47705189 -20.54620155 233.86466467 -20.55253983 228.25226974 C-20.57014886 212.33569252 -20.57937912 196.41914224 -20.57787888 180.50255521 C-20.57779897 179.64480769 -20.57771905 178.78706018 -20.57763672 177.90332031 C-20.57751408 176.61512605 -20.57751408 176.61512605 -20.57738896 175.30090766 C-20.57657594 161.38098242 -20.59571831 147.46116535 -20.62391345 133.5412714 C-20.65264399 119.24411821 -20.66645368 104.94701778 -20.6647259 90.64983499 C-20.6640621 82.62474204 -20.66955002 74.59976252 -20.691082 66.57469559 C-20.70929596 59.74257575 -20.71363936 52.91062078 -20.70006315 46.07848717 C-20.69353476 42.59388043 -20.69341121 39.10958997 -20.71076965 35.62501335 C-20.7261761 31.84434027 -20.71694292 28.06449882 -20.70150757 24.28384399 C-20.71179469 23.18675539 -20.72208182 22.08966678 -20.73268068 20.95933306 C-20.66262947 13.1989049 -19.12305113 7.91277409 -14.1574707 1.91503906 C-9.54286492 -0.46920575 -5.11479702 -0.10095108 0 0 Z M9.79296875 28.390625 C9.79296875 112.870625 9.79296875 197.350625 9.79296875 284.390625 C12.43296875 284.390625 15.07296875 284.390625 17.79296875 284.390625 C17.79296875 199.910625 17.79296875 115.430625 17.79296875 28.390625 C15.15296875 28.390625 12.51296875 28.390625 9.79296875 28.390625 Z " fill="#211F20" transform="translate(611.20703125,193.609375)"/>
<path d="M0 0 C19.81053264 -0.07013232 39.62104003 -0.12300887 59.43167114 -0.15543652 C68.6304337 -0.17089454 77.82911904 -0.19196369 87.02783203 -0.22631836 C95.04697186 -0.25625332 103.06605575 -0.27558274 111.0852499 -0.28226548 C115.32996483 -0.2861708 119.57451978 -0.29532662 123.81918335 -0.31719017 C127.81808746 -0.33762011 131.81676635 -0.34382071 135.8157177 -0.33932304 C137.27979699 -0.34014534 138.74388416 -0.34607223 140.20791817 -0.35761642 C157.14860597 -0.4845946 157.14860597 -0.4845946 163.625 5.375 C164.800625 6.674375 164.800625 6.674375 166 8 C166.99 8.721875 167.98 9.44375 169 10.1875 C173.96008806 14.3560653 176.5937353 19.99583206 177.45519829 26.36601257 C177.62749427 30.32910242 177.64266108 34.27529152 177.59936523 38.24023438 C177.60123238 39.75569052 177.60527567 41.2711453 177.61131287 42.78659058 C177.62122974 46.87304681 177.60021936 50.95880181 177.57283282 55.04515648 C177.54890272 59.32830761 177.55194707 63.61144725 177.55152893 67.89465332 C177.54691236 75.07669879 177.52333756 82.25847773 177.48706055 89.44042969 C177.44520642 97.74875771 177.42773775 106.05684658 177.4244408 114.36527395 C177.42084649 123.21701715 177.40199309 132.06867423 177.37732053 140.92038155 C177.3710868 143.47159485 177.36745396 146.0228016 177.36428642 148.57402039 C177.35840042 152.57306016 177.34212844 156.57192809 177.31768227 160.57089615 C177.31022375 162.04070331 177.30616915 163.51053211 177.30570221 164.98035812 C177.30445043 166.98038156 177.28969103 168.98038319 177.27415466 170.98034668 C177.26950416 172.10116386 177.26485365 173.22198105 177.26006222 174.37676239 C177 177 177 177 175 179 C174.35232207 181.57061311 174.35232207 181.57061311 174 184 C173.34 184 172.68 184 172 184 C171.855625 184.598125 171.71125 185.19625 171.5625 185.8125 C171.1127561 187.56150404 170.57107659 189.28677023 170 191 C169.01 191 168.02 191 167 191 C167 191.66 167 192.32 167 193 C157.25056253 201.05388313 147.86281871 202.59543744 135.44995117 202.50170898 C134.00832595 202.50549943 132.56670439 202.51100541 131.12509155 202.51808167 C127.23895099 202.53195298 123.35325725 202.52092859 119.46714187 202.50437045 C115.3895754 202.49044867 111.31203299 202.4969876 107.23445129 202.50050354 C100.39459077 202.50319852 93.55490648 202.48978631 86.71508789 202.46655273 C78.81235679 202.43989417 70.90991917 202.43821538 63.00715846 202.4499411 C55.38998619 202.46072233 47.77291986 202.45453255 40.155756 202.44038582 C36.91941123 202.43463435 33.68314421 202.43470193 30.44679832 202.43945122 C26.63894367 202.44422643 22.83141033 202.43409716 19.02361679 202.41249657 C17.62763236 202.40693786 16.23161698 202.40645501 14.83563042 202.41144943 C12.92863642 202.41741622 11.02161124 202.4030445 9.1146698 202.38768005 C8.0482384 202.38525016 6.981807 202.38282026 5.8830595 202.38031673 C2.58586849 201.94537014 0.74908474 200.81723787 -2 199 C-3.423125 198.6596875 -3.423125 198.6596875 -4.875 198.3125 C-9.5223694 196.36060485 -11.90679638 192.87373164 -15 189 C-15.93641566 187.91572924 -16.87378623 186.83228176 -17.8125 185.75 C-21.4701704 181.15178578 -22.24922878 178.40220899 -22.20254517 172.48272705 C-22.20017046 171.83002453 -22.19779576 171.177322 -22.1953491 170.50484061 C-22.18493986 168.31978348 -22.16006624 166.13513281 -22.13525391 163.95019531 C-22.12482686 162.38312831 -22.1152918 160.81605515 -22.10658264 159.24897766 C-22.08041025 154.99511349 -22.04174366 150.74144335 -22.00085878 146.48769855 C-21.96024665 142.0421231 -21.93109017 137.59647301 -21.90072632 133.15081787 C-21.84148442 124.73249907 -21.77191775 116.31429841 -21.69865549 107.89609122 C-21.61575016 98.31219979 -21.54433372 88.72823358 -21.47388959 79.14424372 C-21.32872388 59.42938562 -21.16910663 39.71466632 -21 20 C-20.34 20 -19.68 20 -19 20 C-19.33 19.01 -19.66 18.02 -20 17 C-18.39676273 15.22831754 -16.79244861 13.45763108 -15.1875 11.6875 C-14.73568359 11.18798828 -14.28386719 10.68847656 -13.81835938 10.17382812 C-12.55132294 8.77731351 -11.27590047 7.38842082 -10 6 C-9.4740625 5.401875 -8.948125 4.80375 -8.40625 4.1875 C-5.98470103 2.14263642 -3.05642234 2.28834173 0 2 C0 1.34 0 0.68 0 0 Z M7 31 C7 31.66 7 32.32 7 33 C6.34 33 5.68 33 5 33 C4.85983649 50.51537482 4.75403259 68.03057463 4.68912697 85.54638195 C4.65818901 93.67930537 4.61601025 101.81188032 4.54736328 109.94458008 C4.48755868 117.03309194 4.44885039 124.12135145 4.43546903 131.21010858 C4.42764679 134.9636902 4.409266 138.71654991 4.36561966 142.46990013 C4.31728757 146.66019073 4.31606078 150.84922653 4.31884766 155.03979492 C4.297276 156.28416824 4.27570435 157.52854156 4.253479 158.81062317 C4.3003726 165.45996209 4.3003726 165.45996209 7.24664307 171.27255249 C12.14014198 174.30752641 18.19077326 173.66753483 23.73486328 173.59936523 C25.01678558 173.60330795 26.29870789 173.60725067 27.61947632 173.61131287 C31.12372019 173.62126383 34.62715151 173.600159 38.13127756 173.57283282 C41.80225422 173.54895412 45.47321611 173.55194741 49.14425659 173.55152893 C55.3061087 173.54690547 61.46765116 173.52329246 67.62939453 173.48706055 C74.7515453 173.4452926 81.87341757 173.42774329 88.99568379 173.4244408 C96.58385545 173.42084061 104.17192708 173.40196881 111.76005697 173.37732053 C113.94490824 173.3710949 116.12975189 173.36745677 118.31460953 173.36428642 C122.38450358 173.35728657 126.45411204 173.33289421 130.52392578 173.30639648 C131.73441589 173.30573181 132.94490601 173.30506714 134.19207764 173.30438232 C135.29957367 173.2944072 136.4070697 173.28443207 137.54812622 173.27415466 C138.51005953 173.26950416 139.47199284 173.26485365 140.46307564 173.26006222 C143.15840109 172.98376217 144.74240003 172.48084913 147 171 C149.25953682 167.61069476 149.25096517 166.46116201 149.25396729 162.48960876 C149.25960693 161.34405014 149.26524658 160.19849152 149.27105713 159.01821899 C149.26700867 157.76044647 149.26296021 156.50267395 149.25878906 155.20678711 C149.2614989 153.86970326 149.26505979 152.5326209 149.26940918 151.19554138 C149.2785355 147.56343202 149.27498819 143.93143613 149.26865101 140.29932475 C149.26359332 136.50191994 149.26828172 132.70452494 149.27142334 128.90711975 C149.27506322 122.53075411 149.27026287 116.15443478 149.26074219 109.77807617 C149.24985292 102.39978005 149.25338653 95.02159441 149.264395 87.64330095 C149.27346171 81.31374029 149.27475632 74.98421294 149.26951766 68.65464789 C149.26639516 64.87188344 149.26599636 61.08917097 149.27259064 57.30640984 C149.27835471 53.75153093 149.27438459 50.19679495 149.26280212 46.64193153 C149.25888283 44.71004052 149.26484886 42.77813746 149.27105713 40.84625244 C149.26259766 39.13214424 149.26259766 39.13214424 149.25396729 37.38340759 C149.25321323 36.38623687 149.25245918 35.38906614 149.25168228 34.36167812 C149.22994809 31.81115222 149.22994809 31.81115222 147 30 C146.01 30 145.02 30 144 30 C143.67 29.01 143.34 28.02 143 27 C126.00611391 26.90655245 109.01230801 26.83601884 92.01822376 26.79275131 C84.12754031 26.77212732 76.23701652 26.74400999 68.34643555 26.69824219 C61.46887581 26.65836924 54.59143171 26.632566 47.7137596 26.62364602 C44.07213285 26.61843198 40.43083689 26.606181 36.78931618 26.57707977 C32.72373414 26.5448533 28.65872692 26.54404087 24.59301758 26.54589844 C22.78256203 26.52432678 22.78256203 26.52432678 20.93553162 26.50231934 C13.05777029 26.37638 13.05777029 26.37638 7 31 Z " fill="#211F20" transform="translate(280,216)"/>
<path d="M0 0 C1.56971558 -0.00430527 1.56971558 -0.00430527 3.17114258 -0.00869751 C5.38005109 -0.01073578 7.58897775 -0.00522254 9.79785156 0.00732422 C13.17554146 0.02338065 16.55203475 0.00746687 19.9296875 -0.01171875 C22.07812764 -0.00973628 24.22656703 -0.00589252 26.375 0 C27.38344971 -0.00607269 28.39189941 -0.01214539 29.4309082 -0.0184021 C38.90646886 0.07647071 38.90646886 0.07647071 42.1875 3.3984375 C46.09374276 10.65544562 46.76074913 17.32621224 46.68870544 25.44277954 C46.69700704 27.20509842 46.69700704 27.20509842 46.70547634 29.00301969 C46.71667226 32.23744987 46.71010932 35.47126044 46.69573963 38.70565939 C46.68457755 42.20398865 46.69658954 45.70225187 46.70558167 49.20057678 C46.71947983 56.04266453 46.7119838 62.88456711 46.69690608 69.72664596 C46.68000669 77.70017149 46.68326111 85.6736514 46.68700016 93.6471893 C46.69287227 107.8758328 46.67873167 122.10438767 46.65405273 136.33300781 C46.63012483 150.13024211 46.62305282 163.92735805 46.63354492 177.72460938 C46.64496048 192.76308295 46.64687701 207.80150184 46.63244683 222.83997476 C46.63092104 224.44417277 46.62940068 226.04837079 46.62788582 227.65256882 C46.627128 228.44179289 46.62637019 229.23101696 46.62558941 230.04415692 C46.62085222 235.59845283 46.62269394 241.15272427 46.62695122 246.70701981 C46.6318835 253.47682183 46.62586825 260.24651207 46.60605692 267.01628853 C46.59620233 270.46845702 46.59105992 273.9204555 46.59894943 277.37263298 C46.60490348 281.11795817 46.59239378 284.86278265 46.57518005 288.60806274 C46.5811901 289.69464098 46.58720014 290.78121921 46.59339231 291.90072405 C46.53370601 299.03976507 46.11611724 305.46982026 40.8125 310.7734375 C35.22592489 314.23179352 30.80596669 314.69624724 24.37890625 314.6640625 C23.53456528 314.66597595 22.6902243 314.6678894 21.82029724 314.66986084 C20.03929343 314.67121832 18.25827957 314.66755246 16.47729492 314.65917969 C13.76262995 314.64848725 11.0486287 314.65908284 8.33398438 314.671875 C6.59895688 314.67055307 4.8639298 314.66798997 3.12890625 314.6640625 C2.32248184 314.66811096 1.51605743 314.67215942 0.68519592 314.67633057 C-3.83941966 314.6390053 -7.60077764 314.26301278 -11.8125 312.3984375 C-12.1425 311.7384375 -12.4725 311.0784375 -12.8125 310.3984375 C-13.451875 310.1096875 -14.09125 309.8209375 -14.75 309.5234375 C-17.3350867 308.11339021 -17.74136595 307.11232057 -18.8125 304.3984375 C-19.064349 302.01699889 -19.064349 302.01699889 -19.06697559 299.31588173 C-19.07572388 297.76808319 -19.07572388 297.76808319 -19.08464891 296.18901598 C-19.08086958 295.05693032 -19.07709026 293.92484466 -19.07319641 292.75845337 C-19.07702196 291.55462112 -19.08084751 290.35078887 -19.08478898 289.11047685 C-19.09333328 285.76755845 -19.09288116 282.42485956 -19.08860838 279.08194733 C-19.08614546 275.47722205 -19.09514996 271.87252281 -19.10264587 268.26780701 C-19.11540726 261.2050414 -19.11718475 254.14231379 -19.11484561 247.0795386 C-19.1130638 241.33931064 -19.11480916 235.59909422 -19.11907005 229.85886765 C-19.11966524 229.04241038 -19.12026043 228.22595311 -19.12087366 227.38475471 C-19.12208539 225.72620023 -19.12329952 224.06764575 -19.12451603 222.40909128 C-19.13539724 206.84834316 -19.13322641 191.2876167 -19.12713119 175.72686736 C-19.12196224 161.48862322 -19.13321583 147.25044749 -19.15222941 133.01221688 C-19.17159764 118.3964744 -19.17986554 103.7807643 -19.17610615 89.1650089 C-19.17419247 80.95776772 -19.17669786 72.75058476 -19.19082069 64.54335403 C-19.20272259 57.55597328 -19.20415286 50.56868659 -19.19203053 43.58130457 C-19.18613325 40.01600316 -19.18506565 36.45087391 -19.19703293 32.88558388 C-19.20985375 29.02109981 -19.19944728 25.15687788 -19.1867218 21.29238892 C-19.19409609 20.1647647 -19.20147037 19.03714048 -19.20906812 17.87534583 C-19.17041853 12.31335036 -19.03156865 8.16424755 -15.8125 3.3984375 C-11.32502475 -0.72851486 -5.75071135 -0.03462969 0 0 Z M8.1875 27.3984375 C8.1875 112.8684375 8.1875 198.3384375 8.1875 286.3984375 C11.1575 286.3984375 14.1275 286.3984375 17.1875 286.3984375 C17.1875 200.9284375 17.1875 115.4584375 17.1875 27.3984375 C14.2175 27.3984375 11.2475 27.3984375 8.1875 27.3984375 Z " fill="#211F20" transform="translate(534.8125,193.6015625)"/>
<path d="M0 0 C0.90068581 -0.00397441 1.80137161 -0.00794881 2.72935092 -0.01204365 C5.74183772 -0.02165403 8.75385342 -0.00985611 11.7663269 0.00190735 C13.92818375 -0.00052099 16.09003947 -0.00424072 18.25189209 -0.00915527 C24.11944681 -0.01856092 29.98683463 -0.00914206 35.85437632 0.00417686 C41.99176465 0.01549011 48.12914476 0.01138401 54.26654053 0.00942993 C64.57118458 0.00854705 74.87576283 0.01962725 85.1803894 0.03804016 C97.10129146 0.05921888 109.0220972 0.06271523 120.94301426 0.0564782 C132.40449557 0.05078817 143.86594288 0.05642523 155.32741928 0.06765175 C160.20852155 0.07230136 165.08960306 0.07317003 169.97070694 0.0710659 C175.71462843 0.06918542 181.45845156 0.07726848 187.20235062 0.0931263 C189.31312147 0.09737671 191.42390229 0.09821464 193.5346756 0.0954361 C196.41010732 0.0922246 199.28524323 0.10127004 202.16064453 0.11352539 C203.00090907 0.10974607 203.84117361 0.10596674 204.70690072 0.10207289 C208.66614004 0.13203749 211.53873591 0.32351621 214.95333862 2.3742218 C215.94333862 2.3742218 216.93333862 2.3742218 217.95333862 2.3742218 C220.14083862 5.3742218 220.14083862 5.3742218 221.95333862 8.3742218 C221.62333862 9.0342218 221.29333862 9.6942218 220.95333862 10.3742218 C221.61333862 10.3742218 222.27333862 10.3742218 222.95333862 10.3742218 C224.56600094 13.59954644 224.40783552 16.87712068 223.95333862 20.3742218 C222.66203664 23.92530225 220.85125758 26.64729247 217.88331699 29.05005169 C213.78956397 30.90017641 210.20484607 30.78628497 205.76118469 30.7484436 C204.36856032 30.75440521 204.36856032 30.75440521 202.94780213 30.76048726 C199.83547839 30.7701151 196.72360863 30.75828906 193.61129761 30.74653625 C191.38062368 30.74896404 189.14995084 30.75268322 186.91928101 30.75759888 C180.85952642 30.76701276 174.79993321 30.75757843 168.74019122 30.74426675 C162.40393721 30.73296123 156.06769125 30.73705903 149.73143005 30.73901367 C139.09125783 30.73989687 128.45115562 30.72888111 117.81100464 30.71040344 C106.86241737 30.69139513 95.91390411 30.68431718 84.96530151 30.68989563 C71.77134381 30.69659823 58.57742711 30.69330971 45.38347054 30.68079185 C40.34327652 30.67614156 35.30310261 30.67527387 30.26290703 30.6773777 C24.3310424 30.67925809 18.39927303 30.67117587 12.46743011 30.65531731 C10.28732001 30.65106643 8.10720026 30.65022927 5.92708778 30.65300751 C2.95745614 30.65621837 -0.01188892 30.64717508 -2.98149109 30.63491821 C-3.84967439 30.63869754 -4.71785769 30.64247686 -5.61234957 30.64637071 C-6.40796107 30.64053852 -7.20357256 30.63470632 -8.0232935 30.6286974 C-8.70863637 30.62783062 -9.39397925 30.62696384 -10.10009009 30.6260708 C-12.47131721 30.31927948 -14.01691777 29.63299943 -16.04666138 28.3742218 C-19.61853858 23.61171887 -20.75932922 19.83362196 -20.49588013 13.8742218 C-19.74875028 9.71628177 -18.02349927 6.37182834 -15.04666138 3.3742218 C-9.92137581 0.18081455 -5.84293386 -0.05155216 0 0 Z " fill="#211F20" transform="translate(228.04666137695313,470.6257781982422)"/>
<path d="M0 0 C28.86739107 -0.02279927 57.73478107 -0.04050279 86.60217937 -0.05106533 C90.00814238 -0.05231608 93.41410537 -0.0536104 96.82006836 -0.05493164 C97.83719229 -0.05532511 97.83719229 -0.05532511 98.87486418 -0.05572652 C109.86270197 -0.06008104 120.85053454 -0.0679674 131.83836923 -0.0771528 C143.1079969 -0.08649537 154.37762196 -0.09198201 165.64725369 -0.09408849 C171.97928612 -0.09539497 178.3113067 -0.09847685 184.64333534 -0.10573006 C190.59807775 -0.1124961 196.55280339 -0.11461576 202.50754929 -0.11310768 C204.69775547 -0.11338374 206.88796219 -0.11538541 209.07816505 -0.11920547 C212.05927713 -0.12415179 215.04032516 -0.12299476 218.0214386 -0.12025452 C219.33319871 -0.12462378 219.33319871 -0.12462378 220.67145902 -0.12908131 C224.03292531 -0.12068064 226.78850582 -0.07049806 230 1 C233.29021854 4.65846684 236.34254682 8.93147697 236.8125 13.9375 C236.39187835 19.42771945 232.59200182 24.05418215 229 28 C225.0362648 29.32124507 221.24950884 29.13764338 217.11755371 29.12698364 C215.73868492 29.12932363 215.73868492 29.12932363 214.3319602 29.13171089 C211.23886882 29.13571281 208.14582616 29.13253434 205.05273438 29.12939453 C202.84043855 29.13074893 200.62814295 29.13252908 198.41584778 29.13470459 C192.39741529 29.13927433 186.37899989 29.13749123 180.36056709 29.1343255 C174.07187986 29.13179955 167.78319412 29.1341401 161.49450684 29.13571167 C150.25519348 29.13764942 139.0158872 29.13453532 127.77657551 29.12945233 C117.58167798 29.12498446 107.38679185 29.12576044 97.19189453 29.13037109 C85.35881813 29.13572009 73.52574724 29.13771596 61.69266939 29.13475883 C55.42663582 29.13319714 49.1606101 29.13299935 42.89457703 29.13629532 C37.00463261 29.13917687 31.11470976 29.13719307 25.22476768 29.13140106 C23.05874861 29.130075 20.89272773 29.130465 18.72670937 29.13266373 C15.77859688 29.1353812 12.83055428 29.13198668 9.88244629 29.12698364 C9.01776781 29.12921436 8.15308932 29.13144509 7.26220846 29.13374341 C3.92170563 29.12268701 1.19146492 29.06382164 -2 28 C-6.54583735 22.76539941 -8.43697061 19.53269855 -8.3359375 12.65234375 C-7.80881707 8.4905441 -6.1266573 5.58873419 -4 2 C-3.01 2 -2.02 2 -1 2 C-0.67 1.34 -0.34 0.68 0 0 Z " fill="#211F20" transform="translate(216,538)"/>
<path d="M0 0 C0.92615069 -0.0060911 1.85230138 -0.01218221 2.80651724 -0.01845789 C5.91724736 -0.03513835 9.0275704 -0.03030483 12.13833618 -0.0255127 C14.36562019 -0.03285011 16.59290039 -0.04143538 18.82017517 -0.05117798 C24.8759667 -0.07343772 30.93162234 -0.0763224 36.98744917 -0.07443047 C42.03976901 -0.07431096 47.09205984 -0.08286683 52.14437163 -0.09120798 C64.74432346 -0.11155968 77.34419072 -0.11258626 89.94414671 -0.10540086 C100.88453136 -0.09982611 111.82468179 -0.12064748 122.76501171 -0.15376133 C133.99976617 -0.18750224 145.23441163 -0.20219154 156.46922839 -0.1980443 C162.77623239 -0.19597417 169.08300318 -0.20149698 175.38996506 -0.22593689 C181.32112494 -0.24816025 187.25179671 -0.2463625 193.1829586 -0.22600937 C195.36062306 -0.22259148 197.5383201 -0.22772172 199.71594048 -0.24199295 C202.68758298 -0.26012495 205.65755895 -0.24748075 208.62915039 -0.22705078 C209.49219013 -0.23956863 210.35522986 -0.25208648 211.24442232 -0.26498365 C217.20162662 -0.17709824 219.7755997 1.11255335 223.94155884 5.39440918 C226.80928826 8.93127547 227.41624877 11.82541956 227.23452759 16.39440918 C226.77928375 19.50220714 225.65624246 21.79063035 223.94155884 24.39440918 C222.95155884 24.72440918 221.96155884 25.05440918 220.94155884 25.39440918 C220.94155884 26.05440918 220.94155884 26.71440918 220.94155884 27.39440918 C216.25048428 29.78474914 211.99180924 29.67254163 206.85656738 29.64164734 C205.48126065 29.64526896 205.48126065 29.64526896 204.07816994 29.64896375 C201.005054 29.65460077 197.93214592 29.64593756 194.85903931 29.6373291 C192.65630029 29.63840197 190.45356155 29.64034072 188.25082397 29.64308167 C182.26761053 29.64793184 176.28447158 29.64027251 170.30126715 29.63012862 C164.04595873 29.62135253 157.79065268 29.62310547 151.53533936 29.62348938 C141.03222532 29.62255264 130.52913546 29.61392063 120.02603149 29.60021973 C109.21613034 29.5861259 98.40625447 29.57904926 87.59634399 29.57971191 C86.93026681 29.57975187 86.26418963 29.57979183 85.57792829 29.57983299 C84.5805485 29.57989353 84.5805485 29.57989353 83.56301963 29.57995528 C71.88209799 29.58060989 60.20118607 29.5754654 48.52026749 29.56716347 C43.54344731 29.56362715 38.56663079 29.56179972 33.58980942 29.56126976 C27.73430722 29.56026745 21.87883171 29.55418002 16.02333832 29.54410362 C13.8702193 29.5411755 11.71709722 29.53995388 9.56397629 29.54053116 C6.63348321 29.54101966 3.7030656 29.53538779 0.77258301 29.52812195 C-0.08684029 29.52967055 -0.94626358 29.53121915 -1.83173001 29.53281468 C-5.16060872 29.51910912 -7.87811672 29.45451733 -11.05844116 28.39440918 C-16.17213548 22.66087313 -17.52051677 18.62789359 -17.37875366 11.02331543 C-16.94170182 7.43629234 -15.73670849 5.77509125 -13.05844116 3.39440918 C-12.53886526 2.86629387 -12.01928936 2.33817856 -11.48396873 1.79405975 C-7.76422145 -0.35242024 -4.22305078 -0.02593668 0 0 Z " fill="#211F20" transform="translate(225.05844116210938,603.6055908203125)"/>
<path d="M0 0 C0.79212891 0.00652588 1.58425781 0.01305176 2.40039062 0.01977539 C8.98963975 0.17094849 14.18010338 1.40255169 20.125 4.375 C20.125 5.035 20.125 5.695 20.125 6.375 C20.85589844 6.4575 21.58679688 6.54 22.33984375 6.625 C28.15717628 8.19151872 32.50339913 13.71504435 35.55859375 18.7265625 C40.98264586 30.28992633 40.53375794 44.5065516 36.41796875 56.421875 C34.13239707 61.80705759 30.52667026 65.03352951 26.05078125 68.7109375 C24.03271657 70.23925713 24.03271657 70.23925713 23.125 72.375 C22.135 72.375 21.145 72.375 20.125 72.375 C19.795 73.035 19.465 73.695 19.125 74.375 C17.3828125 75.19140625 17.3828125 75.19140625 15.25 75.9375 C14.55132813 76.18628906 13.85265625 76.43507813 13.1328125 76.69140625 C8.73712092 78.18799385 4.92902188 78.59151661 0.3125 78.625 C-0.38681641 78.645625 -1.08613281 78.66625 -1.80664062 78.6875 C-6.64315707 78.7236947 -9.69952596 77.72635548 -13.875 75.375 C-14.9475 75.21 -16.02 75.045 -17.125 74.875 C-18.0325 74.71 -18.94 74.545 -19.875 74.375 C-20.535 73.385 -21.195 72.395 -21.875 71.375 C-22.865 71.045 -23.855 70.715 -24.875 70.375 C-29.77012602 66.25278862 -33.91867413 60.48285429 -35.390625 54.16015625 C-35.55046875 53.57105469 -35.7103125 52.98195313 -35.875 52.375 C-36.535 52.045 -37.195 51.715 -37.875 51.375 C-37.90392857 47.41668191 -37.92177427 43.45839083 -37.9375 39.5 C-37.94587891 38.37207031 -37.95425781 37.24414062 -37.96289062 36.08203125 C-37.96611328 35.00566406 -37.96933594 33.92929687 -37.97265625 32.8203125 C-37.97789307 31.82531738 -37.98312988 30.83032227 -37.98852539 29.80517578 C-37.875 27.375 -37.875 27.375 -36.875 25.375 C-36.215 25.375 -35.555 25.375 -34.875 25.375 C-34.6584375 24.26125 -34.6584375 24.26125 -34.4375 23.125 C-33.97312508 20.85472261 -33.45636431 18.61740521 -32.875 16.375 C-32.215 16.375 -31.555 16.375 -30.875 16.375 C-30.648125 15.818125 -30.42125 15.26125 -30.1875 14.6875 C-27.91899551 10.69061114 -25.25600054 7.83533351 -20.875 6.375 C-20.545 5.715 -20.215 5.055 -19.875 4.375 C-18.54788808 4.01770064 -17.21237094 3.69174575 -15.875 3.375 C-14.8540625 2.87613281 -13.833125 2.37726562 -12.78125 1.86328125 C-8.51269489 0.01320398 -4.6012774 -0.08202699 0 0 Z M-1.875 28.375 C-1.875 29.035 -1.875 29.695 -1.875 30.375 C-2.4525 30.41625 -3.03 30.4575 -3.625 30.5 C-7.13395955 31.86459538 -8.17987247 34.11030994 -9.875 37.375 C-9.77320532 41.5485817 -7.84377542 45.40622458 -4.875 48.375 C0.10344661 49.02035419 3.92406084 49.11958228 8.25 46.4375 C10.75660287 42.34338198 11.08711106 39.06310478 10.125 34.375 C8.49775054 31.74361794 8.49775054 31.74361794 6.125 30.375 C5.135 30.375 4.145 30.375 3.125 30.375 C2.795 29.715 2.465 29.055 2.125 28.375 C0.805 28.375 -0.515 28.375 -1.875 28.375 Z " fill="#211F20" transform="translate(541.875,555.625)"/>
<path d="M0 0 C1.24040039 0.01353516 1.24040039 0.01353516 2.50585938 0.02734375 C4.52486708 0.05068488 6.54372356 0.08654712 8.5625 0.125 C8.5625 0.785 8.5625 1.445 8.5625 2.125 C9.9546875 2.063125 9.9546875 2.063125 11.375 2 C14.5625 2.125 14.5625 2.125 17.5625 4.125 C18.2225 4.125 18.8825 4.125 19.5625 4.125 C20.036875 4.764375 20.51125 5.40375 21 6.0625 C22.4716365 8.40872963 22.4716365 8.40872963 25.5625 9.125 C25.5625 9.785 25.5625 10.445 25.5625 11.125 C26.16578125 11.36476563 26.7690625 11.60453125 27.390625 11.8515625 C30.03449646 13.40174613 30.86944143 14.81876154 32.3125 17.5 C32.74046875 18.27085937 33.1684375 19.04171875 33.609375 19.8359375 C34.5625 22.125 34.5625 22.125 34.5625 26.125 C35.2225 26.125 35.8825 26.125 36.5625 26.125 C38.9742591 34.26468697 39.94743253 42.10805454 36.5625 50.125 C36.0675 51.32125 35.5725 52.5175 35.0625 53.75 C34.5675 54.86375 34.0725 55.9775 33.5625 57.125 C33.27375 57.82625 32.985 58.5275 32.6875 59.25 C31.05891582 61.96430696 28.82155831 63.91972879 26.5625 66.125 C25.94375 66.970625 25.325 67.81625 24.6875 68.6875 C20.60955491 73.3651429 15.42462315 75.35273021 9.5625 77.125 C8.5725 77.62 8.5725 77.62 7.5625 78.125 C-2.4891165 78.80401285 -11.1877075 78.6000616 -20.4375 74.125 C-20.4375 73.465 -20.4375 72.805 -20.4375 72.125 C-21.4275 72.125 -22.4175 72.125 -23.4375 72.125 C-24.79433751 70.4774116 -26.12206721 68.80583079 -27.4375 67.125 C-28.59133184 66.1922294 -29.75904803 65.27646539 -30.9375 64.375 C-36.61388202 59.64874201 -38.51725365 53.26575773 -39.4375 46.125 C-40.16496799 27.48898183 -40.16496799 27.48898183 -35.4375 19.125 C-34.921875 18.17625 -34.40625 17.2275 -33.875 16.25 C-33.400625 15.54875 -32.92625 14.8475 -32.4375 14.125 C-31.7775 14.125 -31.1175 14.125 -30.4375 14.125 C-30.210625 13.5475 -29.98375 12.97 -29.75 12.375 C-28.07768419 9.5081729 -26.16530269 7.98788964 -23.4375 6.125 C-22.4475 6.125 -21.4575 6.125 -20.4375 6.125 C-20.1075 5.465 -19.7775 4.805 -19.4375 4.125 C-13.22605546 -0.01596303 -7.23433708 -0.15156548 0 0 Z M-2.4375 28.125 C-2.4375 28.785 -2.4375 29.445 -2.4375 30.125 C-3.5821875 30.2796875 -3.5821875 30.2796875 -4.75 30.4375 C-7.72084595 31.19748385 -8.57290721 31.75819597 -10.4375 34.125 C-11.12728598 37.19454761 -10.99981106 40.03769603 -10.4375 43.125 C-8.6241503 46.3551177 -8.6241503 46.3551177 -5.4375 48.125 C-1.4725958 48.94835712 1.66537773 48.45654519 5.4375 47.0625 C8.46357492 44.30343169 9.01657303 42.15121139 9.5625 38.125 C8.29079843 34.75499083 7.10112163 32.66362163 4.5625 30.125 C3.5725 30.125 2.5825 30.125 1.5625 30.125 C1.2325 29.465 0.9025 28.805 0.5625 28.125 C-0.4275 28.125 -1.4175 28.125 -2.4375 28.125 Z " fill="#211F20" transform="translate(628.4375,555.875)"/>
</svg>
