<?xml version="1.0" encoding="UTF-8"?>
<svg version="1.1" xmlns="http://www.w3.org/2000/svg" width="850" height="850">
<path d="M0 0 C0.85578635 -0.00320648 1.7115727 -0.00641296 2.59329197 -0.0097166 C5.4564364 -0.01800763 8.31937116 -0.01209543 11.18251896 -0.00622082 C13.25778515 -0.0092419 15.33305023 -0.01313116 17.40831333 -0.01781338 C23.10787381 -0.02810754 28.80737148 -0.02590794 34.50693715 -0.02163279 C40.65495397 -0.01916817 46.80295557 -0.02817641 52.95096684 -0.03567028 C64.99399039 -0.04842633 77.0369864 -0.05021569 89.08001357 -0.04787002 C98.86712498 -0.04603695 108.65422985 -0.04779725 118.44134045 -0.05209446 C119.84772861 -0.05269686 121.25411677 -0.05329806 122.66050493 -0.05389806 C124.77982099 -0.05480532 126.89913705 -0.05571399 129.01845311 -0.05663041 C148.72067894 -0.06505906 168.42290231 -0.06939621 188.1251297 -0.06522369 C189.23906513 -0.06498913 189.23906513 -0.06498913 190.3755043 -0.06474983 C194.13937032 -0.06394405 197.90323632 -0.06309828 201.66710233 -0.06223653 C202.41461149 -0.06206544 203.16212064 -0.06189435 203.93228159 -0.06171808 C205.44392587 -0.06137142 206.95557015 -0.06102289 208.46721443 -0.06067249 C231.99180199 -0.05531452 255.51635208 -0.06324823 279.04093266 -0.08170605 C305.47402983 -0.10242168 331.90710379 -0.11314967 358.34020954 -0.10913056 C361.15856747 -0.10873522 363.97692539 -0.10837367 366.79528332 -0.10803318 C367.83620214 -0.10789708 367.83620214 -0.10789708 368.89814963 -0.10775824 C379.37365024 -0.10659229 389.8491274 -0.11324027 400.32462215 -0.1238451 C412.23750346 -0.1358928 424.15033133 -0.13718252 436.06321793 -0.12505493 C442.14224926 -0.11915472 448.22117959 -0.11809846 454.30020428 -0.13005733 C459.86464258 -0.1408768 465.42889506 -0.13785967 470.99332453 -0.12379565 C473.00669106 -0.12113788 475.02007197 -0.12354898 477.03342443 -0.13153151 C479.77070659 -0.14163131 482.50734207 -0.13322084 485.24459839 -0.12025452 C486.02565424 -0.12756386 486.8067101 -0.13487321 487.61143431 -0.14240405 C496.44508481 -0.05571094 505.53852391 2.84355289 512.03287601 9.00838184 C519.38497874 16.98486696 522.16599071 25.87288526 525.06021976 36.12947559 C527.36047938 44.0970648 529.69027766 52.03150209 532.37271976 59.87947559 C534.42406433 65.902299 536.31128668 71.94650508 538.07169437 78.0603838 C540.63183728 86.89890011 543.40424879 95.67312066 546.15128422 104.45491505 C546.5285767 105.66365284 546.90586918 106.87239063 547.29459476 108.11775684 C547.634585 109.2035503 547.97457523 110.28934376 548.3248682 111.40804005 C549.01228573 113.6823309 549.61061751 115.9508929 550.18521976 118.25447559 C551.78251633 122.02649519 553.49835962 125.46029355 556.18521976 128.56697559 C562.69798034 137.31849762 562.75928788 147.37158999 562.68642521 157.82909107 C562.69032401 159.38722533 562.69596907 160.94535603 562.70319611 162.50347841 C562.71788538 166.75977155 562.70780868 171.01569226 562.69345939 175.27197313 C562.68231635 179.87187666 562.69430312 184.47172936 562.70330143 189.07162952 C562.71721258 198.07225958 562.70969373 207.07274905 562.69462585 216.07337238 C562.67774154 226.5591721 562.68097901 237.04493703 562.68471993 247.53074615 C562.69059447 266.24109319 562.67644208 284.95137286 562.6517725 303.66170216 C562.62784606 321.81049085 562.62077145 339.95918958 562.63126469 358.10799122 C562.64267707 377.88188442 562.64460051 397.65573603 562.63016659 417.42962873 C562.62864078 419.53851501 562.62712042 421.64740129 562.62560558 423.75628757 C562.62484777 424.79384587 562.62408995 425.83140417 562.62330918 426.90040363 C562.61856937 434.20702872 562.62041559 441.51363523 562.62467098 448.82026005 C562.62960038 457.72474807 562.62360083 466.62915109 562.60377669 475.53361966 C562.59391367 480.07549953 562.58878894 484.61725002 562.5966692 489.15913677 C562.60373897 493.31901788 562.59689115 497.47863821 562.57906557 501.638485 C562.57502953 503.14099322 562.57600675 504.6435253 562.58258443 506.14602454 C562.63094816 518.23030499 561.12961116 527.76966843 553.18521976 537.25447559 C544.88148385 545.3236427 536.33435737 547.71951184 524.96676731 547.63199902 C523.47368706 547.6385395 523.47368706 547.6385395 521.95044357 547.64521211 C518.61836592 547.65615168 515.2867035 547.64575211 511.95462894 547.63542652 C509.54026531 547.63888358 507.12590326 547.64364847 504.71154451 547.64960825 C499.46396127 547.65952455 494.21646222 547.66012458 488.96887875 547.65246677 C481.16549138 547.64111027 473.36218203 547.64692523 465.55879517 547.6560917 C451.62125703 547.67188453 437.68376016 547.67052149 423.7462181 547.66185496 C411.54924007 547.65430797 399.35227717 547.65233834 387.15529728 547.65592289 C385.94166515 547.65626662 385.94166515 547.65626662 384.7035152 547.6566173 C381.41915401 547.65755132 378.13479283 547.65850652 374.85043166 547.65949659 C344.04128348 547.66867337 313.23216157 547.66035355 282.42301743 547.6442059 C255.05158252 547.62996911 227.68018947 547.63124299 200.30875492 547.64558887 C169.5559174 547.66165314 138.80310311 547.66802256 108.05026197 547.65875208 C104.77188874 547.65778993 101.4935155 547.65685141 98.21514225 547.65592289 C97.40792453 547.65568566 96.60070681 547.65544843 95.76902794 547.655204 C83.57978486 547.65179174 71.39055855 547.65578213 59.20131779 547.66336155 C45.34145581 547.67193682 31.48164155 547.66980018 17.62178552 547.65351932 C9.86512342 547.64470828 2.10856465 547.64413853 -5.64809478 547.65545784 C-11.43780863 547.66297493 -17.2274155 547.65482585 -23.01711267 547.64053412 C-25.36086281 547.63717817 -27.70462675 547.63889859 -30.04836804 547.64616148 C-33.23121898 547.65526938 -36.41350633 547.64594146 -39.59632778 547.63199902 C-40.50865411 547.63902251 -41.42098045 547.64604601 -42.36095303 547.65328234 C-52.62610501 547.56326505 -60.4330741 544.42105004 -67.81478024 537.25447559 C-76.94086043 526.73775461 -77.11266574 516.40914604 -77.07547665 503.00302601 C-77.07850029 501.45558343 -77.08239083 499.90814235 -77.08706921 498.36070389 C-77.09733042 494.12472806 -77.09517219 489.88883705 -77.09088862 485.65285432 C-77.08841801 481.07812713 -77.09743967 476.50342019 -77.10492611 471.92870045 C-77.11766543 462.97295551 -77.11946779 454.01724057 -77.11712585 445.0614881 C-77.11534182 437.78155969 -77.11709415 430.50164038 -77.12135029 423.22171307 C-77.12194548 422.18505924 -77.12254067 421.14840541 -77.12315389 420.08033783 C-77.12436566 417.97429395 -77.12557979 415.86825007 -77.12679627 413.76220619 C-77.13766867 394.01896457 -77.13551062 374.27574004 -77.12941142 354.53249746 C-77.12424147 336.4755621 -77.13550031 318.41868067 -77.15450964 300.36175597 C-77.17388642 281.81339411 -77.18214439 263.26505776 -77.17838639 244.71668571 C-77.17647424 234.30615904 -77.17896336 223.89567828 -77.19310093 213.48515987 C-77.20501358 204.62348182 -77.20642083 195.76187796 -77.19431076 186.90019888 C-77.18842154 182.38047953 -77.18732391 177.86089589 -77.19931316 173.34118557 C-77.21016975 169.20030482 -77.20707131 165.05967313 -77.19305148 160.91880404 C-77.19040396 159.42428873 -77.19277283 157.92975391 -77.20078734 156.43525774 C-77.30002411 136.54272978 -77.30002411 136.54272978 -70.56478024 128.94197559 C-64.75950365 121.15261714 -62.56491506 111.44305898 -59.81478024 102.25447559 C-59.60144039 101.54436329 -59.38810055 100.83425098 -59.16829586 100.10262012 C-58.38738755 97.48683673 -57.61687481 94.86833881 -56.86019039 92.24544239 C-53.94236007 82.14410355 -50.75901126 72.12256736 -47.62757015 62.08594227 C-46.40171517 58.15251264 -45.18691702 54.21585714 -43.98131466 50.27617359 C-43.37857682 48.30663291 -42.77415107 46.33761756 -42.16927242 44.36873341 C-41.41276671 41.90423405 -40.65932002 39.43879279 -39.9095068 36.97224903 C-35.59549244 22.95670935 -31.84568548 12.40841826 -19.57259274 3.69978809 C-13.28702665 0.40565289 -6.94713937 -0.03898788 0 0 Z M-13.81478024 27.25447559 C-15.16565086 29.61140976 -15.16565086 29.61140976 -15.83431149 32.19197559 C-16.12942623 33.15393848 -16.42454098 34.11590137 -16.72859859 35.10701466 C-17.02516354 36.14567677 -17.32172848 37.18433887 -17.62728024 38.25447559 C-17.9592944 39.35243458 -18.29130856 40.45039356 -18.63338375 41.58162403 C-19.34324232 43.93052043 -20.04508309 46.2818523 -20.73958492 48.63533497 C-22.1571807 53.40700614 -23.64209236 58.15646145 -25.12850094 62.90706348 C-26.25837697 66.52399229 -27.37528087 70.14474135 -28.49056149 73.76619434 C-29.89134467 78.30237822 -31.31298794 82.83082226 -32.763587 87.35124683 C-33.6215958 90.02689451 -34.47221586 92.70486636 -35.32237911 95.38301563 C-35.92786028 97.27963728 -36.54394671 99.17286283 -37.16023922 101.06599903 C-37.70466671 102.78544727 -37.70466671 102.78544727 -38.26009274 104.53963184 C-38.74760006 106.0537566 -38.74760006 106.0537566 -39.24495602 107.59846973 C-40.06873555 110.48714784 -40.06873555 110.48714784 -38.81478024 114.25447559 C146.97521976 114.25447559 332.76521976 114.25447559 524.18521976 114.25447559 C525.610536 109.9785269 524.05521768 106.72381083 522.75553226 102.57478809 C522.35681919 101.26613789 522.35681919 101.26613789 521.95005131 99.9310503 C521.07846692 97.07788706 520.1945177 94.22872147 519.31021976 91.37947559 C518.70940695 89.42217545 518.10931217 87.46465475 517.5099268 85.506917 C516.01988212 80.6477082 514.51964976 75.7917205 513.01554203 70.93684864 C512.02694349 67.74316085 511.04331677 64.54796009 510.06037235 61.35252857 C507.79159275 53.97934604 505.51792982 46.60772502 503.18521976 39.25447559 C502.90968266 38.38331104 502.63414555 37.51214649 502.35025883 36.61458302 C502.09212406 35.81641163 501.8339893 35.01824024 501.56803226 34.19588184 C501.34776371 33.51211475 501.12749516 32.82834766 500.9005518 32.12386036 C499.2261556 27.74814306 497.04607683 24.82838031 493.18521976 22.25447559 C490.42617372 22.05850318 487.7680883 21.98112331 485.00853348 21.99441338 C484.16099431 21.9906077 483.31345514 21.98680203 482.44023296 21.98288104 C479.57507247 21.97250206 476.71010777 21.97648299 473.84493351 21.98032093 C471.78009354 21.97587194 469.71525527 21.97055903 467.65041953 21.96445221 C461.95657973 21.95022105 456.26279437 21.94860988 450.56893933 21.94904912 C444.4358841 21.94740541 438.3028516 21.93434731 432.16980839 21.92285633 C419.44923747 21.90116425 406.7286895 21.89259649 394.0081044 21.88782133 C393.31644013 21.88756015 392.62477585 21.88729898 391.91215205 21.88702989 C391.21912594 21.88676961 390.52609982 21.88650934 389.81207291 21.88624118 C382.13839124 21.88316111 374.46471303 21.87665716 366.79103374 21.8700285 C343.62163524 21.85037847 320.45224048 21.83397525 297.2828331 21.83115196 C296.54146947 21.8310579 295.80010584 21.83096384 295.03627664 21.83086693 C292.03174238 21.83048844 289.02720812 21.83012444 286.02267385 21.82976395 C283.761182 21.82949223 281.49969014 21.82921555 279.23819828 21.82893848 C278.11727382 21.82880645 278.11727382 21.82880645 276.97370441 21.82867175 C253.49021744 21.82576589 230.00681275 21.80366763 206.52335453 21.76741505 C180.15331214 21.72670755 153.78332581 21.70299354 127.41325027 21.70269245 C124.6024512 21.70259562 121.79165214 21.7024289 118.98085308 21.70221233 C118.28873873 21.70216822 117.59662438 21.70212411 116.88353686 21.70207865 C105.73522136 21.7009578 94.58698815 21.68353443 83.43869916 21.66039301 C72.23797866 21.63757376 61.03736817 21.63373499 49.83662304 21.64794231 C43.76602933 21.65513483 37.69572133 21.65415299 31.62515926 21.63153172 C26.07167485 21.61103497 20.51869747 21.61345489 14.96521912 21.63440656 C12.9524256 21.63791932 10.93959619 21.63291658 8.9268498 21.61870212 C6.19708869 21.60066111 3.46913427 21.61324379 0.73942947 21.63364983 C-0.04772797 21.62108645 -0.83488541 21.60852308 -1.64589611 21.595579 C-7.34200227 21.68714694 -9.83374188 23.16950575 -13.81478024 27.25447559 Z M-53.81478024 142.25447559 C-55.12346805 144.87185122 -54.97566529 146.84295988 -55.0201025 149.77595997 C-55.04004772 150.95914814 -55.05999294 152.14233631 -55.08054256 153.36137867 C-55.09725506 154.67703815 -55.11396755 155.99269764 -55.13118649 157.34822559 C-55.15193475 158.75994183 -55.17293297 160.17165441 -55.19415951 161.58336353 C-55.25087689 165.4846594 -55.29990218 169.38601968 -55.3470068 173.28744221 C-55.3772314 175.7504961 -55.40958909 178.21351389 -55.44246578 180.6765337 C-55.74171072 203.39264343 -55.85013267 226.10676852 -55.84212399 248.82478809 C-55.84173185 250.03061794 -55.84133972 251.23644779 -55.84093571 252.47881794 C-55.83562334 264.55546006 -55.81984786 276.63204075 -55.78701019 288.7086401 C-55.77529753 293.24724938 -55.76711759 297.78586147 -55.759408 302.3244791 C-55.75240819 305.48574948 -55.73978287 308.64696561 -55.72699642 311.80821705 C-55.72341295 313.70648109 -55.7201054 315.60474567 -55.71712399 317.50301075 C-55.7119605 318.36775768 -55.70679701 319.23250462 -55.70147705 320.123456 C-55.70092537 326.02676587 -55.70092537 326.02676587 -56.81478024 328.25447559 C-56.15478024 328.25447559 -55.49478024 328.25447559 -54.81478024 328.25447559 C-54.81846741 329.22300024 -54.82215458 330.19152489 -54.82595348 331.18939877 C-54.91473082 354.74996993 -54.98047332 378.31051942 -55.02202892 401.8712225 C-55.04265878 413.2649845 -55.07078758 424.65863605 -55.11653805 436.05232716 C-55.15639272 445.98245755 -55.18220997 455.91250795 -55.19113421 465.8427161 C-55.19635125 471.10126673 -55.20862219 476.35958851 -55.23770046 481.61806583 C-55.2648478 486.56744805 -55.27322655 491.51650709 -55.26721096 496.46595669 C-55.2683115 498.28241895 -55.27626942 500.098892 -55.29160213 501.91528988 C-55.31151968 504.3965157 -55.30671346 506.87652327 -55.2957983 509.3577776 C-55.31327535 510.43464586 -55.31327535 510.43464586 -55.33110547 511.53326905 C-55.27145305 516.55392765 -53.97760978 519.39672661 -50.81478024 523.25447559 C-45.34562162 526.90058133 -39.66391987 526.39762441 -33.30157566 526.38311005 C-31.84997553 526.3857396 -31.84997553 526.3857396 -30.36905015 526.38842228 C-27.10710042 526.39309611 -23.84519499 526.39061322 -20.58324337 526.38818836 C-18.22865556 526.39005564 -15.87406807 526.392356 -13.51948106 526.39505368 C-7.71470344 526.40054449 -1.90993817 526.40135222 3.89484163 526.40019283 C10.8468291 526.39905744 17.79880968 526.40369523 24.75079517 526.4084722 C39.16516631 526.41814995 53.5795339 526.42095659 67.99390791 526.42152926 C79.1235933 526.42198854 90.25327729 526.42404551 101.38296223 526.42722988 C104.58490391 526.4281274 107.7868456 526.42901722 110.98878729 526.42990476 C111.78476381 526.43012581 112.58074032 526.43034686 113.40083733 526.4305746 C135.79411042 526.43672992 158.18738303 526.44067505 180.58065701 526.44023132 C181.8474169 526.44020796 181.8474169 526.44020796 183.13976791 526.44018411 C187.42022768 526.44010101 191.70068745 526.44000196 195.98114721 526.43989941 C196.83128568 526.43987946 197.68142415 526.43985952 198.55732439 526.43983897 C200.27651162 526.43979853 201.99569885 526.43975673 203.71488609 526.43971358 C230.46802358 526.4391007 257.2211484 526.44660923 283.97428226 526.46028614 C314.02023442 526.47564004 344.06617825 526.48425279 374.11213458 526.48332292 C377.31470497 526.48324829 380.51727537 526.48319958 383.71984577 526.4831686 C384.90270746 526.48315112 384.90270746 526.48315112 386.10946535 526.48313329 C398.81026325 526.48310249 411.51105017 526.48949356 424.2118448 526.49810087 C436.97164378 526.50656945 449.73142666 526.50757353 462.4912269 526.50099155 C469.40640217 526.49761693 476.32154106 526.49744284 483.23671246 526.5063448 C489.56288287 526.51416835 495.8889815 526.51282103 502.21515007 526.50406066 C504.50784248 526.5025165 506.80054014 526.50437603 509.09322636 526.50992074 C512.20234963 526.51694394 515.31121848 526.51171611 518.42033291 526.50336456 C519.31659582 526.50833274 520.21285874 526.51330092 521.13628113 526.51841965 C526.19694046 526.48955503 530.42744498 526.0408256 535.18521976 524.25447559 C539.30052944 519.92257067 540.30850139 517.29739656 540.34343815 511.4295702 C540.35812232 509.56223886 540.35812232 509.56223886 540.37310314 507.65718365 C540.37901267 506.26603072 540.38482211 504.87487736 540.39054203 503.48372364 C540.40012218 502.01955932 540.41012691 500.55539773 540.42052364 499.09123898 C540.44772492 495.07751019 540.46867802 491.06376956 540.48851752 487.04999852 C540.51058129 482.78518495 540.53811725 478.52040624 540.5648737 474.25562 C540.61558246 466.01074444 540.66055702 457.76584722 540.70312244 449.52092594 C540.73757017 442.84870615 540.77371471 436.1764976 540.81089115 429.50429249 C541.27126965 347.98031192 541.27126965 347.98031192 541.23284721 266.45543289 C541.22937625 265.49515214 541.22590528 264.53487139 541.22232914 263.54549122 C541.21881034 262.57338483 541.21529154 261.60127844 541.21166611 260.59971428 C541.18511824 252.66886713 541.18031218 244.73809698 541.17936039 236.80720997 C541.17750979 225.49469511 541.15223859 214.18247545 541.10172939 202.87007046 C541.07521512 196.81726191 541.05804191 190.76480418 541.06565189 184.71193409 C541.07215551 179.11255511 541.0503928 173.51399829 541.00679111 167.91479206 C540.99565445 165.85599944 540.99475183 163.79712257 541.0047617 161.73832417 C541.01687567 158.91414823 540.99207422 156.09258091 540.95816898 153.26863575 C540.9765013 152.04319711 540.9765013 152.04319711 540.99520397 150.79300213 C540.87590676 145.3252622 539.41976421 142.53455784 535.66585827 138.56647778 C531.9680077 135.2897914 527.58135737 136.11005202 522.91621971 136.11466789 C521.93844083 136.11171647 520.96066196 136.10876505 519.95325342 136.10572419 C516.63907276 136.09698285 513.32492679 136.09544799 510.01073551 136.09384632 C507.62573799 136.08911879 505.24074127 136.08396836 502.85574549 136.07842869 C496.96411239 136.06594605 491.07248369 136.05822388 485.18084115 136.0525299 C478.12730468 136.04548085 471.0737814 136.03272253 464.02025334 136.01998071 C446.15922137 135.98810221 428.29818067 135.9682905 410.43712977 135.95069519 C405.60091329 135.94592889 400.76469707 135.94091997 395.92848086 135.93588996 C365.92131358 135.90484616 335.9141441 135.87822197 305.90696526 135.86147118 C298.95243482 135.85753379 291.99790442 135.85352198 285.04337406 135.8494463 C283.74732481 135.84869379 283.74732481 135.84869379 282.42509275 135.84792609 C254.40479624 135.83150434 226.384587 135.79304345 198.36433343 135.74215919 C169.56963573 135.6899637 140.77498452 135.65716042 111.98023855 135.64989364 C107.9151141 135.64886501 103.84998973 135.64762868 99.78486538 135.64627361 C98.98478621 135.64601558 98.18470705 135.64575754 97.36038306 135.64549168 C84.47247596 135.64079247 71.58468368 135.61584006 58.69681959 135.58352218 C45.74731278 135.55152269 32.79793555 135.5415012 19.84839389 135.55395413 C12.1511994 135.56070195 4.45444932 135.5506942 -3.2426759 135.51682713 C-8.98484875 135.49340198 -14.72663651 135.50119505 -20.4688063 135.52129494 C-22.79591725 135.52453528 -25.1230687 135.51754916 -27.45011189 135.49949772 C-30.60636125 135.47649147 -33.7603755 135.49025308 -36.91657448 135.51339531 C-37.8265297 135.49791908 -38.73648492 135.48244284 -39.67401454 135.46649763 C-46.06807929 135.57044672 -49.61655899 137.39801324 -53.81478024 142.25447559 Z " fill="#211F20" transform="translate(188.81478023529053,128.7455244064331)"/>
<path d="M0 0 C2.14550269 0.01611324 4.28912304 0.00001681 6.43457031 -0.01904297 C40.41383766 -0.07110938 72.01391652 14.37613819 96.93847656 37.02001953 C98.14550781 38.39111328 98.14550781 38.39111328 98.14550781 40.39111328 C98.80550781 40.39111328 99.46550781 40.39111328 100.14550781 40.39111328 C100.14550781 41.05111328 100.14550781 41.71111328 100.14550781 42.39111328 C100.80550781 42.39111328 101.46550781 42.39111328 102.14550781 42.39111328 C103.96400024 44.45689655 105.65878325 46.52501629 107.33300781 48.70361328 C107.82841064 49.34443848 108.32381348 49.98526367 108.83422852 50.64550781 C118.93095848 63.85233981 133.43331532 84.00571197 132.14550781 101.39111328 C132.80550781 101.39111328 133.46550781 101.39111328 134.14550781 101.39111328 C136.20440261 106.55085368 136.52806895 111.23083858 136.70800781 116.70361328 C136.42346196 121.96240839 136.42346196 121.96240839 138.14550781 126.39111328 C141.03170912 161.1261087 130.05441871 195.4723149 108.14550781 222.39111328 C105.23229661 225.8114022 102.22929762 229.12429279 99.14550781 232.39111328 C98.19417969 233.42171875 98.19417969 233.42171875 97.22363281 234.47314453 C74.44696407 258.33217564 40.63632049 271.79130733 7.95410156 272.55908203 C-27.44410686 272.85953735 -57.18442609 263.40055271 -85.21972656 241.62451172 C-86.72346982 240.48996708 -88.28713484 239.43601818 -89.85449219 238.39111328 C-89.85449219 237.73111328 -89.85449219 237.07111328 -89.85449219 236.39111328 C-90.51449219 236.39111328 -91.17449219 236.39111328 -91.85449219 236.39111328 C-91.85449219 235.73111328 -91.85449219 235.07111328 -91.85449219 234.39111328 C-92.51449219 234.39111328 -93.17449219 234.39111328 -93.85449219 234.39111328 C-93.85449219 233.73111328 -93.85449219 233.07111328 -93.85449219 232.39111328 C-94.84449219 232.06111328 -95.83449219 231.73111328 -96.85449219 231.39111328 C-115.55703204 214.1768392 -131.20679841 184.20228047 -133.04951477 158.69116211 C-133.13339042 155.69497414 -133.1579059 152.70488058 -133.15527344 149.70751953 C-133.15955856 148.6119725 -133.16384369 147.51642548 -133.16825867 146.38768005 C-133.17397379 144.08243498 -133.17452315 141.77717187 -133.17016602 139.47192383 C-133.16700468 135.9674574 -133.19050652 132.4638351 -133.21582031 128.95947266 C-133.21809363 126.70882267 -133.21879665 124.45817043 -133.21777344 122.20751953 C-133.22698318 121.17180313 -133.23619293 120.13608673 -133.24568176 119.06898499 C-133.20334302 112.33117008 -132.05541026 106.73573859 -129.85449219 100.39111328 C-129.38795013 98.78931471 -128.92863387 97.1853777 -128.47949219 95.57861328 C-126.62277064 89.38302663 -124.25111022 83.39436822 -121.85449219 77.39111328 C-121.5515625 76.61638672 -121.24863281 75.84166016 -120.93652344 75.04345703 C-119.10529656 70.51651547 -119.10529656 70.51651547 -116.85449219 69.39111328 C-116.11711575 67.97854877 -115.43979716 66.53443306 -114.79199219 65.07861328 C-111.66495345 58.6092008 -107.58469588 52.79971554 -102.85449219 47.39111328 C-102.19449219 47.39111328 -101.53449219 47.39111328 -100.85449219 47.39111328 C-100.62761719 46.83939453 -100.40074219 46.28767578 -100.16699219 45.71923828 C-98.46723292 42.70418911 -96.30644403 40.57880959 -93.85449219 38.14111328 C-92.96761719 37.24908203 -92.08074219 36.35705078 -91.16699219 35.43798828 C-88.85449219 33.39111328 -88.85449219 33.39111328 -86.85449219 33.39111328 C-86.85449219 32.73111328 -86.85449219 32.07111328 -86.85449219 31.39111328 C-85.39355469 30.10205078 -85.39355469 30.10205078 -83.47949219 28.76611328 C-82.85300781 28.32009766 -82.22652344 27.87408203 -81.58105469 27.41455078 C-79.85449219 26.39111328 -79.85449219 26.39111328 -77.85449219 26.39111328 C-77.85449219 25.73111328 -77.85449219 25.07111328 -77.85449219 24.39111328 C-64.86535061 13.85385461 -47.01274419 7.01391445 -30.85449219 3.39111328 C-29.70513184 3.13217285 -28.55577148 2.87323242 -27.37158203 2.60644531 C-18.20194126 0.65498261 -9.36606712 -0.08320652 0 0 Z M-28.91699219 24.89111328 C-29.8309375 25.15883545 -30.74488281 25.42655762 -31.68652344 25.70239258 C-44.33738281 29.57738084 -55.2483902 35.56482876 -65.93261719 43.28564453 C-69.24947512 45.67573334 -72.670486 47.856282 -76.14746094 50.00439453 C-78.15288461 51.63351445 -78.72407576 53.08388274 -79.85449219 55.39111328 C-81.34027361 57.04822299 -82.8664344 58.66945127 -84.41699219 60.26611328 C-92.65304719 69.18057166 -98.76887926 79.38493606 -103.85449219 90.39111328 C-104.19996094 91.05626953 -104.54542969 91.72142578 -104.90136719 92.40673828 C-107.38231075 97.40679378 -108.7935056 102.55286151 -110.10449219 107.95361328 C-110.27988525 108.66203369 -110.45527832 109.3704541 -110.63598633 110.1003418 C-111.75323617 114.96316749 -112.09713612 119.40036869 -111.85449219 124.39111328 C-109.48244869 126.76315678 -103.66282164 125.67219885 -100.47949219 125.70361328 C-99.50753906 125.73261719 -98.53558594 125.76162109 -97.53417969 125.79150391 C-96.13425781 125.80407227 -96.13425781 125.80407227 -94.70605469 125.81689453 C-93.84834473 125.83147705 -92.99063477 125.84605957 -92.10693359 125.86108398 C-89.71155321 125.58198095 -89.71155321 125.58198095 -88.11547852 123.58569336 C-86.33439737 120.48595697 -85.67020345 117.22290137 -84.91699219 113.76611328 C-81.50256269 99.3487333 -75.4957641 86.71136771 -65.10449219 75.87939453 C-63.64011054 74.45979418 -63.64011054 74.45979418 -63.85449219 72.39111328 C-62.86449219 72.39111328 -61.87449219 72.39111328 -60.85449219 72.39111328 C-60.85449219 71.73111328 -60.85449219 71.07111328 -60.85449219 70.39111328 C-60.19449219 70.39111328 -59.53449219 70.39111328 -58.85449219 70.39111328 C-58.85449219 69.73111328 -58.85449219 69.07111328 -58.85449219 68.39111328 C-58.19449219 68.39111328 -57.53449219 68.39111328 -56.85449219 68.39111328 C-56.12230469 67.65248047 -55.39011719 66.91384766 -54.63574219 66.15283203 C-51.72768867 63.26520024 -48.85619014 61.31854067 -45.35449219 59.20361328 C-44.25105469 58.52943359 -43.14761719 57.85525391 -42.01074219 57.16064453 C-37.3106633 54.52557555 -34.18876097 53.39111328 -28.85449219 53.39111328 C-27.86449219 52.73111328 -26.87449219 52.07111328 -25.85449219 51.39111328 C-21.29082027 48.71969557 -17.08609495 47.72791192 -11.92871094 46.91845703 C-11.24421875 46.74443359 -10.55972656 46.57041016 -9.85449219 46.39111328 C-8.63591111 43.95395113 -8.72523643 42.35837271 -8.72167969 39.63720703 C-8.72039062 38.70070313 -8.71910156 37.76419922 -8.71777344 36.79931641 C-8.72164062 35.81898438 -8.72550781 34.83865234 -8.72949219 33.82861328 C-8.725625 32.84441406 -8.72175781 31.86021484 -8.71777344 30.84619141 C-8.7190625 29.91097656 -8.72035156 28.97576172 -8.72167969 28.01220703 C-8.72337158 26.71947876 -8.72337158 26.71947876 -8.72509766 25.40063477 C-8.63232303 23.39321296 -8.63232303 23.39321296 -9.85449219 22.39111328 C-16.68314527 22.01136693 -22.38507975 22.95895896 -28.91699219 24.89111328 Z M13.14550781 22.39111328 C12.04463588 29.40917185 12.0481769 36.29677096 12.14550781 43.39111328 C14.12550781 44.38111328 14.12550781 44.38111328 16.14550781 45.39111328 C16.14550781 46.05111328 16.14550781 46.71111328 16.14550781 47.39111328 C16.72816406 47.47748047 17.31082031 47.56384766 17.91113281 47.65283203 C24.12648616 48.71804196 29.54688287 50.6328755 35.31347656 53.16455078 C37.71721654 54.20561885 40.10740167 55.10510044 42.58300781 55.95361328 C46.07491112 57.3626269 48.3116018 58.96205098 51.14550781 61.39111328 C52.13550781 61.72111328 53.12550781 62.05111328 54.14550781 62.39111328 C55.85909425 64.00950047 57.51628041 65.68783009 59.14550781 67.39111328 C60.32717465 68.62588874 61.51492085 69.85486884 62.70800781 71.07861328 C63.26617188 71.65998047 63.82433594 72.24134766 64.39941406 72.84033203 C66.0597403 74.48074179 66.0597403 74.48074179 68.15722656 75.24658203 C71.03809348 76.90491996 71.8986283 79.09039424 73.39550781 82.01611328 C74.17667969 83.52044922 74.17667969 83.52044922 74.97363281 85.05517578 C75.55371094 86.21146484 75.55371094 86.21146484 76.14550781 87.39111328 C77.13550781 87.39111328 78.12550781 87.39111328 79.14550781 87.39111328 C79.39300781 88.05111328 79.64050781 88.71111328 79.89550781 89.39111328 C81.12754983 92.49684524 81.12754983 92.49684524 82.95800781 95.70361328 C85.0447591 99.81435642 86.45135466 104.06841001 87.83300781 108.45361328 C88.04739502 109.12626221 88.26178223 109.79891113 88.48266602 110.49194336 C89.50011523 113.81133592 90.19235985 116.78795405 90.60253906 120.26220703 C90.78171875 121.29474609 90.96089844 122.32728516 91.14550781 123.39111328 C94.24954146 125.46046905 94.964508 125.64629237 98.48925781 125.65673828 C99.32328125 125.65931641 100.15730469 125.66189453 101.01660156 125.66455078 C102.31791016 125.65294922 102.31791016 125.65294922 103.64550781 125.64111328 C104.51304687 125.64884766 105.38058594 125.65658203 106.27441406 125.66455078 C107.1084375 125.66197266 107.94246094 125.65939453 108.80175781 125.65673828 C109.56294922 125.65448242 110.32414062 125.65222656 111.10839844 125.64990234 C113.45687527 125.50522639 113.45687527 125.50522639 116.14550781 123.39111328 C114.8744493 105.59629408 108.70469008 89.35913258 99.14550781 74.39111328 C98.66597656 73.57384766 98.18644531 72.75658203 97.69238281 71.91455078 C96.11723832 69.34499689 94.41808507 66.96857351 92.58300781 64.57861328 C91.68388672 63.39332031 91.68388672 63.39332031 90.76660156 62.18408203 C90.23164062 61.59240234 89.69667969 61.00072266 89.14550781 60.39111328 C88.48550781 60.39111328 87.82550781 60.39111328 87.14550781 60.39111328 C86.91863281 59.83423828 86.69175781 59.27736328 86.45800781 58.70361328 C77.71710607 43.30297688 55.79690726 33.25208024 40.12255859 27.17944336 C38.19240427 26.40981279 36.30016577 25.5788241 34.40332031 24.73095703 C27.60626805 21.93552666 20.39905381 22.27597763 13.14550781 22.39111328 Z M14.14550781 68.39111328 C12.91913211 70.84386469 13.03135467 72.44169139 13.04785156 75.18017578 C13.05107422 76.12119141 13.05429687 77.06220703 13.05761719 78.03173828 C13.06599609 79.01658203 13.074375 80.00142578 13.08300781 81.01611328 C13.08751953 82.00869141 13.09203125 83.00126953 13.09667969 84.02392578 C13.10848637 86.47971488 13.12495381 88.93538432 13.14550781 91.39111328 C13.95632813 91.78041016 14.76714844 92.16970703 15.60253906 92.57080078 C29.79689697 99.742339 38.24116154 108.45064851 44.77050781 123.01611328 C45.87584297 125.51120288 45.87584297 125.51120288 47.94726562 126.04711914 C50.27949264 126.41208003 52.33719966 126.41324013 54.69238281 126.27001953 C55.53671875 126.22167969 56.38105469 126.17333984 57.25097656 126.12353516 C58.56001953 126.03942383 58.56001953 126.03942383 59.89550781 125.95361328 C60.78367187 125.90140625 61.67183594 125.84919922 62.58691406 125.79541016 C64.77349978 125.66609595 66.95958675 125.53114686 69.14550781 125.39111328 C70.58228862 120.8844212 69.15959581 117.55418906 67.58300781 113.26611328 C67.17236084 112.1297644 67.17236084 112.1297644 66.75341797 110.97045898 C63.85598035 103.21331111 60.40933918 95.98831199 54.14550781 90.39111328 C53.48550781 90.39111328 52.82550781 90.39111328 52.14550781 90.39111328 C51.48550781 88.74111328 50.82550781 87.09111328 50.14550781 85.39111328 C49.48550781 85.39111328 48.82550781 85.39111328 48.14550781 85.39111328 C48.14550781 84.73111328 48.14550781 84.07111328 48.14550781 83.39111328 C38.38226969 75.2577447 27.02260699 69.1485897 14.14550781 68.39111328 Z M-29.41699219 73.64111328 C-30.14595703 74.02396484 -30.87492188 74.40681641 -31.62597656 74.80126953 C-36.16478851 77.24430243 -40.09451472 79.85091333 -43.85449219 83.39111328 C-43.85449219 84.05111328 -43.85449219 84.71111328 -43.85449219 85.39111328 C-44.49386719 85.65923828 -45.13324219 85.92736328 -45.79199219 86.20361328 C-48.18580905 87.2777908 -48.18580905 87.2777908 -48.85449219 90.39111328 C-49.51449219 90.39111328 -50.17449219 90.39111328 -50.85449219 90.39111328 C-58.86880963 98.69165635 -65.54041055 112.84780791 -66.85449219 124.39111328 C-65.81656446 125.65292423 -65.81656446 125.65292423 -63.5378418 125.50463867 C-62.0374939 125.49678345 -62.0374939 125.49678345 -60.50683594 125.48876953 C-59.42724609 125.48554688 -58.34765625 125.48232422 -57.23535156 125.47900391 C-56.09904297 125.470625 -54.96273437 125.46224609 -53.79199219 125.45361328 C-52.08172852 125.4468457 -52.08172852 125.4468457 -50.33691406 125.43994141 C-47.50938867 125.42811076 -44.68196579 125.41162738 -41.85449219 125.39111328 C-41.42007813 124.34310547 -40.98566406 123.29509766 -40.53808594 122.21533203 C-39.19117547 119.07675414 -37.67512028 116.13693574 -35.91699219 113.20361328 C-35.43359375 112.38505859 -34.95019531 111.56650391 -34.45214844 110.72314453 C-32.85449219 108.39111328 -32.85449219 108.39111328 -30.66308594 106.21533203 C-28.61980587 104.58253446 -28.61980587 104.58253446 -28.85449219 102.39111328 C-27.86449219 102.06111328 -26.87449219 101.73111328 -25.85449219 101.39111328 C-25.85449219 100.73111328 -25.85449219 100.07111328 -25.85449219 99.39111328 C-24.83355469 99.26736328 -24.83355469 99.26736328 -23.79199219 99.14111328 C-21.16723234 98.47096183 -19.57645035 97.74997202 -17.29199219 96.39111328 C-14.5366929 94.78803006 -12.83529383 94.07899058 -9.85449219 93.39111328 C-7.9692969 89.62072271 -8.66973225 85.03956734 -8.66699219 80.89111328 C-8.64862305 79.42738281 -8.64862305 79.42738281 -8.62988281 77.93408203 C-8.62794922 77.00208984 -8.62601563 76.07009766 -8.62402344 75.10986328 C-8.61991455 74.25328125 -8.61580566 73.39669922 -8.61157227 72.51416016 C-8.65624486 70.17460059 -8.65624486 70.17460059 -10.85449219 68.39111328 C-18.10055192 68.39111328 -23.18909717 70.21992295 -29.41699219 73.64111328 Z M-17.85449219 122.39111328 C-22.08213921 128.32140171 -22.43167556 134.12877205 -21.57714844 141.23876953 C-19.95214249 148.32730897 -16.18358848 152.82757679 -10.29199219 156.95361328 C-3.68745329 160.52982665 3.30961127 160.68815838 10.50488281 158.75830078 C16.59864953 156.13656394 21.37957502 150.94676248 24.30566406 145.05517578 C26.31094838 138.69422739 26.60744601 131.4244396 23.68457031 125.35986328 C21.95641723 122.88065633 20.18755266 120.61681099 18.14550781 118.39111328 C17.695625 117.84197266 17.24574219 117.29283203 16.78222656 116.72705078 C14.45294337 114.82582201 12.18139885 114.38959633 9.27050781 113.70361328 C8.24183594 113.45224609 7.21316406 113.20087891 6.15332031 112.94189453 C-3.73858035 111.13052051 -11.36024504 115.05103704 -17.85449219 122.39111328 Z M-111.85449219 147.39111328 C-113.19502611 151.41271506 -112.20934874 154.56496875 -111.29199219 158.57861328 C-111.10926758 159.38016846 -110.92654297 160.18172363 -110.73828125 161.00756836 C-106.49795835 178.78713716 -99.0279943 195.61883978 -86.85449219 209.39111328 C-86.07460938 210.30248047 -85.29472656 211.21384766 -84.49121094 212.15283203 C-79.88395313 217.68339903 -79.88395313 217.68339903 -73.85449219 221.39111328 C-73.85449219 222.05111328 -73.85449219 222.71111328 -73.85449219 223.39111328 C-71.72785283 225.20608998 -69.60890196 226.87181515 -67.35449219 228.51611328 C-66.68393799 229.0060376 -66.01338379 229.49596191 -65.32250977 230.00073242 C-58.24119463 235.03346851 -50.75246718 238.81963372 -42.85449219 242.39111328 C-41.53384766 243.0040625 -41.53384766 243.0040625 -40.18652344 243.62939453 C-35.15542669 245.81206465 -29.96396531 247.26486775 -24.66699219 248.64111328 C-24.00119141 248.81674805 -23.33539062 248.99238281 -22.64941406 249.17333984 C-18.30743328 250.24263362 -14.31902396 250.64071862 -9.85449219 250.39111328 C-7.43633052 247.97295162 -8.669022 241.70333509 -8.66699219 238.45361328 C-8.65474609 237.42558594 -8.6425 236.39755859 -8.62988281 235.33837891 C-8.62794922 234.35675781 -8.62601563 233.37513672 -8.62402344 232.36376953 C-8.61991455 231.45892822 -8.61580566 230.55408691 -8.61157227 229.62182617 C-8.64107921 227.1869255 -8.64107921 227.1869255 -10.85449219 225.39111328 C-12.94370611 224.88702122 -15.05230241 224.46203312 -17.16699219 224.07861328 C-30.01577534 221.4406098 -42.31913172 216.52983367 -52.57324219 208.17626953 C-54.63421962 206.18568931 -54.63421962 206.18568931 -56.85449219 206.39111328 C-56.85449219 205.73111328 -56.85449219 205.07111328 -56.85449219 204.39111328 C-57.93876153 203.40679055 -59.07514633 202.47973307 -60.22949219 201.57861328 C-76.31187031 187.80185043 -83.47883671 168.58644625 -87.85449219 148.39111328 C-88.88163879 147.14058198 -88.88163879 147.14058198 -91.0793457 147.27758789 C-92.03768311 147.28282471 -92.99602051 147.28806152 -93.98339844 147.29345703 C-95.01787109 147.29667969 -96.05234375 147.29990234 -97.11816406 147.30322266 C-98.20677734 147.31160156 -99.29539062 147.31998047 -100.41699219 147.32861328 C-101.50947266 147.333125 -102.60195313 147.33763672 -103.72753906 147.34228516 C-106.43657714 147.35411502 -109.14550818 147.37059785 -111.85449219 147.39111328 Z M-65.85449219 147.39111328 C-63.83527054 165.56410808 -54.59189744 179.68082356 -40.85449219 191.39111328 C-34.35458873 196.31474587 -27.52829595 199.70730494 -19.85449219 202.39111328 C-18.18386719 203.00986328 -18.18386719 203.00986328 -16.47949219 203.64111328 C-13.66848309 204.5742607 -13.66848309 204.5742607 -9.85449219 204.39111328 C-8.60200717 201.88614324 -8.74074812 200.18258054 -8.75683594 197.38330078 C-8.76005859 196.39716797 -8.76328125 195.41103516 -8.76660156 194.39501953 C-8.77498047 193.36248047 -8.78335938 192.32994141 -8.79199219 191.26611328 C-8.79650391 190.22583984 -8.80101562 189.18556641 -8.80566406 188.11376953 C-8.81747267 185.53949366 -8.83394144 182.96533182 -8.85449219 180.39111328 C-9.74910156 179.99021484 -10.64371094 179.58931641 -11.56542969 179.17626953 C-26.92656797 172.05618587 -35.17379644 162.97940337 -41.85449219 147.39111328 C-49.77449219 147.39111328 -57.69449219 147.39111328 -65.85449219 147.39111328 Z M45.14550781 147.39111328 C44.88866211 148.05860596 44.63181641 148.72609863 44.3671875 149.41381836 C37.92632865 165.88294465 28.76535453 173.03176242 13.14550781 180.39111328 C13.14550781 187.98111328 13.14550781 195.57111328 13.14550781 203.39111328 C21.04280815 205.36543837 30.32207097 200.06116982 37.27050781 196.26611328 C53.18790892 186.41046546 63.79379522 172.35757698 69.14550781 154.39111328 C69.85952014 151.19716302 69.85952014 151.19716302 70.14550781 148.39111328 C69.10758009 147.12930233 69.10758009 147.12930233 66.82885742 147.27758789 C65.32850952 147.28544312 65.32850952 147.28544312 63.79785156 147.29345703 C62.71826172 147.29667969 61.63867188 147.29990234 60.52636719 147.30322266 C58.8219043 147.31579102 58.8219043 147.31579102 57.08300781 147.32861328 C55.37274414 147.33538086 55.37274414 147.33538086 53.62792969 147.34228516 C50.8004043 147.35411581 47.97298141 147.37059919 45.14550781 147.39111328 Z M90.28808594 149.30517578 C88.83641747 151.95540129 89.40725931 152.5443057 90.14550781 155.39111328 C89.63099852 157.88382211 89.04209102 160.16657326 88.27050781 162.57861328 C88.04999756 163.2733374 87.8294873 163.96806152 87.60229492 164.68383789 C85.75431134 170.18108203 83.39934198 175.32123561 80.70800781 180.45361328 C80.16974365 181.48748169 80.16974365 181.48748169 79.62060547 182.54223633 C77.28671711 186.81964553 74.61572476 190.373556 71.29760742 193.94360352 C69.93792588 195.3435827 69.93792588 195.3435827 70.14550781 197.39111328 C69.48550781 197.39111328 68.82550781 197.39111328 68.14550781 197.39111328 C68.14550781 198.05111328 68.14550781 198.71111328 68.14550781 199.39111328 C67.48550781 199.39111328 66.82550781 199.39111328 66.14550781 199.39111328 C64.47884115 200.72444661 64.47884115 200.72444661 63.14550781 202.39111328 C63.14550781 203.05111328 63.14550781 203.71111328 63.14550781 204.39111328 C62.57960938 204.65408203 62.01371094 204.91705078 61.43066406 205.18798828 C58.9654035 206.48593743 56.83127317 207.9965831 54.58300781 209.64111328 C43.91939772 217.11184012 33.59651791 221.05536671 21.14550781 224.39111328 C16.80119404 225.26027622 16.80119404 225.26027622 13.14550781 227.39111328 C13.0583695 229.09883686 13.03850774 230.81009977 13.04785156 232.52001953 C13.05107422 233.55449219 13.05429687 234.58896484 13.05761719 235.65478516 C13.07018555 237.28770508 13.07018555 237.28770508 13.08300781 238.95361328 C13.08751953 240.04609375 13.09203125 241.13857422 13.09667969 242.26416016 C13.10850955 244.97319823 13.12499238 247.68212927 13.14550781 250.39111328 C18.27121347 250.56991697 22.83378755 249.99922863 27.77050781 248.70361328 C28.46563477 248.52427246 29.16076172 248.34493164 29.87695312 248.16015625 C42.49318983 244.79409584 55.25829113 239.68870417 66.14550781 232.39111328 C66.14550781 231.73111328 66.14550781 231.07111328 66.14550781 230.39111328 C66.85964844 230.14619141 67.57378906 229.90126953 68.30957031 229.64892578 C76.70017974 225.92747091 83.50767599 218.48111391 89.14550781 211.39111328 C90.31726563 209.97378906 90.31726563 209.97378906 91.51269531 208.52783203 C104.0942797 193.0301782 117.82873222 169.05954316 116.14550781 148.39111328 C113.65513418 145.90073965 107.11430474 147.1086834 103.77050781 147.07861328 C102.16949219 147.03510742 102.16949219 147.03510742 100.53613281 146.99072266 C99.00085938 146.9781543 99.00085938 146.9781543 97.43457031 146.96533203 C96.02232178 146.94345825 96.02232178 146.94345825 94.58154297 146.92114258 C91.99699243 147.17857904 91.99699243 147.17857904 90.28808594 149.30517578 Z " fill="#211F20" transform="translate(543.8544921875,323.60888671875)"/>
<path d="M0 0 C0.677054 -0.00523668 1.35410799 -0.01047336 2.05167878 -0.01586872 C4.31935326 -0.03086511 6.58680204 -0.03157378 8.85452271 -0.03224182 C10.48082866 -0.03986352 12.10713101 -0.04829104 13.73342896 -0.0574646 C18.1508164 -0.07941451 22.56813461 -0.08820907 26.98557043 -0.09329104 C29.74553722 -0.0969338 32.50548584 -0.10317342 35.26544571 -0.11029243 C44.89443001 -0.1347879 54.52336041 -0.1478392 64.15237427 -0.15138245 C73.12747537 -0.15501859 82.10223468 -0.18491929 91.07723129 -0.22678703 C98.78351098 -0.26147587 106.48967731 -0.27693064 114.19603455 -0.27762848 C118.79840341 -0.27842173 123.40042407 -0.28718226 128.00271225 -0.31562614 C132.33175388 -0.34178308 136.66015803 -0.34402556 140.98924255 -0.3279705 C142.57672133 -0.32615415 144.16423657 -0.33286371 145.75163651 -0.34878922 C147.92209235 -0.3692342 150.09031427 -0.35871138 152.26074219 -0.34057617 C154.08086476 -0.34359316 154.08086476 -0.34359316 155.93775749 -0.3466711 C160.39057211 0.48608716 162.05167866 2.11565304 165.25735474 5.27415466 C166.69769838 8.15484195 166.39334178 10.63851254 166.40452576 13.85894775 C166.40820244 14.54316557 166.41187913 15.22738339 166.41566724 15.93233508 C166.42672289 18.23614246 166.43055107 20.53990477 166.43435669 22.84373474 C166.44061989 24.49106999 166.44726656 26.13840382 166.45426941 27.78573608 C166.47169171 32.26927653 166.48223439 36.75280631 166.49047494 41.23637223 C166.49562219 44.03618128 166.50169803 46.83598699 166.50798607 49.63579369 C166.52704106 58.39181045 166.54127188 67.14781876 166.54959804 75.90385228 C166.55937445 86.01862159 166.58570319 96.13317229 166.62609893 106.24786454 C166.65623473 114.06108374 166.67106447 121.87424019 166.67437905 129.68751639 C166.67673232 134.35634944 166.68572867 139.02494904 166.71084023 143.69371986 C166.73408189 148.08584752 166.73837004 152.47758736 166.72807884 156.86976051 C166.72758243 158.48184497 166.73393402 160.09394827 166.74763489 161.70597458 C166.76529716 163.90725326 166.75827726 166.10713156 166.74510193 168.30841064 C166.74749028 169.54009381 166.74987864 170.77177698 166.75233936 172.04078388 C166.15284365 175.95684876 165.09975949 177.54680896 162.25735474 180.27415466 C158.36340658 182.44209084 154.91561834 182.52724563 150.50834656 182.53485107 C149.84268879 182.53867662 149.17703103 182.54250217 148.49120182 182.54644364 C146.26807078 182.55673516 144.04519987 182.55278891 141.822052 182.54881287 C140.22515627 182.55316147 138.62826262 182.55834511 137.03137207 182.56430054 C132.6987353 182.57768557 128.36618579 182.57826978 124.03353238 182.57573724 C120.41520198 182.57466724 116.79688921 182.57955162 113.17856258 182.58434266 C104.6419063 182.59543603 96.10529403 182.59587614 87.56863403 182.58982849 C78.7645777 182.58378729 69.96068111 182.5961038 61.15665203 182.61739856 C53.59472624 182.63501584 46.03285129 182.64101574 38.47090572 182.63776082 C33.95584102 182.63594809 29.4408903 182.63858312 24.92584419 182.65247536 C20.67980158 182.66505122 16.434008 182.66311194 12.18796921 182.65006447 C10.63114144 182.64769864 9.07429616 182.65043361 7.51748848 182.65868759 C5.38915278 182.66915666 3.26165251 182.66105411 1.13334656 182.64837646 C-0.05664664 182.64854421 -1.24663984 182.64871195 -2.47269344 182.64888477 C-6.18527488 182.22343017 -8.57283243 181.23127175 -11.74264526 179.27415466 C-14.32999616 175.39312831 -14.04988882 172.137672 -14.06149292 167.63352966 C-14.07152438 166.74460557 -14.08155584 165.85568148 -14.09189129 164.93982029 C-14.12295164 161.96793869 -14.13984618 158.9961482 -14.15670776 156.02415466 C-14.17569468 153.92217276 -14.19550162 151.82019813 -14.21607971 149.7182312 C-14.26856262 144.07184441 -14.30830837 138.42543881 -14.34454727 132.77892685 C-14.37524113 128.12159569 -14.41128193 123.46431151 -14.44708729 118.80701733 C-14.52721626 108.33403596 -14.59691753 97.86102614 -14.65914917 87.38792419 C-14.71283834 78.36569495 -14.78339382 69.34381917 -14.87142563 60.32186317 C-14.93313472 53.93713647 -14.98142569 47.55243461 -15.0158577 41.16750145 C-15.03528532 37.60059259 -15.06074889 34.03399815 -15.1020813 30.4672699 C-15.14647995 26.58908785 -15.15929491 22.71118279 -15.16842651 18.83274841 C-15.18588425 17.7167778 -15.20334198 16.60080719 -15.22132874 15.45101929 C-15.20043867 8.07228919 -15.20043867 8.07228919 -12.96603394 4.17674255 C-8.6831725 0.51183214 -5.63729324 0.0216188 0 0 Z M6.25735474 23.27415466 C6.15883007 25.04344424 6.13103385 26.81669931 6.13037109 28.58872986 C6.12755127 29.74139847 6.12473145 30.89406708 6.12182617 32.08166504 C6.1238504 33.3575499 6.12587463 34.63343475 6.12796021 35.94798279 C6.12660618 37.29624479 6.12482623 38.64450641 6.12265015 39.99276733 C6.11807601 43.66415494 6.11986529 47.33551457 6.12302923 51.00690269 C6.12555293 54.84081983 6.12321527 58.6747345 6.12164307 62.50865173 C6.1198214 68.94823132 6.1222276 75.38779946 6.12698364 81.82737732 C6.13242626 89.28287629 6.1306636 96.73834792 6.12515724 104.19384623 C6.12062602 110.58364042 6.1199756 116.97342636 6.12259591 123.36322165 C6.12415864 127.18453514 6.12435256 131.00583576 6.12105942 134.82714844 C6.11818058 138.41889291 6.12015662 142.01060198 6.12595367 145.60234261 C6.1279168 147.55710933 6.12492747 149.51187904 6.12182617 151.46664429 C6.124646 152.6193129 6.12746582 153.77198151 6.13037109 154.95957947 C6.13074812 155.96764397 6.13112514 156.97570847 6.1315136 158.01432037 C6.00372312 160.24275569 6.00372312 160.24275569 7.25735474 161.27415466 C8.96691249 161.37474421 10.68064598 161.40491902 12.39315796 161.40786743 C14.06300499 161.41426491 14.06300499 161.41426491 15.7665863 161.42079163 C17.61488289 161.42011185 17.61488289 161.42011185 19.5005188 161.41941833 C20.78985825 161.42277695 22.07919769 161.42613556 23.40760803 161.42959595 C26.95529676 161.43845813 30.5029614 161.44077506 34.05066013 161.44141173 C37.01026756 161.44235952 39.96986933 161.44603654 42.92947459 161.44958383 C49.91360811 161.45773775 56.89772873 161.46016731 63.88186646 161.4594574 C71.08737144 161.45885719 78.29280143 161.46939546 85.49828744 161.48520106 C91.6809284 161.49827999 97.86354487 161.50364111 104.04619956 161.50300199 C107.74023047 161.50274699 111.43419483 161.5055988 115.12821198 161.51618004 C119.25106417 161.52766593 123.37374879 161.52311202 127.49661255 161.51707458 C128.72071335 161.52269409 129.94481415 161.5283136 131.20600891 161.53410339 C132.33051956 161.52990891 133.45503021 161.52571442 134.61361694 161.52139282 C136.07593687 161.52220997 136.07593687 161.52220997 137.56779861 161.52304363 C140.45706909 161.25567329 142.63104843 160.47834788 145.25735474 159.27415466 C145.28068306 141.55922999 145.29833358 123.84430929 145.30916691 106.1293726 C145.31433001 97.90459747 145.32137297 89.67983188 145.33279419 81.45506287 C145.3427406 74.2889502 145.34920806 67.12284444 145.35144323 59.95672506 C145.35275041 56.15998477 145.35583672 52.36326421 145.36308479 48.56653023 C145.36984434 44.99696564 145.37197183 41.42742903 145.37046242 37.85785866 C145.37087109 35.9150062 145.37626663 33.97215683 145.3817749 32.02931213 C145.37971291 30.31076271 145.37971291 30.31076271 145.37760925 28.55749512 C145.37853105 27.55550614 145.37945284 26.55351717 145.38040257 25.52116489 C145.50967628 23.30401446 145.50967628 23.30401446 144.25735474 22.27415466 C142.48806516 22.17563 140.71481009 22.14783378 138.94277954 22.14717102 C137.21377663 22.14294128 137.21377663 22.14294128 135.44984436 22.1386261 C133.53601707 22.14166245 133.53601707 22.14166245 131.58352661 22.14476013 C130.23526461 22.1434061 128.88700299 22.14162616 127.53874207 22.13945007 C123.86735446 22.13487593 120.19599483 22.13666522 116.5246067 22.13982916 C112.69068957 22.14235286 108.85677489 22.14001519 105.02285767 22.13844299 C98.58327807 22.13662133 92.14370993 22.13902753 85.70413208 22.14378357 C78.24863311 22.14922619 70.79316148 22.14746353 63.33766317 22.14195716 C56.94786898 22.13742595 50.55808304 22.13677553 44.16828775 22.13939583 C40.34697426 22.14095856 36.52567364 22.14115249 32.70436096 22.13785934 C29.11261649 22.13498051 25.52090742 22.13695655 21.92916679 22.1427536 C19.97440007 22.14471673 18.01963036 22.14172739 16.06486511 22.1386261 C14.9121965 22.14144592 13.75952789 22.14426575 12.57192993 22.14717102 C11.05983318 22.14773656 11.05983318 22.14773656 9.51718903 22.14831352 C7.28875371 22.02052305 7.28875371 22.02052305 6.25735474 23.27415466 Z " fill="#211F20" transform="translate(195.74264526367188,288.72584533691406)"/>
<path d="M0 0 C1.60082738 -0.00270072 3.20165315 -0.00658794 4.80247498 -0.01159668 C8.14183315 -0.01746285 11.48076062 -0.0090217 14.82006836 0.00976562 C19.07905326 0.03257252 23.33703056 0.01940344 27.59597874 -0.00452423 C30.89649415 -0.019045 34.19677442 -0.014348 37.49729729 -0.00401306 C39.06682393 -0.00136403 40.63637264 -0.00455061 42.20587349 -0.01393127 C50.673403 -0.05345376 57.87276844 0.11313452 65.37109375 4.53125 C66.63937739 5.15888591 67.91104503 5.77977892 69.1875 6.390625 C70.43726228 7.01871996 71.68593748 7.64898198 72.93359375 8.28125 C74.3215477 8.98060151 75.70957062 9.67981614 77.09765625 10.37890625 C77.80051758 10.73355957 78.50337891 11.08821289 79.22753906 11.45361328 C81.36297828 12.52717008 83.50284108 13.59131843 85.64453125 14.65234375 C89.5626447 16.5938662 93.46954743 18.55668018 97.37109375 20.53125 C98.31597656 21.005625 99.26085937 21.48 100.234375 21.96875 C101.02199219 22.38125 101.80960938 22.79375 102.62109375 23.21875 C103.265625 23.55261719 103.91015625 23.88648438 104.57421875 24.23046875 C107.63669054 26.44743202 110.02976295 28.68186629 110.74160576 32.53874207 C110.88488288 35.03892069 110.89998915 37.51141603 110.87280273 40.015625 C110.88090721 41.43844788 110.88090721 41.43844788 110.88917542 42.89001465 C110.90166722 46.0207453 110.88516826 49.15055718 110.8671875 52.28125 C110.86734248 54.45931039 110.86883124 56.63737105 110.87159729 58.81542969 C110.87298149 63.37837934 110.86041938 67.94101476 110.83764648 72.50390625 C110.80926208 78.35170333 110.81199904 84.19897825 110.8247366 90.04681396 C110.83169276 94.54382789 110.82390514 99.0407212 110.81147957 103.53771973 C110.80696448 105.69388364 110.80662876 107.8500605 110.81054497 110.00622559 C110.81345651 113.02004521 110.79695241 116.0331462 110.77514648 119.046875 C110.78189896 120.38268616 110.78189896 120.38268616 110.78878784 121.7454834 C110.73222058 126.4528457 110.54941708 129.7863099 107.37109375 133.53125 C103.85387684 135.8484127 100.76771585 135.78493531 96.62171936 135.79194641 C95.9439598 135.79577196 95.26620024 135.79959751 94.56790251 135.80353898 C92.29787489 135.81385404 90.02810091 135.80987974 87.75805664 135.8059082 C86.13012966 135.8102555 84.50220472 135.81543871 82.87428284 135.82139587 C78.45281436 135.83479503 74.03143132 135.83536354 69.60994649 135.83283257 C65.91949761 135.83176351 62.22906606 135.83664457 58.53862089 135.841438 C49.83278162 135.8525363 41.1269855 135.85296873 32.42114258 135.84692383 C23.43815672 135.84088243 14.45532744 135.85319851 5.4723683 135.8744939 C-2.23898949 135.89210299 -9.9502974 135.89811236 -17.66167456 135.89485615 C-22.26782427 135.89304208 -26.8738623 135.89569181 -31.47999382 135.90957069 C-35.81137917 135.92213321 -40.14252021 135.92021995 -44.47390175 135.90715981 C-46.06339983 135.90479105 -47.65291502 135.90753943 -49.24239349 135.91578293 C-51.41272938 135.92622714 -53.58224201 135.91816933 -55.75254822 135.9054718 C-56.96688506 135.90563954 -58.1812219 135.90580729 -59.43235683 135.90598011 C-63.71715022 135.40367563 -66.26202094 133.76517209 -69.41714478 130.91696167 C-71.32334527 127.16404093 -71.04593286 123.51038765 -71.01708984 119.35986328 C-71.0223468 118.43257416 -71.02760376 117.50528503 -71.03302002 116.54989624 C-71.04622665 113.48361377 -71.03747802 110.4178503 -71.02734375 107.3515625 C-71.02936464 105.21930848 -71.03227619 103.08705512 -71.03604126 100.95480347 C-71.04046581 96.48428777 -71.03403053 92.01395184 -71.02001953 87.54345703 C-71.00294844 81.81793423 -71.01275502 76.09283395 -71.03073692 70.36732674 C-71.04158885 65.96292959 -71.03812156 61.55863222 -71.03035355 57.15423203 C-71.02835437 55.0435468 -71.03080089 52.93285248 -71.03779221 50.82217789 C-71.04542739 47.86835069 -71.03377225 44.91520254 -71.01708984 41.96142578 C-71.02316254 41.09161072 -71.02923523 40.22179565 -71.03549194 39.32562256 C-70.98333333 34.33000721 -70.44561193 30.83470002 -67.62890625 26.53125 C-62.23196011 22.50999601 -56.14581351 19.7264993 -50.12182617 16.76318359 C-44.25149588 13.87361128 -38.47694501 10.82357174 -32.74047852 7.67675781 C-30.72151006 6.58768562 -28.68061183 5.55727306 -26.62890625 4.53125 C-25.9667662 4.1816925 -25.30462616 3.83213501 -24.62242126 3.47198486 C-16.61010677 -0.28487717 -8.64270301 -0.05173341 0 0 Z M13.06201172 20.47070312 C-1.66866435 20.27149779 -14.05338844 20.22688026 -26.65087891 28.34472656 C-30.59048319 30.70790563 -34.82851064 32.50292689 -39.00390625 34.40625 C-40.61825711 35.14850915 -42.23043544 35.89552166 -43.83984375 36.6484375 C-44.52353027 36.96409668 -45.2072168 37.27975586 -45.91162109 37.60498047 C-47.81385814 38.52509125 -47.81385814 38.52509125 -49.62890625 40.53125 C-49.93009494 43.68285282 -49.93009494 43.68285282 -49.87182617 47.44360352 C-49.87372452 48.15429993 -49.87562286 48.86499634 -49.87757874 49.597229 C-49.88129031 51.9516495 -49.87057801 54.30576307 -49.859375 56.66015625 C-49.85818341 58.29157983 -49.85772999 59.9230041 -49.85798645 61.5544281 C-49.85642098 64.97504973 -49.84812584 68.39556678 -49.8347168 71.81616211 C-49.81771341 76.21036625 -49.81390279 80.60445552 -49.81466198 84.9986887 C-49.81439065 88.36745814 -49.80891567 91.73620226 -49.80166054 95.1049633 C-49.79846887 96.72575628 -49.79650531 98.34655214 -49.79576683 99.9673481 C-49.79360927 102.22771264 -49.78487824 104.48795296 -49.77416992 106.74829102 C-49.77035812 108.03687515 -49.76654633 109.32545929 -49.76261902 110.65309143 C-49.95752794 113.42713822 -49.95752794 113.42713822 -48.62890625 114.53125 C-46.85961668 114.62977467 -45.0863616 114.65757089 -43.31433105 114.65823364 C-42.16166245 114.66105347 -41.00899384 114.66387329 -39.82139587 114.66677856 C-37.90756859 114.66374222 -37.90756859 114.66374222 -35.95507812 114.66064453 C-34.60681613 114.66199856 -33.2585545 114.6637785 -31.91029358 114.66595459 C-28.23890597 114.67052873 -24.56754634 114.66873945 -20.89615822 114.6655755 C-17.06224108 114.6630518 -13.22832641 114.66538947 -9.39440918 114.66696167 C-2.95482959 114.66878334 3.48473855 114.66637713 9.92431641 114.66162109 C17.37981538 114.65617848 24.83528701 114.65794114 32.29078531 114.6634475 C38.68057951 114.66797871 45.07036545 114.66862914 51.46016073 114.66600883 C55.28147423 114.6644461 59.10277485 114.66425217 62.92408752 114.66754532 C66.515832 114.67042416 70.10754106 114.66844812 73.69928169 114.66265106 C75.65404842 114.66068793 77.60881812 114.66367727 79.56358337 114.66677856 C80.71625198 114.66395874 81.86892059 114.66113892 83.05651855 114.65823364 C84.06458305 114.65785662 85.07264755 114.65747959 86.11125946 114.65709114 C88.33969478 114.78488162 88.33969478 114.78488162 89.37109375 113.53125 C89.50014487 111.51368312 89.55963608 109.49164116 89.59228516 107.47021484 C89.62704453 105.52216446 89.62704453 105.52216446 89.6625061 103.53475952 C89.6828244 102.10390596 89.70286752 100.67304848 89.72265625 99.2421875 C89.74577184 97.78064551 89.76916218 96.31910784 89.79281616 94.85757446 C89.841362 91.78578535 89.88626566 88.71396912 89.92871094 85.64208984 C89.98325941 81.71804058 90.04714952 77.79421038 90.11388588 73.87035179 C90.16417981 70.84711141 90.20921436 67.82380953 90.25272751 64.80046463 C90.27419944 63.35485912 90.29733144 61.90927723 90.32219315 60.46372604 C90.35638463 58.43211793 90.38268043 56.40038166 90.40869141 54.36865234 C90.42566071 53.21472992 90.44263 52.0608075 90.46011353 50.87191772 C90.36578699 47.33210204 90.05715657 44.0063961 89.37109375 40.53125 C87.27042348 38.4556643 87.27042348 38.4556643 84.37109375 37.09375 C83.2934375 36.52140625 82.21578125 35.9490625 81.10546875 35.359375 C79.86342894 34.74441054 78.61844177 34.13537508 77.37109375 33.53125 C76.67693359 33.19416016 75.98277344 32.85707031 75.26757812 32.50976562 C70.99261027 30.45031985 66.70052045 28.43255323 62.36865234 26.49536133 C60.37109375 25.53125 60.37109375 25.53125 58.64306641 24.43237305 C51.80381097 20.24907538 44.0083612 20.80022587 36.24609375 20.71875 C34.68839108 20.69303722 33.13069253 20.6670735 31.57299805 20.64086914 C27.60520474 20.58293454 23.63790139 20.55856871 19.66973877 20.54418945 C17.46682275 20.53178887 15.26470077 20.50393594 13.06201172 20.47070312 Z " fill="#211F20" transform="translate(251.62890625,494.46875)"/>
<path d="M0 0 C3.04250506 1.38295685 4.59753572 2.20586584 6.11962891 5.20922852 C7.82646308 10.61988339 7.36927327 16.3109876 7.375 21.9375 C7.39949219 23.20013672 7.42398438 24.46277344 7.44921875 25.76367188 C7.48584904 37.33273795 7.48584904 37.33273795 3 42 C0.06466089 43.77665262 -1.5729551 44.01779354 -5 43.875 C-8.53537213 42.8438498 -10.40051146 41.59948854 -13 39 C-15.77987873 33.3464708 -15.33020251 27.73359325 -15.3125 21.5625 C-15.32861328 20.44294922 -15.34472656 19.32339844 -15.36132812 18.16992188 C-15.3674747 7.81294733 -15.3674747 7.81294733 -12 3 C-7.78188138 -0.6557028 -5.37550063 -1.71558531 0 0 Z " fill="#211F20" transform="translate(241,541)"/>
<path d="M0 0 C4.57627119 3.15254237 4.57627119 3.15254237 6 6 C9.69114964 31.01779197 9.69114964 31.01779197 4.1875 39.9375 C0.78339397 43.14708568 -0.67084223 44.0241665 -5.4375 43.9375 C-9.64827101 42.82940237 -11.25210722 41.31363542 -14 38 C-16.26965883 33.46068235 -15.27519983 27.23330249 -15.3125 22.25 C-15.34150391 20.97382812 -15.37050781 19.69765625 -15.40039062 18.3828125 C-15.47970283 6.69341343 -15.47970283 6.69341343 -11 2 C-7.13260602 -1.1549793 -4.75545667 -1.48608021 0 0 Z " fill="#211F20" transform="translate(310,541)"/>
<path d="M0 0 C2.84057875 1.70434725 3.7082042 2.90831642 4.55859375 6.08984375 C5.15031403 9.7560694 5.22890023 12.34191184 4 15.875 C1.27451624 18.7708265 -1.21979053 19.82683154 -5 21 C-9.41069522 20.89498345 -11.80665099 18.92723659 -15 16 C-16.59689041 12.80621918 -16.37348957 9.47478685 -16 6 C-12.73006022 -1.5208615 -7.28519895 -1.79451592 0 0 Z " fill="#211F20" transform="translate(700,290)"/>
<path d="M0 0 C3.06471302 1.65023009 5.30778907 3.056076 7.375 5.875 C8.56898007 9.93453223 8.51725935 12.91621851 6.6875 16.75 C4.75580686 19.32559085 3.16346422 20.81262561 -0.0859375 21.3359375 C-3.99040629 21.40256666 -6.43352402 21.30131701 -9.9375 19.4375 C-12.64369671 16.23926752 -13.51239741 14.17945081 -14 10 C-12.87419283 6.18054376 -11.49962441 2.91941258 -8.03125 0.79296875 C-5.13106016 -0.33922074 -3.09542181 -0.37145062 0 0 Z " fill="#211F20" transform="translate(697,609)"/>
<path d="M0 0 C3.73325038 2.51422985 4.74796824 4.13364082 6 8.4375 C6 12.53094236 5.22004022 14.59065251 3 18 C-1.01858595 20.6790573 -4.27641721 20.69610694 -9 20 C-11.87029869 18.20606332 -13.49131638 17.01736724 -15 14 C-15.64233846 9.3292818 -15.62020335 6.0129988 -13.125 1.9375 C-8.72930779 -0.78782917 -5.04149985 -1.01823396 0 0 Z " fill="#211F20" transform="translate(402,290)"/>
<path d="M0 0 C3.38305471 1.7565861 5.45478197 3.09920499 7.4375 6.375 C8.34123722 10.59244037 7.34142441 13.97572676 6 18 C2.45159037 20.90324424 -0.61255718 21.52324936 -5.06640625 21.36328125 C-8.14072683 20.78568163 -9.86602169 19.19864432 -12 17 C-13.60183927 13.79632147 -13.49374477 10.47623006 -13 7 C-9.63021837 1.65482914 -6.39552319 -0.75241449 0 0 Z " fill="#211F20" transform="translate(400,609)"/>
<path d="" fill="#090909" transform="translate(0,0)"/>
</svg>
