<?xml version="1.0" encoding="UTF-8"?>
<svg version="1.1" xmlns="http://www.w3.org/2000/svg" width="1134" height="1134">
<path d="M0 0 C0.93550417 -0.00436032 1.87100835 -0.00872064 2.83486113 -0.0132131 C5.96321355 -0.02414362 9.09112287 -0.01375745 12.21947193 -0.00342751 C14.48748096 -0.00688491 16.75548832 -0.01165003 19.02349216 -0.01760924 C25.2510841 -0.03013708 31.47853818 -0.02394066 37.70613062 -0.01465058 C43.7338789 -0.00856465 49.76159831 -0.01655371 55.78934089 -0.02409268 C68.87650527 -0.03988199 81.9636257 -0.03852405 95.05079426 -0.02985594 C106.50172714 -0.02230878 117.9526439 -0.02033942 129.40357876 -0.02392387 C130.16319374 -0.02415303 130.92280871 -0.02438218 131.70544232 -0.02461828 C134.78894712 -0.0255523 137.87245191 -0.0265075 140.95595669 -0.02749758 C169.87719717 -0.03667324 198.79840964 -0.0283558 227.7196458 -0.01220688 C253.41945737 0.00203411 279.11922435 0.00075228 304.81903553 -0.01358986 C333.69196485 -0.02964894 362.56486945 -0.03602682 391.43780261 -0.02675307 C394.51475322 -0.02579091 397.59170383 -0.02485239 400.66865444 -0.02392387 C401.8050943 -0.02356803 401.8050943 -0.02356803 402.96449254 -0.02320499 C414.41084791 -0.01979101 425.85718542 -0.02378621 437.30353832 -0.03136253 C450.31478422 -0.03993171 463.32597929 -0.037814 476.33721884 -0.0215203 C482.97889553 -0.0134777 489.62050155 -0.01057472 496.26218319 -0.02046776 C502.33714009 -0.02938002 508.41192195 -0.02453913 514.48686288 -0.0085351 C516.68924148 -0.00517262 518.89163475 -0.00691408 521.094004 -0.01416247 C524.07898509 -0.02323612 527.06336028 -0.0139778 530.04830933 0 C530.91076026 -0.0070235 531.7732112 -0.014047 532.66179702 -0.02128333 C538.49429654 0.03360203 542.66925465 1.10088269 547.23383045 4.99861717 C551.26420758 9.95662078 552.25974427 14.0939069 551.92133045 20.46736717 C550.99034804 25.09124648 548.90794434 28.32688798 545.33539295 31.37752342 C540.15035743 34.59612033 536.0246214 34.80109681 530.11687374 34.74666691 C528.73130878 34.75185921 528.73130878 34.75185921 527.3177526 34.7571564 C524.21150144 34.76511959 521.10571344 34.75161965 517.99948597 34.73828697 C515.75453993 34.7395948 513.50959433 34.74222081 511.26465118 34.74605447 C505.08709429 34.75277571 498.90969287 34.74074413 492.7321558 34.72572029 C486.75724101 34.71411544 480.782337 34.71660053 474.80741505 34.71876581 C462.58479793 34.72270749 450.36222946 34.71268339 438.1396265 34.69471359 C426.03684848 34.67696556 413.93409072 34.66541637 401.83129978 34.66215515 C401.07892592 34.66194893 400.32655205 34.66174271 399.55137898 34.66153025 C395.73048837 34.66051525 391.90959773 34.6596111 388.08870707 34.65874962 C361.02183336 34.65244755 333.95498612 34.63223314 306.88812733 34.60384178 C280.59223032 34.57629094 254.29634056 34.55503889 228.00043201 34.54231834 C227.18994881 34.54192377 226.37946561 34.54152919 225.54442231 34.54112265 C217.40525392 34.53716711 209.26608548 34.53333966 201.12691699 34.52960607 C184.54633331 34.52199733 167.96575011 34.51353357 151.38516712 34.50455284 C150.62281038 34.50414097 149.86045363 34.5037291 149.07499517 34.50330475 C98.16178266 34.47570043 47.24858781 34.42747986 -3.66460705 34.37752342 C-3.66460705 55.49752342 -3.66460705 76.61752342 -3.66460705 98.37752342 C-0.69460705 98.87252342 -0.69460705 98.87252342 2.33539295 99.37752342 C11.1162414 102.73631791 17.72964137 107.79466873 24.33539295 114.37752342 C25.5883617 115.56668358 25.5883617 115.56668358 26.86664295 116.77986717 C38.1902136 128.69470021 42.75808083 144.67057363 42.53851795 160.82674217 C41.50042785 178.97335572 33.58026353 194.22865195 20.33539295 206.37752342 C14.16943639 211.59117156 4.7219893 218.37752342 -3.66460705 218.37752342 C-3.33460705 266.22752342 -3.00460705 314.07752342 -2.66460705 363.37752342 C322.38539295 363.37752342 647.43539295 363.37752342 982.33539295 363.37752342 C982.66539295 315.52752342 982.99539295 267.67752342 983.33539295 218.37752342 C978.88039295 216.89252342 978.88039295 216.89252342 974.33539295 215.37752342 C958.51035554 208.17703111 947.82521022 195.52621163 941.21820545 179.70174217 C935.63071699 163.87052486 937.12494784 146.12127277 943.84320545 130.97908592 C951.89085354 114.92122066 964.13044252 105.33720988 980.33539295 98.37752342 C981.32539295 98.37752342 982.31539295 98.37752342 983.33539295 98.37752342 C983.00539295 77.58752342 982.67539295 56.79752342 982.33539295 35.37752342 C977.21700916 35.3629409 972.09862537 35.34835838 966.82513905 35.33333397 C949.93353915 35.28304722 933.04203146 35.21661347 916.15052319 35.14180851 C905.90698112 35.0968402 895.66347391 35.05742789 885.41986561 35.03108788 C876.49168665 35.00811621 867.56361788 34.97472745 858.6355263 34.92882186 C853.90802761 34.90487846 849.18063812 34.88615699 844.45308018 34.87990952 C840.0026873 34.87386374 835.55257388 34.85388219 831.10228443 34.82324791 C829.4696913 34.81445957 827.83706166 34.81074676 826.20444584 34.81251526 C823.97290056 34.81416921 821.74220595 34.79745958 819.51077747 34.77625084 C818.26266977 34.77164187 817.01456207 34.76703291 815.72863293 34.76228428 C810.39726962 34.15775883 807.26551177 32.34992037 803.58539295 28.50252342 C799.81327289 23.26346779 798.88977885 19.93432212 799.79633045 13.58846092 C801.14984713 8.03708091 804.76936924 4.53861676 809.33539295 1.37752342 C812.85216659 0.20526554 815.6285359 0.24267054 819.34174061 0.2303524 C820.05933143 0.22667571 820.77692225 0.22299903 821.51625824 0.21921092 C823.92733118 0.20817429 826.33836103 0.20433022 828.74945545 0.20052147 C830.47587184 0.19425659 832.20228688 0.18760977 833.92870045 0.18060875 C839.60592172 0.15956147 845.28314327 0.14920287 850.96039295 0.13924217 C852.91623416 0.13519428 854.87207523 0.13107735 856.82791615 0.12689209 C866.02070163 0.10783566 875.21347908 0.09360793 884.40628052 0.08528012 C895.00658986 0.07551824 905.6066898 0.04922805 916.20692539 0.00877923 C924.40581784 -0.02142872 932.60465045 -0.03619336 940.80359745 -0.03950089 C945.69728604 -0.04184687 950.59075105 -0.05074767 955.48437977 -0.07596207 C960.09403935 -0.09932844 964.70332954 -0.10344173 969.3130331 -0.09320068 C970.99838779 -0.09270722 972.68376118 -0.09897136 974.36905956 -0.11275673 C987.87396518 -0.21697727 998.12679541 1.28467501 1008.17133045 11.01033592 C1015.37766241 18.89307449 1017.63786639 26.73898441 1017.6259203 37.23103905 C1017.63599613 38.51780792 1017.63599613 38.51780792 1017.64627552 39.83057213 C1017.66517537 42.6483658 1017.66917515 45.46592043 1017.67133045 48.28377342 C1017.67776219 50.25240233 1017.68449083 52.22103029 1017.69150257 54.18965721 C1017.703454 58.30845418 1017.70718541 62.42716738 1017.70599842 66.54598045 C1017.70579495 71.81514595 1017.73313579 77.08377382 1017.76754284 82.35281181 C1017.78980954 86.41581743 1017.79383609 90.47869339 1017.79277897 94.54175377 C1017.79513377 96.48416566 1017.80395049 98.42658119 1017.8194437 100.36893272 C1017.83910615 103.08767226 1017.8332656 105.80524832 1017.8212328 108.5240078 C1017.83247181 109.32005928 1017.84371082 110.11611076 1017.85529041 110.93628502 C1017.79259545 116.52919525 1016.50484764 119.75191426 1013.33539295 124.37752342 C1009.23071437 128.37418415 1005.26878152 130.00037346 999.60101795 130.72908592 C990.86969952 131.85928196 985.32942854 134.49143474 979.02289295 140.62752342 C974.84977329 147.42816288 972.01629584 154.3296986 973.33539295 162.37752342 C975.56577424 170.91737904 978.58778963 177.19263744 986.14789295 182.06502342 C991.044419 184.65342272 996.13788203 185.48774891 1001.57489491 186.21419334 C1006.43816493 186.92802955 1009.6228328 188.1375664 1013.33539295 191.37752342 C1018.50851116 198.93564565 1017.89439904 206.9198569 1017.83710194 215.73250389 C1017.84088905 217.39231893 1017.84639232 219.0521308 1017.85347462 220.71193504 C1017.86739758 225.20386032 1017.85628075 229.69540117 1017.8397634 234.18730497 C1017.82587206 238.89916156 1017.8323778 243.61099674 1017.83589649 248.32286644 C1017.83859592 256.23649317 1017.82514784 264.149968 1017.80194569 272.06355858 C1017.77535605 281.19536932 1017.77358403 290.32692587 1017.78533405 299.45876205 C1017.79613854 308.26231358 1017.78990264 317.06577371 1017.77577877 325.86931801 C1017.77004025 329.6067135 1017.77008484 333.34404164 1017.77484417 337.08143806 C1017.77963995 341.48925089 1017.76940526 345.89678784 1017.74788952 350.30454826 C1017.74235606 351.9161276 1017.74182446 353.52773363 1017.74684238 355.13931465 C1017.78381648 368.72457313 1016.4557087 378.96510998 1006.7064867 389.06502342 C1000.5899294 394.74164273 992.63511259 398.51771241 984.20941639 398.49104881 C983.40888844 398.49097328 982.60836048 398.49089775 981.7835741 398.49081993 C980.92926807 398.48565865 980.07496204 398.48049736 979.19476795 398.47517967 C978.31258595 398.47376472 977.43040394 398.47234978 976.52148914 398.47089195 C973.7094223 398.46530344 970.89743565 398.45275303 968.08539295 398.44002342 C966.17653994 398.43500694 964.26768567 398.43044429 962.35883045 398.42635155 C957.68432048 398.41533776 953.0098703 398.398081 948.33539295 398.37752342 C948.35204754 400.26767174 948.35204754 400.26767174 948.36903858 402.19600487 C948.47049437 414.08407817 948.54539696 425.97206336 948.59445381 437.86047173 C948.62052259 443.97213377 948.65587204 450.08344568 948.71259022 456.19490623 C948.76700537 462.09528599 948.79683395 467.99532943 948.80977917 473.89594078 C948.81900186 476.14458064 948.83701178 478.39320255 948.86404324 480.64169884 C948.90045869 483.79688026 948.90533291 486.95068054 948.90301991 490.10603905 C948.92099628 491.03105217 948.93897266 491.95606529 948.95749378 492.90910912 C948.90894315 499.04911073 947.75629739 503.90094849 943.33539295 508.37752342 C936.64553034 513.55749535 929.70751765 512.93807551 921.5500927 512.8836813 C920.0214021 512.88815894 918.4927158 512.89438769 916.96403864 512.90220663 C912.75204833 512.91864351 908.54041873 512.91011524 904.32842852 512.897595 C899.75037835 512.88836646 895.17238947 512.90226593 890.59435123 512.91323417 C882.56699504 512.92924059 874.53974364 512.93030275 866.51237774 512.92163658 C854.57553563 512.90878431 842.63878857 512.91871336 830.70195219 512.93313613 C809.38476104 512.95809742 788.06761425 512.95995312 766.75041275 512.95186202 C748.09501222 512.94479567 729.43962894 512.94472554 710.78422832 512.95172501 C708.28408754 512.95263633 705.78394676 512.95354709 703.28380598 512.95445729 C699.51655789 512.95584039 695.74930981 512.95723148 691.98206174 512.95864343 C656.94695461 512.97162873 621.91185326 512.97673285 586.87674522 512.96510983 C586.21628575 512.96489127 585.55582627 512.96467272 584.87535287 512.96444754 C577.51044748 512.96200232 570.14554213 512.95943242 562.78063679 512.95681215 C562.115688 512.95657561 561.4507392 512.95633907 560.76564043 512.95609536 C558.07653255 512.95513798 555.38742468 512.95418043 552.6983168 512.95321521 C510.1605693 512.9379665 467.62288913 512.94596081 425.08514881 512.97444725 C378.07337237 513.00586942 331.06162596 513.02085174 284.04983753 513.01064724 C279.04001614 513.00961042 274.03019475 513.0086232 269.02037334 513.00766373 C267.78678485 513.00741484 266.55319636 513.00716595 265.2822264 513.00690953 C246.63721578 513.0034653 227.99223921 513.0127914 209.34723568 513.02843475 C188.15052426 513.04617786 166.95389585 513.04637321 145.75718803 513.0230831 C133.88777005 513.01055439 122.01854263 513.0118836 110.14913571 513.03296396 C102.2273426 513.0456528 94.30569679 513.04026305 86.38391978 513.01997916 C81.86593745 513.00892138 77.34833074 513.00584208 72.83036561 513.02465446 C68.72143128 513.0416003 64.6131982 513.03560426 60.5043073 513.01118861 C59.0259653 513.00643963 57.54756674 513.01009056 56.06927441 513.02310763 C48.05767492 513.08877266 41.41761344 513.10692679 35.33539295 507.37752342 C30.88952754 502.09536351 30.77752303 496.92003555 30.88129139 490.21956444 C30.88070728 489.22367805 30.88012318 488.22779167 30.87952137 487.20172691 C30.88229591 483.92793318 30.91335893 480.65506329 30.94476795 477.38142967 C30.95223256 475.10457418 30.95792445 472.82771224 30.96191883 470.55084801 C30.97715769 464.57156557 31.01642495 458.59267462 31.06073475 452.61354637 C31.10172487 446.50693113 31.11993787 440.40025235 31.14008045 434.29353905 C31.18292048 422.32136227 31.25115103 410.34947546 31.33539295 398.37752342 C30.18127918 398.39847069 29.02716541 398.41941795 27.8380785 398.44099998 C23.50878031 398.51403369 19.17953526 398.55955092 14.84979725 398.59724998 C12.98479488 398.61722237 11.11985398 398.6444101 9.25507069 398.67928123 C-3.53318336 398.91223095 -15.25789293 398.93415503 -25.66460705 390.37752342 C-32.95333874 383.17289248 -37.37283466 376.60021103 -37.79603481 366.12409115 C-37.79900948 364.88285457 -37.80198414 363.64161798 -37.80504894 362.36276817 C-37.80802006 361.66852554 -37.81099119 360.97428291 -37.81405234 360.25900263 C-37.82270468 357.93920361 -37.82424462 355.61945641 -37.82573986 353.29964256 C-37.83037036 351.6337835 -37.83539534 349.96792549 -37.84078503 348.30206871 C-37.85388569 343.78144534 -37.86034903 339.2608368 -37.86479568 334.74019742 C-37.86772922 331.91540532 -37.87183448 329.09061725 -37.87629986 326.26582718 C-37.88996652 317.4259881 -37.89963814 308.58615826 -37.90350175 299.74630934 C-37.90798539 289.54445974 -37.92555093 279.34274392 -37.95450234 269.140935 C-37.97611276 261.25205557 -37.98620563 253.36321381 -37.98754287 245.47430509 C-37.98859104 240.76361248 -37.99450183 236.05304578 -38.01236248 231.34238434 C-38.02883285 226.91250521 -38.03100373 222.48284682 -38.02222347 218.052948 C-38.02145263 216.42838767 -38.02580199 214.80381552 -38.03568172 213.17928505 C-38.04839153 210.95901472 -38.0425304 208.73952743 -38.03209972 206.51926231 C-38.03356628 205.27764871 -38.03503284 204.0360351 -38.03654385 202.75679684 C-37.38669341 196.85250795 -34.66956616 192.40497376 -30.14898205 188.68611717 C-26.19251816 186.60213069 -21.94648695 186.10819004 -17.58208752 185.40877342 C-7.80263298 183.82402363 -2.46804724 180.422504 3.33539295 172.37752342 C7.55578923 165.70657447 7.28195454 158.05256026 6.33539295 150.37752342 C3.98067021 143.05469248 0.13160576 138.43335892 -6.4185133 134.49861717 C-11.02464855 132.19955488 -14.97309188 131.09456522 -20.10210705 130.50252342 C-26.06006688 129.61588228 -30.10823328 128.62018233 -33.98031044 123.70860577 C-37.48530193 118.52818157 -38.38780125 114.66604599 -38.29571056 108.47395897 C-38.30286587 107.6223922 -38.31002117 106.77082542 -38.3173933 105.8934536 C-38.33419501 103.09982431 -38.31492332 100.3078198 -38.2935133 97.51424217 C-38.29434301 95.55662466 -38.29680626 93.59900723 -38.30082226 91.64139366 C-38.30367475 87.54516607 -38.28903676 83.44948688 -38.26153088 79.3533535 C-38.22751717 74.12823919 -38.23344916 68.90410925 -38.25219345 63.6789484 C-38.26281531 59.63717152 -38.25377759 55.59561956 -38.23880863 51.55386353 C-38.23365977 49.62873886 -38.23406816 47.70359037 -38.24035358 45.77846909 C-38.2661832 33.11055294 -38.17409024 20.02616978 -28.66460705 10.37752342 C-19.86263819 2.96533912 -11.42714579 -0.09382273 0 0 Z M65.33539295 398.37752342 C65.33539295 424.77752342 65.33539295 451.17752342 65.33539295 478.37752342 C86.12539295 478.37752342 106.91539295 478.37752342 128.33539295 478.37752342 C128.50574485 462.85109447 128.50574485 462.85109447 128.63324451 447.32430077 C128.66262252 445.37066362 128.69344978 443.41704749 128.72601795 441.46346092 C128.72714588 440.45775047 128.72827381 439.45204002 128.72943592 438.4158535 C128.85147917 432.41936243 129.36923314 428.95968826 133.33539295 424.37752342 C137.86707228 420.28795915 141.11826641 419.09048641 147.27289295 419.14705467 C150.36026496 419.49204511 152.6783586 420.83273601 155.33539295 422.37752342 C156.82039295 422.87252342 156.82039295 422.87252342 158.33539295 423.37752342 C159.46039295 425.81502342 159.46039295 425.81502342 160.33539295 428.37752342 C160.83039295 429.36752342 160.83039295 429.36752342 161.33539295 430.37752342 C161.45362267 431.91894517 161.51239106 433.46513439 161.54071522 435.0108242 C161.5608971 435.98511375 161.58107899 436.95940331 161.60187244 437.96321678 C161.62658619 439.50247826 161.62658619 439.50247826 161.6517992 441.07283592 C161.67045033 442.01441551 161.68910145 442.9559951 161.70831776 443.92610741 C161.77673999 447.45148178 161.83680909 450.97701427 161.89789295 454.50252342 C162.11445545 466.32064842 162.11445545 466.32064842 162.33539295 478.37752342 C179.49539295 478.37752342 196.65539295 478.37752342 214.33539295 478.37752342 C214.54517938 463.55435291 214.54517938 463.55435291 214.72333241 448.73079491 C214.75564099 446.86171563 214.78901734 444.99265438 214.8236742 443.12361717 C214.8299181 442.16620628 214.83616199 441.20879539 214.8425951 440.22237206 C214.986914 433.46912202 215.83945994 428.4558408 220.21039295 423.06502342 C224.27615413 419.83633072 227.98703651 418.9009458 233.2142992 419.06892967 C237.02663427 419.62357879 240.37723225 420.89788872 243.33539295 423.37752342 C247.64540201 429.38885185 247.93656549 434.28465403 247.94476795 441.56111717 C247.96039783 442.49766136 247.97602772 443.43420555 247.99213123 444.39912987 C248.0444156 447.87083988 248.06294324 451.34299231 248.08539295 454.81502342 C248.16789295 462.59064842 248.25039295 470.36627342 248.33539295 478.37752342 C265.49539295 478.37752342 282.65539295 478.37752342 300.33539295 478.37752342 C300.50564746 463.59939392 300.50564746 463.59939392 300.63324451 448.8208828 C300.66263669 446.95432158 300.69346647 445.08778222 300.72601795 443.22127342 C300.72714588 442.2689785 300.72827381 441.31668358 300.72943592 440.33553123 C300.86562105 433.92486517 302.16599994 429.94644195 305.33539295 424.37752342 C305.33539295 423.71752342 305.33539295 423.05752342 305.33539295 422.37752342 C306.28414295 422.06814842 307.23289295 421.75877342 308.21039295 421.44002342 C311.19619703 420.503576 311.19619703 420.503576 313.33539295 419.37752342 C319.35914706 418.85823428 324.55153803 419.36752739 329.33539295 423.37752342 C333.64540201 429.38885185 333.93656549 434.28465403 333.94476795 441.56111717 C333.96039783 442.49766136 333.97602772 443.43420555 333.99213123 444.39912987 C334.0444156 447.87083988 334.06294324 451.34299231 334.08539295 454.81502342 C334.16789295 462.59064842 334.25039295 470.36627342 334.33539295 478.37752342 C351.49539295 478.37752342 368.65539295 478.37752342 386.33539295 478.37752342 C387.16550366 472.09980203 387.16550366 472.09980203 387.4931078 465.89266014 C387.50336994 465.11180046 387.51363209 464.33094078 387.52420521 463.52641869 C387.53150654 462.71158012 387.53880787 461.89674156 387.54633045 461.05721092 C387.5743751 459.28767004 387.60303936 457.51813889 387.63226795 455.74861717 C387.6736009 452.99259536 387.71054289 450.23676036 387.73676014 447.48055077 C387.76441653 444.79740359 387.81025025 442.1150501 387.85883045 439.43221092 C387.86208332 438.6133239 387.86533619 437.79443687 387.86868763 436.95073509 C387.9735572 432.04762031 388.61069143 428.61585883 391.33539295 424.37752342 C396.65365404 420.2780305 400.61969825 418.82705664 407.33539295 419.37752342 C413.1311572 421.2697972 416.46785565 423.8718518 419.33539295 429.37752342 C420.22775892 432.27811445 420.48118635 434.93501603 420.54071522 437.96248436 C420.5608971 438.87562401 420.58107899 439.78876366 420.60187244 440.7295742 C420.61834827 441.6807412 420.6348241 442.63190819 420.6517992 443.61189842 C420.67045033 444.49248924 420.68910145 445.37308006 420.70831776 446.28035545 C420.77649881 449.56264493 420.83672189 452.84509582 420.89789295 456.12752342 C421.04226795 463.47002342 421.18664295 470.81252342 421.33539295 478.37752342 C438.49539295 478.37752342 455.65539295 478.37752342 473.33539295 478.37752342 C473.4661871 462.94114433 473.4661871 462.94114433 473.54315662 447.50447655 C473.56962351 445.5558816 473.59790533 443.6073101 473.6283617 441.65877342 C473.62237965 440.16555565 473.62237965 440.16555565 473.61627674 438.64217186 C473.74837236 432.11356865 474.87045865 427.32207364 479.33539295 422.37752342 C484.05983302 419.57785523 487.88841989 418.79391917 493.33539295 419.37752342 C499.19576029 421.19625811 501.92969677 423.46931422 505.33539295 428.37752342 C506.28658191 431.29118485 506.48198987 434.0005634 506.54071522 437.05428123 C506.5608971 437.98772362 506.58107899 438.921166 506.60187244 439.88289452 C506.61834827 440.85565331 506.6348241 441.82841209 506.6517992 442.83064842 C506.67045033 443.73089745 506.68910145 444.63114647 506.70831776 445.55867577 C506.77650879 448.91486047 506.83672552 452.27120337 506.89789295 455.62752342 C507.04226795 463.13502342 507.18664295 470.64252342 507.33539295 478.37752342 C524.49539295 478.37752342 541.65539295 478.37752342 559.33539295 478.37752342 C559.54531849 462.80605412 559.54531849 462.80605412 559.72333241 447.23421288 C559.75562575 445.27805742 559.78899995 443.32191938 559.8236742 441.36580467 C559.8299181 440.35497826 559.83616199 439.34415184 559.8425951 438.30269432 C559.94868808 433.12085605 560.09704817 429.65312949 563.33539295 425.37752342 C563.33539295 424.71752342 563.33539295 424.05752342 563.33539295 423.37752342 C564.65877927 422.69132311 565.99489243 422.02965881 567.33539295 421.37752342 C568.44914295 420.82064842 568.44914295 420.82064842 569.58539295 420.25252342 C575.85070758 418.25901422 580.65143908 419.12187459 586.47601795 421.72127342 C590.91003202 425.6708994 592.54616207 430.8517139 592.88129139 436.60017967 C592.92175725 438.54648863 592.9425133 440.49329515 592.94476795 442.44002342 C592.96039783 443.35590233 592.97602772 444.27178123 592.99213123 445.21541405 C593.04431832 448.60252447 593.06292619 451.99008549 593.08539295 455.37752342 C593.20914295 466.76252342 593.20914295 466.76252342 593.33539295 478.37752342 C610.49539295 478.37752342 627.65539295 478.37752342 645.33539295 478.37752342 C645.50564746 463.59939392 645.50564746 463.59939392 645.63324451 448.8208828 C645.66263669 446.95432158 645.69346647 445.08778222 645.72601795 443.22127342 C645.72770985 441.79283104 645.72770985 441.79283104 645.72943592 440.33553123 C645.86562105 433.92486517 647.16599994 429.94644195 650.33539295 424.37752342 C650.33539295 423.71752342 650.33539295 423.05752342 650.33539295 422.37752342 C657.3582085 419.70216512 663.28536218 417.84203977 670.52289295 420.94002342 C674.67183313 422.84126892 676.70934832 426.24683187 678.33539295 430.37752342 C678.9195691 434.10654772 678.94051878 437.79164814 678.94476795 441.56111717 C678.96039783 442.49766136 678.97602772 443.43420555 678.99213123 444.39912987 C679.0444156 447.87083988 679.06294324 451.34299231 679.08539295 454.81502342 C679.20914295 466.47846092 679.20914295 466.47846092 679.33539295 478.37752342 C696.49539295 478.37752342 713.65539295 478.37752342 731.33539295 478.37752342 C731.54510429 463.92850255 731.54510429 463.92850255 731.72333241 449.47908592 C731.75564916 447.65354473 731.78902664 445.82802187 731.8236742 444.00252342 C731.8299181 443.0718203 731.83616199 442.14111717 731.8425951 441.18221092 C731.99226026 434.33208192 732.64245124 428.07046514 737.71039295 423.00252342 C742.7062869 419.90982717 746.39130504 418.77303991 752.33539295 419.37752342 C757.21978515 420.98736055 760.61704777 422.9802024 763.47145557 427.39525414 C765.29645733 431.58264668 764.93983283 436.18737434 764.94476795 440.68221092 C764.96039783 441.63942039 764.97602772 442.59662987 764.99213123 443.58284569 C765.04450858 447.13915511 765.06295946 450.69589907 765.08539295 454.25252342 C765.20914295 466.19439842 765.20914295 466.19439842 765.33539295 478.37752342 C782.82539295 478.37752342 800.31539295 478.37752342 818.33539295 478.37752342 C818.50570361 462.89613862 818.50570361 462.89613862 818.63324451 447.41438866 C818.66262853 445.46327435 818.69345686 443.51218104 818.72601795 441.56111717 C818.72770985 440.06022545 818.72770985 440.06022545 818.72943592 438.52901268 C818.85652851 432.28520153 819.67015016 428.48417317 823.33539295 423.37752342 C826.76377528 420.55706043 830.48557483 419.49892601 834.83539295 418.87752342 C840.85697309 419.73774916 844.95877416 421.64792545 848.77289295 426.44002342 C850.7286871 430.11691642 851.46200983 432.83683193 851.54071522 436.94075584 C851.5608971 437.87431908 851.58107899 438.80788231 851.60187244 439.76973534 C851.61834827 440.74761009 851.6348241 441.72548485 851.6517992 442.73299217 C851.67977589 444.08487633 851.67977589 444.08487633 851.70831776 445.46407127 C851.77661987 448.83095553 851.83676577 452.19800126 851.89789295 455.56502342 C852.04226795 463.09314842 852.18664295 470.62127342 852.33539295 478.37752342 C872.79539295 478.37752342 893.25539295 478.37752342 914.33539295 478.37752342 C914.33539295 451.97752342 914.33539295 425.57752342 914.33539295 398.37752342 C634.16539295 398.37752342 353.99539295 398.37752342 65.33539295 398.37752342 Z " fill="#212021" transform="translate(76.66460704803467,310.6224765777588)"/>
<path d="M0 0 C1.18853577 -0.00960754 2.37707153 -0.01921509 3.60162354 -0.02911377 C4.87358582 -0.03336365 6.1455481 -0.03761353 7.45605469 -0.04199219 C8.43855824 -0.04623325 8.43855824 -0.04623325 9.44091034 -0.05056 C12.90836482 -0.06549954 16.37577827 -0.07476161 19.84326172 -0.07910156 C23.39809367 -0.08457381 26.95254022 -0.1085901 30.50725174 -0.13707352 C33.26474047 -0.15583215 36.02213886 -0.16091249 38.77968597 -0.16243744 C40.71931925 -0.16687943 42.65890389 -0.18545916 44.59844971 -0.20440674 C55.80811555 -0.17639902 65.20245629 1.74110826 73.87792969 9.16113281 C81.33294051 17.1083191 84.97983713 25.1621006 85.02510071 36.10375977 C85.03225601 37.29507004 85.03941132 38.48638031 85.04678345 39.71379089 C85.04947235 41.01254654 85.05216125 42.31130219 85.05493164 43.64941406 C85.06120178 45.03790963 85.06784907 46.42640353 85.07484436 47.81489563 C85.09582991 52.36779627 85.10624482 56.92069701 85.11621094 61.47363281 C85.12026121 63.04620379 85.12437821 64.61877459 85.12856102 66.19134521 C85.14760432 73.58476309 85.16183451 80.97817106 85.17017299 88.37160873 C85.17992829 96.87888258 85.20620657 105.38589505 85.24667388 113.8930769 C85.27694479 120.48526053 85.2916524 127.07736974 85.294954 133.66962147 C85.2972929 137.59868299 85.30609987 141.52746506 85.33141518 145.45645142 C85.3548927 149.16003345 85.35885137 152.86315595 85.34865379 156.56679344 C85.34793133 158.55265144 85.36688525 160.53848713 85.38671875 162.52424622 C85.32977172 172.47932238 83.96487725 183.56945714 77.48730469 191.60644531 C67.43390264 201.3182269 58.1766654 203.62441784 44.61621094 203.77832031 C43.22005311 203.80284234 41.82390933 203.82817643 40.42778015 203.85427856 C37.50700325 203.90549946 34.58631757 203.94618798 31.6652832 203.97949219 C27.95445429 204.02273439 24.24473897 204.09314825 20.53451252 204.17181206 C17.65098735 204.22965924 14.76738143 204.27217367 11.88353539 204.3103981 C9.86079277 204.33998536 7.83825315 204.38255776 5.81575012 204.42550659 C-7.55839474 204.53783363 -18.12182553 202.43320443 -28.12207031 193.16113281 C-36.50566257 183.49433766 -37.56860167 173.32564278 -37.52612305 160.91162109 C-37.53183528 159.48973049 -37.53880282 158.06784448 -37.54692078 156.64596558 C-37.56477455 152.80697255 -37.56369843 148.96820908 -37.55797839 145.12918711 C-37.5548748 141.91374109 -37.56099203 138.69833842 -37.56701714 135.48289859 C-37.5810356 127.89139398 -37.57952384 120.30000196 -37.56811523 112.70849609 C-37.55664024 104.90072574 -37.57070526 97.09329914 -37.59751171 89.28557408 C-37.61973043 82.5599865 -37.62629213 75.83450633 -37.6204353 69.10888469 C-37.61707879 65.10173294 -37.619393 61.09480139 -37.63668633 57.08768082 C-37.65225204 53.31670811 -37.64809468 49.54624105 -37.62938118 45.77528763 C-37.62398978 43.74856 -37.63813635 41.72180913 -37.65307617 39.69512939 C-37.56253114 28.36490011 -35.10547422 18.52994243 -27.12207031 10.16113281 C-19.04331871 2.92151834 -10.85138867 0.07123174 0 0 Z M-2.12207031 34.16113281 C-2.45207031 78.71113281 -2.78207031 123.26113281 -3.12207031 169.16113281 C14.36792969 169.16113281 31.85792969 169.16113281 49.87792969 169.16113281 C49.87792969 124.94113281 49.87792969 80.72113281 49.87792969 35.16113281 C34.37165855 27.40799725 15.21446785 34.16113281 -2.12207031 34.16113281 Z " fill="#252425" transform="translate(441.1220703125,407.8388671875)"/>
<path d="M0 0 C1.18853577 -0.00960754 2.37707153 -0.01921509 3.60162354 -0.02911377 C4.87358582 -0.03336365 6.1455481 -0.03761353 7.45605469 -0.04199219 C8.43855824 -0.04623325 8.43855824 -0.04623325 9.44091034 -0.05056 C12.90836482 -0.06549954 16.37577827 -0.07476161 19.84326172 -0.07910156 C23.39809367 -0.08457381 26.95254022 -0.1085901 30.50725174 -0.13707352 C33.26474047 -0.15583215 36.02213886 -0.16091249 38.77968597 -0.16243744 C40.71931925 -0.16687943 42.65890389 -0.18545916 44.59844971 -0.20440674 C56.84105542 -0.17381819 66.52270744 2.33011349 75.63183594 10.79003906 C81.94677907 17.6114438 84.99235824 25.87462506 85.01837158 35.07962036 C85.02408173 36.29071976 85.02979187 37.50181915 85.03567505 38.74961853 C85.03692033 40.08877553 85.03804544 41.42793265 85.0390625 42.76708984 C85.04369287 44.18000925 85.04871783 45.59292741 85.05410767 47.00584412 C85.06721582 50.84293271 85.07367396 54.68000382 85.07811832 58.5171113 C85.08105267 60.91729243 85.08515824 63.31746882 85.0896225 65.71764755 C85.10329559 73.23547281 85.11296218 80.75328718 85.11682439 88.27112401 C85.12129956 96.93347032 85.13882303 105.5956584 85.16782498 114.25795662 C85.18949011 120.96302457 85.1995313 127.66804816 85.20086551 134.37315071 C85.20191043 138.37305723 85.20775079 142.37281498 85.22568512 146.37268448 C85.24224875 150.14020828 85.24428147 153.90747282 85.23554611 157.67502022 C85.23441709 159.70319134 85.24807172 161.73135417 85.26229858 163.75947571 C85.20451243 176.50153088 82.53260627 185.58990194 73.87792969 195.16113281 C67.67088315 200.41405564 61.27603146 203.3590288 53.06298828 203.49584961 C51.94097015 203.51894699 50.81895203 203.54204437 49.66293335 203.56584167 C47.8628331 203.58787407 47.8628331 203.58787407 46.02636719 203.61035156 C44.77594635 203.63208939 43.52552551 203.65382721 42.23721313 203.67622375 C39.59282773 203.72008709 36.94869994 203.76030484 34.30419922 203.79418945 C31.61393331 203.82888792 28.92393381 203.87038076 26.23388672 203.91918945 C22.33145769 203.98985959 18.4289943 204.05173378 14.52636719 204.11035156 C12.74448502 204.141493 12.74448502 204.141493 10.92660522 204.17326355 C-10.11912029 204.42488491 -10.11912029 204.42488491 -17.55957031 200.34863281 C-18.50703125 199.8471875 -19.45449219 199.34574219 -20.43066406 198.82910156 C-24.9715979 196.0149089 -28.39866708 193.22655819 -31.30957031 188.72363281 C-31.798125 187.98242188 -32.28667969 187.24121094 -32.79003906 186.47753906 C-36.36421972 180.26202841 -37.24421828 174.21676959 -37.25578308 167.10929871 C-37.26004807 165.91924728 -37.26431305 164.72919586 -37.26870728 163.50308228 C-37.26825409 162.21098846 -37.2678009 160.91889465 -37.26733398 159.58764648 C-37.27032876 158.20236623 -37.27373202 156.81708681 -37.2775116 155.43180847 C-37.2863238 151.67960854 -37.28868855 147.92743144 -37.28932738 144.17522216 C-37.29003951 141.82763607 -37.29217691 139.48005574 -37.2948246 137.13247108 C-37.30406909 128.93295551 -37.30816064 120.73345616 -37.30737305 112.53393555 C-37.30677262 104.90635591 -37.31731992 97.27884708 -37.33311671 89.65128535 C-37.34621865 83.08971583 -37.35155582 76.52816938 -37.35091764 69.96658689 C-37.35066341 66.05341017 -37.35347264 62.14029641 -37.36409569 58.2271328 C-37.37382136 54.54416472 -37.37382543 50.86131919 -37.36657906 47.17834663 C-37.36504538 45.19414802 -37.3733488 43.20994931 -37.38201904 41.22576904 C-37.3397779 29.15600901 -35.61462224 19.32344273 -27.26660156 10.11425781 C-19.34624729 2.71560352 -10.723982 0.0703954 0 0 Z M-2.12207031 35.16113281 C-2.21834145 36.89472879 -2.24394599 38.63227927 -2.24232483 40.36854553 C-2.24369949 41.49741684 -2.24507416 42.62628815 -2.24649048 43.78936768 C-2.2428952 45.03877136 -2.23929993 46.28817505 -2.2355957 47.57543945 C-2.23574173 48.88256393 -2.23588776 50.18968842 -2.23603821 51.53642273 C-2.23632618 55.1313038 -2.23042959 58.72615178 -2.22346425 62.32102513 C-2.21723057 66.07399533 -2.2166269 69.82696622 -2.21543884 73.5799408 C-2.21232557 80.69144108 -2.20411224 87.80292606 -2.19408935 94.91441959 C-2.18292809 103.00860348 -2.17741773 111.10278808 -2.17239392 119.19697773 C-2.16192962 135.85170647 -2.14358419 152.50641413 -2.12207031 169.16113281 C15.03792969 169.16113281 32.19792969 169.16113281 49.87792969 169.16113281 C51.16911602 166.57876015 50.98472933 164.76349108 50.96022034 161.87142944 C50.95318085 160.74959763 50.94614136 159.62776581 50.93888855 158.47193909 C50.92594254 157.23548141 50.91299652 155.99902374 50.8996582 154.72509766 C50.89005066 153.42758072 50.88044312 152.13006378 50.87054443 150.79322815 C50.84404038 147.2293623 50.81126563 143.66557807 50.77739453 140.10177565 C50.74307429 136.37953508 50.71448001 132.65725072 50.68528748 128.93496704 C50.62911196 121.88367635 50.5677607 114.83244049 50.50456613 107.78120959 C50.43288214 99.75474598 50.36694338 91.72823842 50.30149567 83.70172191 C50.16671576 67.18813469 50.02469342 50.67461796 49.87792969 34.16113281 C42.63306418 34.13586542 35.38820995 34.11830101 28.14331055 34.10620117 C25.67650935 34.10115925 23.20971116 34.09432591 20.74291992 34.08569336 C17.2058844 34.07362157 13.66888823 34.06790325 10.13183594 34.06347656 C9.02143448 34.05831528 7.91103302 34.05315399 6.76698303 34.0478363 C5.74600021 34.04776077 4.7250174 34.04768524 3.6730957 34.04760742 C2.31741234 34.0442765 2.31741234 34.0442765 0.93434143 34.0408783 C-1.11460612 33.93212819 -1.11460612 33.93212819 -2.12207031 35.16113281 Z " fill="#222122" transform="translate(644.1220703125,407.8388671875)"/>
<path d="M0 0 C1.35180823 -0.00202706 2.70361538 -0.00494373 4.05541992 -0.00869751 C6.87266571 -0.01309122 9.6896239 -0.00678635 12.50683594 0.00732422 C16.09076339 0.02441476 19.67401651 0.01455752 23.25791931 -0.00339317 C26.04460594 -0.01431173 28.83113665 -0.01074807 31.61782837 -0.0030098 C33.57294155 -0.00007806 35.52806116 -0.00907696 37.4831543 -0.0184021 C49.73556983 0.07749223 59.44562946 2.55660005 68.56640625 11.02734375 C74.89328752 17.86164407 77.92245737 26.12913052 77.95967102 35.34815979 C77.96682632 36.56622818 77.97398163 37.78429657 77.98135376 39.03927612 C77.98419385 40.38629125 77.9869056 41.73330665 77.98950195 43.08032227 C77.99576984 44.50147161 78.00241693 45.92261932 78.00941467 47.34376526 C78.03042539 52.00911322 78.04081686 56.67446138 78.05078125 61.33984375 C78.05483045 62.94929458 78.05894742 64.55874524 78.06313133 66.16819572 C78.08217943 73.73354036 78.09640913 81.29887528 78.1047433 88.86423928 C78.11450322 97.57869212 78.14079162 106.29289012 78.18124419 115.00725323 C78.21148061 121.75394891 78.22621944 128.50057187 78.22952431 135.24733394 C78.23186696 139.27135884 78.24072377 143.29511138 78.26598549 147.31906319 C78.28940237 151.11044579 78.29344543 154.90137938 78.28322411 158.69281578 C78.28249889 160.73154952 78.30149556 162.77026115 78.32128906 164.80889893 C78.25844415 176.01165464 75.91665753 186.22530842 67.8125 194.3984375 C56.4644697 203.75039732 45.80822138 204.55210794 31.60546875 204.56640625 C29.8637011 204.57139885 29.8637011 204.57139885 28.08674622 204.57649231 C25.6384826 204.58153761 23.19021216 204.58390138 20.74194336 204.58374023 C17.02250687 204.58592428 13.30336841 204.6040993 9.58398438 204.62304688 C7.1953135 204.62598189 4.80664124 204.62796596 2.41796875 204.62890625 C0.76899849 204.63968452 0.76899849 204.63968452 -0.9132843 204.65068054 C-14.00296754 204.61248868 -24.54839355 202.79378132 -34.4375 193.7734375 C-41.71473582 186.10401532 -44.30409397 176.79270821 -44.32121277 166.42253113 C-44.32547775 165.24930801 -44.32974274 164.0760849 -44.33413696 162.86730957 C-44.33368378 161.59391724 -44.33323059 160.3205249 -44.33276367 159.00854492 C-44.33575853 157.64296884 -44.33916181 156.2773936 -44.34294128 154.91181946 C-44.35175264 151.21333676 -44.3541182 147.51487721 -44.35475707 143.81638503 C-44.35546924 141.50230085 -44.35760674 139.18822251 -44.36025429 136.87413979 C-44.36949851 128.79133355 -44.37359037 120.70854377 -44.37280273 112.62573242 C-44.37220232 105.1072155 -44.38274945 97.58877042 -44.3985464 90.07027167 C-44.4116492 83.60211959 -44.41698548 77.13399091 -44.41634732 70.66582566 C-44.41609313 66.80853994 -44.41890098 62.95131807 -44.42952538 59.09404564 C-44.43925249 55.46360665 -44.43925414 51.83329197 -44.43200874 48.20284843 C-44.43047541 46.24727649 -44.43877748 44.29170444 -44.44744873 42.33615112 C-44.40327899 29.89253258 -42.47071007 19.42988555 -33.875 9.99609375 C-24.28307748 0.91485229 -12.6535987 -0.06035341 0 0 Z M-9.1875 35.3984375 C-9.1875 79.6184375 -9.1875 123.8384375 -9.1875 169.3984375 C7.9725 169.3984375 25.1325 169.3984375 42.8125 169.3984375 C44.49652726 167.71441024 43.93857913 165.62753744 43.93948364 163.31837463 C43.94230347 162.21763611 43.94512329 161.11689758 43.94802856 159.98280334 C43.94600433 158.76459396 43.9439801 157.54638458 43.94189453 156.29125977 C43.94364685 155.01660858 43.94539917 153.7419574 43.94720459 152.42868042 C43.95177878 148.92250922 43.94998931 145.41636732 43.9468255 141.91019559 C43.94430128 138.2475789 43.94663967 134.5849648 43.94821167 130.92234802 C43.95003341 124.7694351 43.94762717 118.61653415 43.94287109 112.46362305 C43.93743088 105.3432855 43.93918936 98.22297659 43.9446975 91.10263973 C43.94923137 84.99817775 43.94987776 78.8937244 43.94725883 72.78926128 C43.94569726 69.13950216 43.94549898 65.48975651 43.94879532 61.83999825 C43.9522127 57.77165142 43.94747979 53.70335418 43.94189453 49.63500977 C43.94391876 48.41882462 43.94594299 47.20263947 43.94802856 45.94960022 C43.94520874 44.84604187 43.94238892 43.74248352 43.93948364 42.60548401 C43.93910662 41.64258737 43.93872959 40.67969072 43.93834114 39.68761539 C43.96292682 37.36808706 43.96292682 37.36808706 42.8125 35.3984375 C25.6525 35.3984375 8.4925 35.3984375 -9.1875 35.3984375 Z " fill="#252324" transform="translate(854.1875,407.6015625)"/>
<path d="M0 0 C1.19506668 -0.00637985 2.39013336 -0.0127597 3.62141418 -0.01933289 C4.90481186 -0.02044571 6.18820953 -0.02155853 7.51049805 -0.02270508 C8.85182225 -0.02592228 10.19314612 -0.0292867 11.5344696 -0.03279114 C14.34281222 -0.03876767 17.15112413 -0.0406326 19.95947266 -0.04003906 C23.54022698 -0.03993762 27.12078221 -0.05357734 30.70148945 -0.07081127 C33.47176499 -0.08198644 36.24199328 -0.08395657 39.01228905 -0.08342934 C40.96860095 -0.08516785 42.92489809 -0.09597442 44.88117981 -0.10697937 C55.85991426 -0.07893715 66.47609356 1.37792643 75.01049805 8.96948242 C85.05689731 19.91941224 86.26241409 31.57359305 86.234375 45.95166016 C86.2387302 47.32591019 86.24391602 48.70015779 86.24986267 50.07440186 C86.26317612 53.78312745 86.26384001 57.49175067 86.26129937 61.20049548 C86.26022459 64.30667303 86.26512587 67.41283028 86.26990479 70.51900345 C86.28097319 77.8515518 86.28145224 85.18404891 86.27539062 92.51660156 C86.26935056 100.05962956 86.28166875 107.60247103 86.30296069 115.14546722 C86.32062023 121.64257852 86.32657127 128.13963067 86.32332295 134.63676506 C86.32151711 138.50803684 86.32407609 142.37917549 86.33803749 146.25042534 C86.35068266 149.89245594 86.34860921 153.53419721 86.3356266 157.17622375 C86.33216266 159.13515489 86.34338886 161.09409515 86.35519409 163.05299377 C86.28627018 174.71800719 84.05232698 184.55800592 75.98706055 193.27807617 C64.82087785 203.95192277 52.44184476 204.29650701 37.72143555 204.31323242 C36.67881058 204.31656082 35.63618561 204.31988922 34.56196594 204.32331848 C32.36944007 204.32835057 30.17690664 204.33072797 27.984375 204.33056641 C24.66677984 204.33275079 21.34951887 204.35094099 18.03198242 204.36987305 C-14.9226205 204.45861181 -14.9226205 204.45861181 -27.14575195 193.34448242 C-33.08923251 186.44514314 -36.15549266 178.18003147 -36.1807251 169.18881226 C-36.18643524 167.96929871 -36.19214539 166.74978516 -36.19802856 165.49331665 C-36.19927385 164.14471446 -36.20039896 162.79611215 -36.20141602 161.44750977 C-36.20604635 160.02473828 -36.2110713 158.60196803 -36.21646118 157.17919922 C-36.2295697 153.31525197 -36.23602755 149.45132209 -36.24047184 145.58735609 C-36.24340611 143.17042401 -36.24751167 140.75349663 -36.25197601 138.33656693 C-36.26564918 130.76641594 -36.27531574 123.19627577 -36.2791779 115.6261133 C-36.28365315 106.90320692 -36.30117693 98.18045767 -36.3301785 89.45759904 C-36.35184288 82.70582238 -36.36188478 75.95408976 -36.36321902 69.20227873 C-36.36426399 65.17442697 -36.37010544 61.14672293 -36.38803864 57.11890793 C-36.40460097 53.32511984 -36.4066356 49.53158922 -36.39789963 45.73777771 C-36.3971335 44.35194328 -36.40141552 42.96609454 -36.41135788 41.58029556 C-36.49648592 28.96617683 -34.96811242 19.44731328 -26.0402832 10.14526367 C-18.3557178 3.23066455 -10.36127775 0.03767086 0 0 Z M-2.0402832 35.14526367 C-2.0402832 79.36526367 -2.0402832 123.58526367 -2.0402832 169.14526367 C15.4497168 169.14526367 32.9397168 169.14526367 50.9597168 169.14526367 C50.9597168 124.92526367 50.9597168 80.70526367 50.9597168 35.14526367 C33.4697168 35.14526367 15.9797168 35.14526367 -2.0402832 35.14526367 Z " fill="#252324" transform="translate(237.040283203125,407.854736328125)"/>
<path d="M0 0 C1.28543198 -0.00145523 2.57086395 -0.00291046 3.89524841 -0.00440979 C6.60607587 -0.00578858 9.31637088 0.00667697 12.02709961 0.02954102 C15.4893572 0.05795357 18.95073323 0.05517411 22.41305637 0.0424509 C25.73379543 0.03379761 29.05427579 0.04894836 32.375 0.0625 C34.23143883 0.05809654 34.23143883 0.05809654 36.12538147 0.05360413 C43.78902584 0.13753514 48.64498762 0.65526517 54.37109375 6.12109375 C57.71927727 10.52373767 59.0283615 15.37198925 58.3125 20.86328125 C56.72894386 26.70571817 53.70088336 30.26350036 48.62109375 33.49609375 C45.50262996 34.53558168 43.26469616 34.64758699 39.99145508 34.68896484 C38.83627884 34.70502777 37.6811026 34.7210907 36.49092102 34.73764038 C31.20284568 34.78216266 25.91491816 34.82359968 20.62670898 34.84619141 C17.83991473 34.8595036 15.05385744 34.88730695 12.26733398 34.92822266 C8.24580676 34.98726094 4.22506335 35.00488098 0.203125 35.01953125 C-1.03672653 35.04220062 -2.27657806 35.06487 -3.55400085 35.08822632 C-10.72605927 35.07076968 -15.94881792 34.46066789 -21.37890625 29.49609375 C-25.1470604 25.06733686 -26.08832124 20.77603213 -25.82421875 14.9921875 C-24.81541052 9.33755189 -22.1313424 5.81018959 -17.60400391 2.4152832 C-12.12231094 -0.63195198 -6.10581975 -0.05551356 0 0 Z " fill="#232223" transform="translate(784.37890625,310.50390625)"/>
<path d="M0 0 C1.28455078 -0.02384766 2.56910156 -0.04769531 3.89257812 -0.07226562 C11.30448392 -0.06080982 16.98208373 0.34700306 22.5625 5.5625 C26.32638215 9.99794074 27.27214559 14.27751164 27.0078125 20.06640625 C25.99193602 25.76066126 23.24521366 29.23665398 18.78125 32.75390625 C13.06180683 35.84428079 6.44387404 35.1787373 0.125 35.125 C-1.15955078 35.14884766 -2.44410156 35.17269531 -3.76757812 35.19726562 C-11.17948392 35.18580982 -16.85708373 34.77799694 -22.4375 29.5625 C-26.20138215 25.12705926 -27.14714559 20.84748836 -26.8828125 15.05859375 C-25.86693602 9.36433874 -23.12021366 5.88834602 -18.65625 2.37109375 C-12.93680683 -0.71928079 -6.31887404 -0.0537373 0 0 Z " fill="#232223" transform="translate(697.4375,310.4375)"/>
<path d="M0 0 C0.33 0 0.66 0 1 0 C1 46.53 1 93.06 1 141 C0.01 140.67 -0.98 140.34 -2 140 C-3.01101077 136.9669677 -3.13047324 134.92396662 -3.14044189 131.7510376 C-3.14615204 130.6631897 -3.15186218 129.5753418 -3.15774536 128.45452881 C-3.15886322 127.26071594 -3.15998108 126.06690308 -3.16113281 124.83691406 C-3.16609772 123.57975586 -3.17106262 122.32259766 -3.17617798 121.02734375 C-3.18929455 117.57674874 -3.19574572 114.12617318 -3.20018864 110.67555714 C-3.20312114 108.51846112 -3.20722634 106.36137039 -3.21169281 104.20427704 C-3.22536707 97.45158483 -3.23503353 90.69890475 -3.2388947 83.94619966 C-3.24337254 76.15825348 -3.26090786 68.37048308 -3.2898953 60.58259034 C-3.31153634 54.55868747 -3.32160031 48.53483395 -3.32293582 42.51089263 C-3.32398231 38.91515453 -3.32985642 35.31958166 -3.34775543 31.72388458 C-3.36735025 27.70936992 -3.36293753 23.69522131 -3.35644531 19.68066406 C-3.3656601 18.49494812 -3.37487488 17.30923218 -3.3843689 16.08758545 C-3.35322476 9.94098272 -2.96381294 5.43024981 0 0 Z " fill="#191919" transform="translate(524,438)"/>
<path d="M0 0 C2.475 0.495 2.475 0.495 5 1 C5 2.65 5 4.3 5 6 C3.68 6 2.36 6 1 6 C1 49.23 1 92.46 1 137 C0.34 137 -0.32 137 -1 137 C-1 93.11 -1 49.22 -1 4 C-26.245 4.495 -26.245 4.495 -52 5 C-52.33 49.22 -52.66 93.44 -53 139 C-35.51 138.67 -18.02 138.34 0 138 C0 138.66 0 139.32 0 140 C-17.82 140 -35.64 140 -54 140 C-54.15301368 122.17199805 -54.30184392 104.34397804 -54.4429636 86.51587868 C-54.50861975 78.23842493 -54.57618153 69.96099485 -54.64819336 61.68359375 C-54.71093688 54.47098738 -54.77014174 47.25836224 -54.82505554 40.04569185 C-54.85427016 36.22486713 -54.885285 32.40407576 -54.92053413 28.58330154 C-54.9536292 24.98996308 -54.98200679 21.3966188 -55.00670624 17.80321312 C-55.02137872 15.84979312 -55.04110707 13.89641317 -55.06095886 11.94303894 C-55.06799835 10.78755051 -55.07503784 9.63206207 -55.08229065 8.44155884 C-55.09058679 7.43311731 -55.09888292 6.42467579 -55.10743046 5.38567543 C-55 3 -55 3 -54 1 C-53.34 1 -52.68 1 -52 1 C-52 1.66 -52 2.32 -52 3 C-34.84 2.67 -17.68 2.34 0 2 C0 1.34 0 0.68 0 0 Z " fill="#6E6D6D" transform="translate(695,438)"/>
<path d="M0 0 C2.29172826 3.43759239 2.24769661 4.6706542 2.24050903 8.71366882 C2.24325836 9.90418854 2.24600769 11.09470825 2.24884033 12.32130432 C2.24164978 13.62897263 2.23445923 14.93664093 2.22705078 16.28393555 C2.22648669 17.67352287 2.22680318 19.06311078 2.22793579 20.45269775 C2.2285104 24.22724518 2.21673859 28.0016659 2.20278788 31.77618384 C2.19029858 35.71998947 2.18911144 39.66379789 2.18673706 43.60762024 C2.18051699 51.0767759 2.16409906 58.54587312 2.14403808 66.01500303 C2.12169546 74.51792558 2.11068978 83.0208509 2.10064721 91.52379549 C2.07973328 109.01589748 2.04454707 126.50794256 2 144 C1.67 144 1.34 144 1 144 C0.67 142.02 0.34 140.04 0 138 C-0.33 138 -0.66 138 -1 138 C-1.02333631 120.30234606 -1.04098278 102.6046961 -1.05181217 84.90703011 C-1.05697357 76.69013073 -1.0640133 68.4732409 -1.07543945 60.25634766 C-1.08539105 53.09645134 -1.09185457 45.93656193 -1.09408849 38.77665889 C-1.09539479 34.9837991 -1.09847554 31.19095909 -1.10573006 27.39810562 C-1.11249776 23.83100024 -1.11461542 20.26392286 -1.11310768 16.69681168 C-1.11351565 14.75773004 -1.11890696 12.81865148 -1.12442017 10.87957764 C-1.1230455 9.73250336 -1.12167084 8.58542908 -1.12025452 7.40359497 C-1.12117631 6.40252779 -1.1220981 5.40146061 -1.12304783 4.37005806 C-1 2 -1 2 0 0 Z " fill="#161415" transform="translate(320,435)"/>
<path d="M0 0 C0.33 0 0.66 0 1 0 C1 50.49 1 100.98 1 153 C0.67 153 0.34 153 0 153 C0 102.51 0 52.02 0 0 Z M-2 152 C-1.34 152.66 -0.68 153.32 0 154 C-0.66 155.32 -1.32 156.64 -2 158 C-2.33 158 -2.66 158 -3 158 C-3.042721 156.33388095 -3.04063832 154.66617115 -3 153 C-2.67 152.67 -2.34 152.34 -2 152 Z " fill="#1B191A" transform="translate(44,517)"/>
<path d="M0 0 C0.33 0 0.66 0 1 0 C1 14.52 1 29.04 1 44 C0.67 44 0.34 44 0 44 C-0.33 46.64 -0.66 49.28 -1 52 C-1.33 52 -1.66 52 -2 52 C-2.05081435 45.55879087 -2.08578161 39.11763368 -2.10986328 32.67626953 C-2.11990526 30.48614571 -2.13354147 28.29603525 -2.15087891 26.10595703 C-2.17520627 22.95341694 -2.18650131 19.80105452 -2.1953125 16.6484375 C-2.20563507 15.67321136 -2.21595764 14.69798523 -2.22659302 13.69320679 C-2.22740948 8.71808837 -1.97323633 4.66339243 0 0 Z " fill="#383838" transform="translate(293,737)"/>
<path d="M0 0 C1.5910833 0.03014442 1.5910833 0.03014442 3.21430969 0.06089783 C4.34781357 0.08793289 5.48131744 0.11496796 6.64916992 0.14282227 C7.81848557 0.16643326 8.98780121 0.19004425 10.19255066 0.21437073 C13.92170832 0.29085038 17.65065008 0.37494266 21.37963867 0.45922852 C23.91022712 0.51246489 26.44082606 0.56520518 28.97143555 0.61743164 C35.1701364 0.74644433 41.3686773 0.88170512 47.56713867 1.02172852 C47.56713867 1.35172852 47.56713867 1.68172852 47.56713867 2.02172852 C32.05713867 2.02172852 16.54713867 2.02172852 0.56713867 2.02172852 C0.56713867 3.01172852 0.56713867 4.00172852 0.56713867 5.02172852 C-3.72286133 4.36172852 -8.01286133 3.70172852 -12.43286133 3.02172852 C-8.95913729 -0.45199552 -4.70252146 -0.10100881 0 0 Z " fill="#272727" transform="translate(845.432861328125,606.978271484375)"/>
<path d="M0 0 C0 0.66 0 1.32 0 2 C-5.71898316 3.2581763 -11.27267666 3.03314172 -17.0859375 2.87890625 C-18.67131821 2.84348976 -18.67131821 2.84348976 -20.28872681 2.80735779 C-23.65096524 2.73103441 -27.01295495 2.64687565 -30.375 2.5625 C-32.66014424 2.50924795 -34.94530048 2.45650778 -37.23046875 2.40429688 C-42.82046502 2.27546184 -48.41027784 2.14020018 -54 2 C-54 1.67 -54 1.34 -54 1 C-47.27394436 0.85669881 -40.54786833 0.71438625 -33.82177734 0.57275391 C-31.53466317 0.52447794 -29.24755373 0.47597748 -26.96044922 0.42724609 C-23.66895756 0.35715349 -20.37744963 0.28787398 -17.0859375 0.21875 C-15.55747696 0.18593933 -15.55747696 0.18593933 -13.99813843 0.15246582 C-9.33114531 0.05519092 -4.66834423 -0.02766426 0 0 Z " fill="#1B1B1B" transform="translate(292,609)"/>
<path d="M0 0 C0.99 1.32 1.98 2.64 3 4 C2.01 4 1.02 4 0 4 C0 4.66 0 5.32 0 6 C-0.66 6 -1.32 6 -2 6 C-1.2236068 9.0745356 -1.2236068 9.0745356 1 11 C0.34 11.66 -0.32 12.32 -1 13 C-3.00636471 12.70740515 -5.00714063 12.37366113 -7 12 C-7.99 12.495 -7.99 12.495 -9 13 C-7.47987323 7.59510481 -3.72614782 4.01507372 0 0 Z " fill="#2F2F2F" transform="translate(213,416)"/>
<path d="M0 0 C2.31 0.66 4.62 1.32 7 2 C7 2.66 7 3.32 7 4 C7.66 4.33 8.32 4.66 9 5 C5.14243493 7.15305957 2.44870215 8.39253254 -2 8 C-2.125 5.125 -2.125 5.125 -2 2 C-1.34 1.34 -0.68 0.68 0 0 Z " fill="#222021" transform="translate(80,518)"/>
<path d="M0 0 C1.32 0.33 2.64 0.66 4 1 C4.33 2.65 4.66 4.3 5 6 C4.21625 6.226875 3.4325 6.45375 2.625 6.6875 C-0.21875 7.78125 -0.21875 7.78125 -1.3125 10.625 C-1.539375 11.40875 -1.76625 12.1925 -2 13 C-4 10 -4 10 -3.8125 7.625 C-2.92236094 4.74916613 -1.64861989 2.50876939 0 0 Z " fill="#2D2B2C" transform="translate(382,733)"/>
<path d="M0 0 C0.99 0 1.98 0 3 0 C2.69320312 0.82757813 2.38640625 1.65515625 2.0703125 2.5078125 C0.91530952 6.27632587 0.33583986 9.97674804 -0.125 13.875 C-0.21136719 14.56335938 -0.29773438 15.25171875 -0.38671875 15.9609375 C-0.59659566 17.63995275 -0.79907087 19.31989048 -1 21 C-1.66 20.67 -2.32 20.34 -3 20 C-3.35482211 12.78528371 -2.1591338 6.87581298 0 0 Z " fill="#393738" transform="translate(1018,448)"/>
<path d="M0 0 C0.66 0.33 1.32 0.66 2 1 C1.57742724 2.4835001 1.13643678 3.96176424 0.6875 5.4375 C0.44386719 6.26121094 0.20023438 7.08492188 -0.05078125 7.93359375 C-0.36402344 8.61550781 -0.67726563 9.29742187 -1 10 C-1.99 10.33 -2.98 10.66 -4 11 C-4.33 13.64 -4.66 16.28 -5 19 C-5.33 19 -5.66 19 -6 19 C-6.6906352 11.51044491 -5.71533777 6.92122742 -1 1 C-0.67 0.67 -0.34 0.34 0 0 Z " fill="#383838" transform="translate(677,314)"/>
<path d="M0 0 C4.70102928 2.35051464 8.06536554 5.68162968 11 10 C11.671875 12.22265625 11.671875 12.22265625 12 14 C11.01 14 10.02 14 9 14 C7.39453125 12.35546875 7.39453125 12.35546875 5.8125 10.1875 C5.28269531 9.47980469 4.75289062 8.77210938 4.20703125 8.04296875 C3 6 3 6 3 3 C2.01 3 1.02 3 0 3 C0 2.01 0 1.02 0 0 Z " fill="#3A3A3A" transform="translate(916,414)"/>
<path d="M0 0 C0.66 0.33 1.32 0.66 2 1 C2 4 2 4 0.5625 5.5 C0.046875 5.995 -0.46875 6.49 -1 7 C-1.33 7.99 -1.66 8.98 -2 10 C-2.99 10 -3.98 10 -5 10 C-5 9.34 -5 8.68 -5 8 C-5.66 8 -6.32 8 -7 8 C-7 8.66 -7 9.32 -7 10 C-7.66 9.67 -8.32 9.34 -9 9 C-6.21000549 5.51250686 -3.74764169 2.49842779 0 0 Z " fill="#373536" transform="translate(623,413)"/>
<path d="M0 0 C0.66 0.33 1.32 0.66 2 1 C2 4.3 2 7.6 2 11 C0.35 11 -1.3 11 -3 11 C-2.8864371 9.35333797 -2.75882619 7.70763918 -2.625 6.0625 C-2.55539062 5.14597656 -2.48578125 4.22945313 -2.4140625 3.28515625 C-2.27742188 2.53105469 -2.14078125 1.77695312 -2 1 C-1.34 0.67 -0.68 0.34 0 0 Z " fill="#1B191A" transform="translate(1091,338)"/>
<path d="M0 0 C0 1.65 0 3.3 0 5 C-4.29 4.34 -8.58 3.68 -13 3 C-9.39091002 -0.60908998 -4.88215348 -0.11353845 0 0 Z " fill="#343434" transform="translate(846,607)"/>
<path d="M0 0 C2.15234375 0.93359375 2.15234375 0.93359375 4 2 C2.61447798 3.01423834 1.21605712 4.01087002 -0.1875 5 C-0.96480469 5.556875 -1.74210937 6.11375 -2.54296875 6.6875 C-5.28336637 8.151369 -6.94100837 8.26080213 -10 8 C-6.93325757 4.75801514 -4.1309195 1.80065722 0 0 Z " fill="#373636" transform="translate(1048,413)"/>
<path d="M0 0 C1.485 0.99 1.485 0.99 3 2 C2.67 2.66 2.34 3.32 2 4 C2.99 4 3.98 4 5 4 C5.33 3.34 5.66 2.68 6 2 C6.144375 3.093125 6.28875 4.18625 6.4375 5.3125 C6.88288104 8.93122987 6.88288104 8.93122987 8 12 C7.01 12 6.02 12 5 12 C4.16180842 10.37750059 3.3295884 8.75191503 2.5 7.125 C2.0359375 6.22007812 1.571875 5.31515625 1.09375 4.3828125 C0 2 0 2 0 0 Z " fill="#3C3B3C" transform="translate(405,585)"/>
<path d="M0 0 C1.08892712 2.83121051 0.96109941 4.16532751 0.25 7.1875 C-0.1625 8.115625 -0.575 9.04375 -1 10 C-1.99 10.33 -2.98 10.66 -4 11 C-4.8125 8.875 -4.8125 8.875 -5 6 C-3.55576519 3.69892439 -1.89127865 1.98353614 0 0 Z " fill="#2E2D2E" transform="translate(45,501)"/>
<path d="M0 0 C1.1446875 0.3403125 1.1446875 0.3403125 2.3125 0.6875 C1.673125 1.244375 1.03375 1.80125 0.375 2.375 C-1.88730995 4.51255573 -1.88730995 4.51255573 -2.1875 7.3125 C-2.435 8.488125 -2.435 8.488125 -2.6875 9.6875 C-4.75 11 -4.75 11 -6.6875 11.6875 C-6.0275 10.6975 -5.3675 9.7075 -4.6875 8.6875 C-4.873125 7.6975 -5.05875 6.7075 -5.25 5.6875 C-5.6875 2.6875 -5.6875 2.6875 -4.5625 0.75 C-2.6875 -0.3125 -2.6875 -0.3125 0 0 Z " fill="#252425" transform="translate(78.6875,488.3125)"/>
<path d="M0 0 C2 3.75 2 3.75 2 6 C2.66 6 3.32 6 4 6 C3.67 7.65 3.34 9.3 3 11 C1.68 10.67 0.36 10.34 -1 10 C-2.25 3.375 -2.25 3.375 0 0 Z " fill="#2D2D2D" transform="translate(1025,434)"/>
<path d="M0 0 C2.4375 0.75 2.4375 0.75 5 2 C5.8125 4.125 5.8125 4.125 6 6 C5.01 6.33 4.02 6.66 3 7 C2.01 6.34 1.02 5.68 0 5 C-0.99 5.495 -0.99 5.495 -2 6 C-2 5.01 -2 4.02 -2 3 C-1.34 3 -0.68 3 0 3 C0 2.01 0 1.02 0 0 Z " fill="#272727" transform="translate(490,734)"/>
<path d="M0 0 C1.77706209 2.66559313 2.87548273 5.0280615 4 8 C3.34 8 2.68 8 2 8 C1.67 8.99 1.34 9.98 1 11 C-0.32 8.36 -1.64 5.72 -3 3 C-2.01 2.01 -1.02 1.02 0 0 Z " fill="#3D3D3D" transform="translate(81,448)"/>
<path d="M0 0 C4.87685861 1.35468295 6.48592381 3.71675909 9 8 C8.67 8.66 8.34 9.32 8 10 C6.68 10 5.36 10 4 10 C4 7.69 4 5.38 4 3 C2.68 2.67 1.36 2.34 0 2 C0 1.34 0 0.68 0 0 Z " fill="#3A393A" transform="translate(714,313)"/>
<path d="M0 0 C2.475 0.495 2.475 0.495 5 1 C5.66 2.98 6.32 4.96 7 7 C6.34 7.66 5.68 8.32 5 9 C4.16396622 7.68921847 3.3312426 6.37632511 2.5 5.0625 C2.0359375 4.33160156 1.571875 3.60070312 1.09375 2.84765625 C0 1 0 1 0 0 Z " fill="#363636" transform="translate(1023,499)"/>
<path d="M0 0 C0.33 0 0.66 0 1 0 C0.67 3.96 0.34 7.92 0 12 C-4 7.375 -4 7.375 -4 4 C-2.68 4 -1.36 4 0 4 C0 2.68 0 1.36 0 0 Z " fill="#2D2D2D" transform="translate(524,433)"/>
<path d="M0 0 C2.5625 2.1875 2.5625 2.1875 5 5 C4.8125 7.8125 4.8125 7.8125 4 10 C2.68 9.67 1.36 9.34 0 9 C0.185625 8.443125 0.37125 7.88625 0.5625 7.3125 C1.07551165 4.600867 0.6640724 2.65628961 0 0 Z " fill="#393939" transform="translate(719,419)"/>
<path d="M0 0 C0.66 0.99 1.32 1.98 2 3 C1.34 3.66 0.68 4.32 0 5 C0.33 5.99 0.66 6.98 1 8 C-0.98 8.33 -2.96 8.66 -5 9 C-3.7508258 5.54074837 -2.32472205 2.85306797 0 0 Z " fill="#3D3D3D" transform="translate(819,419)"/>
<path d="M0 0 C0 0.33 0 0.66 0 1 C-2.31 1.33 -4.62 1.66 -7 2 C-7.66 3.65 -8.32 5.3 -9 7 C-9.45375 6.525625 -9.9075 6.05125 -10.375 5.5625 C-11.93258204 3.90972192 -11.93258204 3.90972192 -14 3 C-8.99067246 -0.00559652 -5.67276511 -0.29341888 0 0 Z " fill="#4A4A4A" transform="translate(398,729)"/>
<path d="M0 0 C3.41264084 0.23136548 5.64215935 0.7734712 8.6875 2.25 C7.6975 2.91 6.7075 3.57 5.6875 4.25 C5.3575 3.92 5.0275 3.59 4.6875 3.25 C3.00566052 3.01712992 1.3162584 2.83735834 -0.375 2.6875 C-1.75365234 2.56181641 -1.75365234 2.56181641 -3.16015625 2.43359375 C-4.22556641 2.34271484 -4.22556641 2.34271484 -5.3125 2.25 C-3.3125 0.25 -3.3125 0.25 0 0 Z " fill="#383838" transform="translate(739.3125,728.75)"/>
<path d="M0 0 C2.0625 2.25 2.0625 2.25 4 5 C3.875 7.25 3.875 7.25 3 9 C2.01 9.495 2.01 9.495 1 10 C0.63883954 8.5225254 0.28624952 7.04295325 -0.0625 5.5625 C-0.25972656 4.73878906 -0.45695313 3.91507812 -0.66015625 3.06640625 C-0.82837891 2.04353516 -0.82837891 2.04353516 -1 1 C-0.67 0.67 -0.34 0.34 0 0 Z " fill="#3F3F3F" transform="translate(624,317)"/>
<path d="M0 0 C0.99 0.33 1.98 0.66 3 1 C1.1875 3.5 1.1875 3.5 -1 6 C-1.99 6 -2.98 6 -4 6 C-3.6875 4.125 -3.6875 4.125 -3 2 C-2.01 1.34 -1.02 0.68 0 0 Z " fill="#282728" transform="translate(310,599)"/>
<path d="M0 0 C1.98 0.66 3.96 1.32 6 2 C5.34 3.65 4.68 5.3 4 7 C1.49962266 4.82575883 0.56371414 3.26954202 0 0 Z " fill="#2E2E2E" transform="translate(40,428)"/>
<path d="M0 0 C1.32 1.32 2.64 2.64 4 4 C3.01 5.485 3.01 5.485 2 7 C1.01 7 0.02 7 -1 7 C-1.33 5.35 -1.66 3.7 -2 2 C-1.34 2 -0.68 2 0 2 C0 1.34 0 0.68 0 0 Z " fill="#313131" transform="translate(312,418)"/>
<path d="M0 0 C2 3 2 3 1.625 5.1875 C1.41875 5.785625 1.2125 6.38375 1 7 C-0.65 7.33 -2.3 7.66 -4 8 C-2.87548273 5.0280615 -1.77706209 2.66559313 0 0 Z " fill="#353334" transform="translate(1091,332)"/>
<path d="M0 0 C1.17539996 0.92652701 2.34010577 1.86663387 3.5 2.8125 C4.1496875 3.33457031 4.799375 3.85664063 5.46875 4.39453125 C7 6 7 6 7 9 C4.13998967 7.71792641 1.92960588 6.50848764 0 4 C0 2.68 0 1.36 0 0 Z " fill="#2E2E2E" transform="translate(879,334)"/>
<path d="M0 0 C1.32 0.33 2.64 0.66 4 1 C0.535 3.97 0.535 3.97 -3 7 C-3.33 6.01 -3.66 5.02 -4 4 C-3.01 3.67 -2.02 3.34 -1 3 C-0.67 2.01 -0.34 1.02 0 0 Z " fill="#3A3A3A" transform="translate(98,511)"/>
<path d="M0 0 C6.87794433 -0.31263383 6.87794433 -0.31263383 10 2 C10.33 3.32 10.66 4.64 11 6 C7.37 4.35 3.74 2.7 0 1 C0 0.67 0 0.34 0 0 Z " fill="#535252" transform="translate(63,441)"/>
<path d="M0 0 C0.66 0.33 1.32 0.66 2 1 C1.50168276 4.68754757 0.89932357 6.60490662 -2 9 C-2.66 7.02 -3.32 5.04 -4 3 C-2.02 3.99 -2.02 3.99 0 5 C0 3.35 0 1.7 0 0 Z " fill="#363636" transform="translate(1091,426)"/>
<path d="M0 0 C3.16115776 1.36983503 3.9927092 1.9890638 6 5 C5.01 5.66 4.02 6.32 3 7 C0 3.375 0 3.375 0 0 Z " fill="#282828" transform="translate(94,420)"/>
<path d="M0 0 C3.65316671 1.24976756 4.78065836 1.67098753 7 5 C4.6568787 4.74438677 2.32156597 4.40729228 0 4 C-0.33 3.34 -0.66 2.68 -1 2 C-0.67 1.34 -0.34 0.68 0 0 Z " fill="#3D3D3D" transform="translate(711,413)"/>
<path d="M0 0 C3.37503669 1.1858237 5.64722731 2.27573689 8 5 C6.35 5.33 4.7 5.66 3 6 C0 2.25 0 2.25 0 0 Z " fill="#3D3D3D" transform="translate(84,413)"/>
<path d="M0 0 C2.97 0 5.94 0 9 0 C8.67 0.66 8.34 1.32 8 2 C6.68 2 5.36 2 4 2 C4 2.66 4 3.32 4 4 C3.01 3.67 2.02 3.34 1 3 C1.33 2.34 1.66 1.68 2 1 C1.34 0.67 0.68 0.34 0 0 Z " fill="#1A1819" transform="translate(238,790)"/>
<path d="M0 0 C1.65 0.99 3.3 1.98 5 3 C4.67 3.99 4.34 4.98 4 6 C2.0625 5.1875 2.0625 5.1875 0 4 C-0.33 3.01 -0.66 2.02 -1 1 C-0.67 0.67 -0.34 0.34 0 0 Z " fill="#292728" transform="translate(295,735)"/>
<path d="M0 0 C1.70884005 1.62339805 3.37446717 3.29319053 5 5 C5 5.66 5 6.32 5 7 C1.83884224 5.63016497 1.0072908 5.0109362 -1 2 C-0.67 1.34 -0.34 0.68 0 0 Z " fill="#2E2E2E" transform="translate(922,733)"/>
<path d="M0 0 C0.99 0.33 1.98 0.66 3 1 C2.67 1.99 2.34 2.98 2 4 C1.34 4 0.68 4 0 4 C-0.33 4.99 -0.66 5.98 -1 7 C-1.66 6.34 -2.32 5.68 -3 5 C-2.01 3.35 -1.02 1.7 0 0 Z " fill="#323131" transform="translate(727,733)"/>
<path d="M0 0 C1.9375 0.6875 1.9375 0.6875 2.9375 2.6875 C2.6075 3.3475 2.2775 4.0075 1.9375 4.6875 C-0.53050047 3.53576645 -2.11033565 2.63966435 -4.0625 0.6875 C-2.0625 -0.3125 -2.0625 -0.3125 0 0 Z " fill="#343434" transform="translate(419.0625,601.3125)"/>
<path d="M0 0 C0.99 0 1.98 0 3 0 C3 0.66 3 1.32 3 2 C4.32 2.66 5.64 3.32 7 4 C6.01 4.66 5.02 5.32 4 6 C2.62437146 4.71034824 1.29233607 3.37310707 0 2 C0 1.34 0 0.68 0 0 Z " fill="#262526" transform="translate(818,597)"/>
<path d="M0 0 C1.32 1.65 2.64 3.3 4 5 C-0.75 6.125 -0.75 6.125 -3 5 C-2 2 -2 2 0 0 Z " fill="#343233" transform="translate(1066,437)"/>
<path d="M0 0 C0.66 0 1.32 0 2 0 C3.6875 2.375 3.6875 2.375 5 5 C4.67 5.66 4.34 6.32 4 7 C3.34 7 2.68 7 2 7 C0 4 0 4 0 0 Z " fill="#2F2F2F" transform="translate(923,421)"/>
<path d="M0 0 C0.99 0.33 1.98 0.66 3 1 C3 2.98 3 4.96 3 7 C2.34 7 1.68 7 1 7 C0.67 7.66 0.34 8.32 0 9 C0 6.03 0 3.06 0 0 Z " fill="#302E2F" transform="translate(550,741)"/>
<path d="M0 0 C1.2065625 0.0309375 1.2065625 0.0309375 2.4375 0.0625 C2.1075 1.7125 1.7775 3.3625 1.4375 5.0625 C-0.5 4.75 -0.5 4.75 -2.5625 4.0625 C-2.8925 3.0725 -3.2225 2.0825 -3.5625 1.0625 C-2.5625 0.0625 -2.5625 0.0625 0 0 Z " fill="#1B191A" transform="translate(107.5625,702.9375)"/>
<path d="M0 0 C2.31 0 4.62 0 7 0 C7 0.66 7 1.32 7 2 C6.01 2 5.02 2 4 2 C3.67 2.66 3.34 3.32 3 4 C1.68 3.67 0.36 3.34 -1 3 C-0.67 2.01 -0.34 1.02 0 0 Z " fill="#282828" transform="translate(830,605)"/>
<path d="M0 0 C0 0.66 0 1.32 0 2 C0.66 2.33 1.32 2.66 2 3 C0.35 3.66 -1.3 4.32 -3 5 C-3 4.34 -3 3.68 -3 3 C-3.99 2.67 -4.98 2.34 -6 2 C-2.25 0 -2.25 0 0 0 Z " fill="#3D3C3C" transform="translate(87,520)"/>
<path d="M0 0 C2.76223278 2.76223278 2.57856291 5.20706617 3 9 C2.01 8.67 1.02 8.34 0 8 C-0.79953138 4.71303767 -1.09658936 3.28976808 0 0 Z " fill="#3B393A" transform="translate(319,429)"/>
<path d="M0 0 C2.9375 0.375 2.9375 0.375 6 1 C6.33 1.66 6.66 2.32 7 3 C6.34 3 5.68 3 5 3 C5.33 3.99 5.66 4.98 6 6 C5.01 5.67 4.02 5.34 3 5 C2.6278958 3.67696283 2.29369827 2.34262065 2 1 C1.34 0.67 0.68 0.34 0 0 Z " fill="#3D3C3D" transform="translate(301,412)"/>
<path d="M0 0 C0.99 0.99 1.98 1.98 3 3 C2.34 5.31 1.68 7.62 1 10 C0.67 10 0.34 10 0 10 C-1.125 2.25 -1.125 2.25 0 0 Z " fill="#312F30" transform="translate(810,738)"/>
<path d="M0 0 C2.64 0 5.28 0 8 0 C8 0.66 8 1.32 8 2 C4.71023192 3.09658936 3.28696233 2.79953138 0 2 C0 1.34 0 0.68 0 0 Z " fill="#3F3F3F" transform="translate(649,729)"/>
<path d="M0 0 C1.65 0.33 3.3 0.66 5 1 C3.68 2.32 2.36 3.64 1 5 C1 4.34 1 3.68 1 3 C-0.32 3.33 -1.64 3.66 -3 4 C-2.01 2.68 -1.02 1.36 0 0 Z " fill="#3A3A3A" transform="translate(76,488)"/>
</svg>
