<?xml version="1.0" encoding="UTF-8"?>
<svg version="1.1" xmlns="http://www.w3.org/2000/svg" width="737" height="737">
<path d="M0 0 C1.31430264 -0.00706559 2.62860528 -0.01413118 3.98273528 -0.02141088 C5.43458818 -0.01915969 6.88644079 -0.01671321 8.33829308 -0.01409245 C9.88584666 -0.01854611 11.43339797 -0.02386057 12.98094594 -0.02996117 C17.23123184 -0.04413648 21.48144458 -0.04580455 25.73175073 -0.04536426 C30.31680007 -0.0470129 34.90181932 -0.06008036 39.48685265 -0.07155704 C49.51177632 -0.09440326 59.53667882 -0.10232735 69.561625 -0.10738349 C75.82293227 -0.11064115 82.08423339 -0.11716409 88.34553719 -0.12438488 C105.68604967 -0.14395084 123.02655645 -0.1603549 140.36708069 -0.16326141 C141.47667305 -0.16344898 142.58626541 -0.16363655 143.72948178 -0.16382981 C145.97884075 -0.16419605 148.22819972 -0.16455975 150.47755869 -0.16492092 C151.59412392 -0.16510373 152.71068916 -0.16528654 153.86108971 -0.16547489 C155.53798534 -0.16574572 155.53798534 -0.16574572 157.24875765 -0.16602201 C175.35952994 -0.16956296 193.47018328 -0.19658043 211.58091433 -0.23397278 C230.18117272 -0.27206804 248.7813721 -0.29141898 267.38167036 -0.29172093 C277.82252816 -0.29230524 288.26324407 -0.30078075 298.70406532 -0.32971859 C307.59543505 -0.35424881 316.48661115 -0.36150429 325.37800558 -0.34647106 C329.91222223 -0.33930874 334.44605668 -0.3401303 338.98023033 -0.36288166 C343.1368958 -0.38353838 347.29288685 -0.3808094 351.44954555 -0.36000682 C352.94755605 -0.35652464 354.44561587 -0.3613677 355.94356175 -0.37571125 C367.53300063 -0.47947028 378.13890942 1.3375948 386.84497643 9.59990597 C389.82229016 12.73198106 392.6767006 15.9229024 395.42310143 19.26006222 C395.99673424 19.93424191 396.57036705 20.60842159 397.16138268 21.30303097 C397.70149986 21.96947628 398.24161705 22.63592159 398.79810143 23.32256222 C399.2802108 23.91166378 399.76232018 24.50076534 400.25903893 25.10771847 C403.03453708 30.23959592 402.57015438 36.58627597 402.56290913 42.29586506 C402.56733626 43.47144627 402.56733626 43.47144627 402.57185283 44.67077661 C402.58050915 47.29473628 402.58212129 49.91865171 402.5837307 52.54262447 C402.58846401 54.44378565 402.59361523 56.34494582 402.59914833 58.24610484 C402.61303218 63.4690371 402.62063163 68.69196241 402.62712133 73.91490841 C402.63349973 78.39483821 402.64356858 82.87475664 402.65368199 87.35467933 C402.68697112 102.10861801 402.70851654 116.8625636 402.72688183 131.6165275 C402.73167808 135.45731099 402.73666121 139.2980942 402.74168706 143.13887739 C402.77264987 166.98907313 402.79933861 190.83927086 402.81610584 214.68948078 C402.82004289 220.21105485 402.82405479 225.73262887 402.82813072 231.25420284 C402.82863239 231.94016829 402.82913406 232.62613373 402.82965093 233.33288601 C402.84607569 255.58258543 402.88454613 277.83217501 402.93541783 300.08182038 C402.98912031 323.61247632 403.02082345 347.14304114 403.02830273 370.67376578 C403.03296812 383.49829989 403.04775329 396.32265199 403.08804703 409.14712811 C403.12230788 420.06461212 403.13630205 430.98188125 403.12362289 441.89941595 C403.11778762 447.4702369 403.12172181 453.0406031 403.15179253 458.61135578 C403.17909909 463.711567 403.17869825 468.81099918 403.15628207 473.9112273 C403.15305231 475.7557266 403.15996725 477.60027755 403.1780793 479.44469075 C403.26764214 489.15410079 403.29194329 496.70386872 396.42310143 504.26006222 C395.90103111 505.16756222 395.3789608 506.07506222 394.84107018 507.01006222 C388.5290409 517.0258442 378.93415919 523.69072646 367.67121816 526.63933396 C361.51384984 527.81603197 355.32240779 527.67192715 349.07626915 527.64101315 C347.54288546 527.64447534 346.00950427 527.64924365 344.47612822 527.65519488 C340.28830409 527.66765719 336.10068646 527.6615564 331.91286182 527.65223622 C327.38658283 527.64542654 322.86033843 527.65593637 318.33406639 527.66417599 C309.47784176 527.67749443 300.62169354 527.67464419 291.76546596 527.66593806 C284.56709558 527.65915534 277.36874658 527.65824734 270.17037392 527.66150951 C269.14480379 527.66196921 268.11923367 527.66242891 267.06258566 527.66290254 C264.97900711 527.66386174 262.89542856 527.66483438 260.81185003 527.66582032 C241.2889434 527.67436845 221.76607908 527.66454867 202.2431794 527.64841922 C185.49746817 527.63501255 168.75181934 527.63734812 152.00610924 527.6511755 C132.5486459 527.66723457 113.0912196 527.67354875 93.63375056 527.66433871 C91.55856618 527.66338308 89.48338179 527.66243997 87.4081974 527.66150951 C86.38722377 527.66104669 85.36625013 527.66058386 84.3143379 527.66010701 C77.12493002 527.65751841 69.93554567 527.66188525 62.74614143 527.66894817 C53.98438971 527.67736681 45.22271861 527.67507518 36.46097611 527.65910594 C31.99200153 527.65122878 27.52316132 527.64812225 23.05418777 527.6580534 C18.96092629 527.66701201 14.86792335 527.66204832 10.77468522 527.64612074 C9.29640058 527.64277793 7.81809396 527.64445577 6.33982353 527.65174811 C-1.50233478 527.68745728 -8.35104694 527.48062469 -15.57689857 524.26006222 C-16.31621734 523.93917389 -17.05553611 523.61828557 -17.81725848 523.28767335 C-22.26797055 521.28867747 -25.31398606 518.95230532 -28.57689857 515.26006222 C-29.04740639 514.75732784 -29.5179142 514.25459347 -30.00267982 513.73662472 C-42.18265953 500.3292052 -44.03033943 486.66698406 -43.95112038 469.19328976 C-43.95386393 467.36434686 -43.95791854 465.53540554 -43.96316403 463.70646811 C-43.97371638 458.70159809 -43.96564426 453.69690757 -43.95441353 448.69204545 C-43.94555153 443.28638051 -43.95402082 437.88073855 -43.96027565 432.47507381 C-43.96975402 421.89362953 -43.96317218 411.31225354 -43.95101271 400.73081434 C-43.93737686 388.40440678 -43.93903197 376.07801541 -43.94114604 363.75160223 C-43.94433453 341.75587307 -43.93267628 319.76017631 -43.91308022 297.76445675 C-43.89407669 276.42818055 -43.88699286 255.09195175 -43.8925724 233.75566769 C-43.89863238 210.51352614 -43.89844911 187.27140128 -43.88708657 164.02926111 C-43.8858793 161.5501798 -43.88467331 159.07109849 -43.88346863 156.59201717 C-43.88286509 155.37230902 -43.88226155 154.15260087 -43.88163972 152.89593187 C-43.87776296 144.30684225 -43.87815327 135.71775885 -43.88005447 127.12866879 C-43.88217821 116.65933656 -43.8769388 106.19003756 -43.86244092 95.72071469 C-43.85520526 90.38065809 -43.85111286 85.04064986 -43.85568428 79.70058918 C-43.85976976 74.80912965 -43.85456939 69.91776983 -43.8420582 65.0263254 C-43.83913782 63.25998529 -43.83955216 61.49363573 -43.84370128 59.72729808 C-43.87768025 43.81298597 -42.94041853 29.14926575 -32.22142982 16.47490597 C-30.06896408 14.31541749 -27.86742662 12.27093277 -25.57689857 10.26006222 C-25.09350014 9.73928097 -24.6101017 9.21849972 -24.11205482 8.68193722 C-22.16568262 6.87919044 -20.14423939 5.86372077 -17.76439857 4.69756222 C-16.51723061 4.07687862 -16.51723061 4.07687862 -15.24486732 3.44365597 C-10.05082169 1.1394161 -5.70293486 0.00981633 0 0 Z M-12.70189857 29.69756222 C-17.69642878 36.52342017 -19.88476567 42.37169334 -19.83416748 50.88167381 C-19.83767356 51.63276087 -19.84117963 52.38384793 -19.84479195 53.1576952 C-19.85410238 55.67670897 -19.84918358 58.19549137 -19.84432411 60.71451473 C-19.84806054 62.53786789 -19.85266203 64.36121945 -19.85805476 66.18456846 C-19.87030084 71.19701204 -19.8700224 76.20938895 -19.86766601 81.22184408 C-19.86725825 86.62684147 -19.87829291 92.03181737 -19.88778114 97.43680477 C-19.90440023 108.02626069 -19.90989107 118.61569435 -19.9110059 129.20516222 C-19.91195581 137.81051239 -19.91606324 146.4158552 -19.92240715 155.02120304 C-19.94002094 179.40948579 -19.94924564 203.79775094 -19.9477462 228.1860401 C-19.94766629 229.50106066 -19.94758638 230.81608122 -19.94750404 232.17095089 C-19.94742228 233.48757344 -19.94734052 234.80419598 -19.94725628 236.16071618 C-19.94644303 257.50811015 -19.96559026 278.85542112 -19.99378078 300.20279603 C-20.02248651 322.11283526 -20.03632239 344.02284007 -20.03459322 365.93289858 C-20.03392859 378.2375445 -20.03945313 390.54211648 -20.06094933 402.84674549 C-20.07913057 413.32108967 -20.08353352 423.79532638 -20.06993048 434.26967948 C-20.06338579 439.61534201 -20.06333781 444.96079821 -20.08063698 450.30644131 C-20.09630607 455.19859634 -20.09356732 460.09038036 -20.07606871 464.98252601 C-20.07298523 466.75365897 -20.07668167 468.52481919 -20.08778886 470.29592001 C-20.10188025 472.70193365 -20.09134817 475.10664051 -20.07467651 477.51260948 C-20.08461287 478.20162599 -20.09454923 478.89064249 -20.10478669 479.60053828 C-20.00693776 486.27129606 -17.00958477 491.23611309 -12.38939857 495.94756222 C-11.88021889 496.48767941 -11.3710392 497.02779659 -10.84642982 497.58428097 C-2.62778668 503.65277995 5.40695632 503.82028276 15.34874535 503.71657467 C16.86063948 503.71561934 18.37253557 503.71642585 19.88442808 503.71883309 C24.02199838 503.72032347 28.1591015 503.69682484 32.29656518 503.66909981 C36.76476225 503.64355097 41.23297998 503.64127402 45.70123863 503.63605404 C54.44584493 503.62215912 63.19023888 503.58681746 71.93474709 503.54416303 C82.11393858 503.49529261 92.29315487 503.46750791 102.47242398 503.44054855 C120.62736625 503.39172896 138.7821839 503.3234941 156.93701744 503.24443722 C174.56524574 503.16768831 192.19345033 503.10504093 209.82178307 503.05791378 C211.45192017 503.05355316 211.45192017 503.05355316 213.11498933 503.04910444 C214.19984774 503.04620346 215.28470615 503.04330249 216.40243906 503.0403136 C236.46357957 502.98655734 256.52465772 502.91969473 276.5857367 502.8466539 C283.68722266 502.82109663 290.78871457 502.79943736 297.89021683 502.7789793 C306.53475189 502.75381391 315.17922189 502.72113073 323.82369124 502.67894797 C328.23705908 502.65755281 332.65037888 502.63934537 337.06378937 502.62968159 C341.09814806 502.6207367 345.13235562 502.60266528 349.16664214 502.57707693 C350.63139167 502.56940555 352.09616351 502.56514052 353.56093299 502.56449853 C355.54125121 502.56312437 357.52154718 502.54843707 359.50180531 502.53294849 C361.15652321 502.52627858 361.15652321 502.52627858 362.84466976 502.51947391 C365.58673301 502.51827833 365.58673301 502.51827833 367.42310143 500.26006222 C368.20814049 499.63551144 368.20814049 499.63551144 369.00903893 498.99834347 C369.89462486 498.29258175 369.89462486 498.29258175 370.79810143 497.57256222 C371.3833358 497.11494503 371.96857018 496.65732784 372.57153893 496.18584347 C377.43088507 491.13171341 379.01988603 486.38258527 378.92367268 479.48696136 C378.92918684 478.73164331 378.93470101 477.97632526 378.94038227 477.19811878 C378.95396349 474.67046326 378.9390882 472.1437935 378.92430687 469.61615658 C378.92820024 467.78440098 378.93384098 465.9526484 378.94107777 464.12090296 C378.95584528 459.08975704 378.94564337 454.0589237 378.93134105 449.0277878 C378.9202425 443.6009702 378.93217021 438.17419684 378.94118309 432.74738216 C378.95512542 422.11691553 378.94755186 411.48656758 378.93250751 400.85610659 C378.91565721 388.47890895 378.91885647 376.10174096 378.92260159 363.7245354 C378.92865976 340.97369884 378.91287084 318.22292168 378.88741395 295.47210118 C378.86430184 274.70682156 378.85890967 253.94161157 378.86914635 233.17632198 C378.88055423 209.84377274 378.88248697 186.51125874 378.86804825 163.17870992 C378.8665224 160.6909138 378.86500204 158.20311767 378.86348724 155.71532154 C378.86272943 154.49124719 378.86197162 153.26717285 378.86119084 152.00600534 C378.85644679 143.37697676 378.85830033 134.74796392 378.86255264 126.11893559 C378.86747807 115.60329207 378.86150049 105.08772057 378.84165835 94.57209355 C378.83178283 89.20608815 378.82668408 83.84019245 378.83455086 78.47418118 C378.84160452 73.56231912 378.83481023 68.65067849 378.81694723 63.73884564 C378.81290069 61.96167414 378.81390605 60.18448248 378.82046609 58.40731848 C378.82862241 55.99094953 378.81829697 53.57532559 378.80341816 51.15900421 C378.81015581 50.46969188 378.81689346 49.78037954 378.82383528 49.07017896 C378.73468451 41.57907549 376.21415385 35.3001268 371.16528893 29.79912472 C365.1201178 24.45877175 358.19887971 23.13907419 350.33124352 23.12584114 C348.48387832 23.11915437 348.48387832 23.11915437 346.59919262 23.11233252 C345.23548252 23.11242181 343.87177243 23.11261165 342.50806236 23.1128912 C341.05695656 23.10959058 339.60585168 23.10586459 338.15474796 23.10174972 C334.16638573 23.091744 330.17803855 23.08801522 326.18966556 23.08536041 C321.88816296 23.08145309 317.58667224 23.07187501 313.28517723 23.06314754 C302.89630581 23.04339472 292.50743342 23.0333182 282.11854792 23.02441975 C277.2239205 23.02003472 272.32929416 23.01466845 267.43466759 23.00943089 C251.1596302 22.99241942 234.88459348 22.97792596 218.60954857 22.97068214 C214.3870805 22.96877231 210.16461244 22.96685197 205.94214439 22.9648962 C204.89269492 22.96441246 203.84324545 22.96392872 202.76199448 22.96343032 C185.76732966 22.95513269 168.77273528 22.9297999 151.77810121 22.89731552 C134.32257717 22.86422274 116.86708892 22.84623136 99.41153336 22.8430379 C89.61395333 22.84087481 79.81647603 22.83215561 70.01892662 22.80657673 C61.67362257 22.78483938 53.32844619 22.77683422 44.98311704 22.78654351 C40.72831209 22.79107949 36.47377039 22.78924313 32.21900177 22.76978207 C28.31644627 22.75208689 24.41434483 22.75319904 20.51178408 22.76867936 C19.10726451 22.77104585 17.70271297 22.76678208 16.29824209 22.75485071 C6.20529421 22.67448641 -4.46397736 23.27198367 -12.70189857 29.69756222 Z " fill="#201E1F" transform="translate(188.5768985748291,101.7399377822876)"/>
<path d="M0 0 C1.04758356 -0.00241442 2.09516712 -0.00482883 3.17449564 -0.00731641 C6.66029475 -0.01292072 10.14590793 -0.004315 13.63169861 0.00431824 C16.14070688 0.00324455 18.64971491 0.00130458 21.15872192 -0.00143433 C27.25112769 -0.00577 33.34346522 -0.00085827 39.43586356 0.00841597 C46.53854722 0.01883669 53.64121931 0.01872881 60.74390917 0.01824339 C73.42070983 0.01774353 86.0974852 0.02688394 98.77427673 0.04142761 C111.06106527 0.05551645 123.34783157 0.06259818 135.6346283 0.06193542 C136.7700608 0.06187549 136.7700608 0.06187549 137.92843134 0.06181435 C139.06194697 0.06175381 139.06194697 0.06175381 140.21836191 0.06169206 C154.22813413 0.06100129 168.23789695 0.06689715 182.24766611 0.07584528 C187.19284199 0.07885488 192.13801613 0.07992403 197.08319283 0.08037758 C203.74396028 0.08113302 210.40470126 0.0874994 217.06546211 0.09754372 C219.50793821 0.10046011 221.95041698 0.10169583 224.39289474 0.10111618 C227.7304603 0.10062391 231.06796107 0.10629666 234.40551758 0.11352539 C235.85008657 0.11120249 235.85008657 0.11120249 237.32383877 0.10883266 C248.11620696 0.14734881 261.68162675 0.48795799 270.51426697 7.49723816 C273.84515405 10.98673891 277.02798311 14.56167528 280.13926697 18.24723816 C280.62911072 18.78735535 281.11895447 19.32747253 281.62364197 19.88395691 C287.54534179 26.51974406 287.42607813 33.06447857 287.379776 41.52272034 C287.38233928 43.23325149 287.38233928 43.23325149 287.38495433 44.97833884 C287.38825005 48.80159695 287.37724397 52.62467979 287.36631775 56.44792175 C287.36463996 59.18768932 287.36598209 61.92745346 287.36720276 64.66722107 C287.36825073 70.56686087 287.36198335 76.46645639 287.35072708 82.36608505 C287.33446309 90.89591857 287.32926315 99.4257307 287.3267511 107.95557804 C287.32237541 121.79516048 287.30906972 135.63471932 287.29014587 149.47428894 C287.27178382 162.91699607 287.25762891 176.3596968 287.24913025 189.80241394 C287.2486048 190.63122237 287.24807936 191.4600308 287.24753799 192.31395464 C287.24492788 196.4719026 287.24240047 200.62985061 287.23991418 204.78779864 C287.2191856 239.27429546 287.18396349 273.76076426 287.13926697 308.24723816 C286.47926697 308.24723816 285.81926697 308.24723816 285.13926697 308.24723816 C285.09801697 309.23723816 285.05676697 310.22723816 285.01426697 311.24723816 C283.86264238 319.180652 276.64967965 324.96328079 271.13926697 330.24723816 C270.53340759 330.91883972 269.92754822 331.59044128 269.30332947 332.28239441 C266.73910449 334.61056257 264.35213458 335.66163937 261.13926697 336.93473816 C259.59239197 337.55928894 259.59239197 337.55928894 258.01426697 338.19645691 C252.91763314 340.05922117 248.14001017 340.53668708 242.73655701 340.801651 C241.8984582 340.84377838 241.06035939 340.88590576 240.19686365 340.92930973 C230.3266787 341.38484008 220.46124904 341.38760989 210.58262634 341.37663269 C208.49557973 341.37799181 206.40853336 341.37977459 204.32148743 341.38194275 C198.70940233 341.38645861 193.09733585 341.38475123 187.48525047 341.38156366 C181.56690297 341.37900687 175.64855692 341.381387 169.73020935 341.38294983 C159.7881085 341.38476306 149.84601512 341.3823887 139.90391541 341.37760925 C128.48025331 341.37218029 117.0566091 341.37392279 105.63294744 341.37943566 C95.76130952 341.38400541 85.88967692 341.38459825 76.01803827 341.38199699 C70.15054183 341.38045375 64.28305373 341.38018563 58.41555786 341.38353348 C16.61899388 341.40366935 16.61899388 341.40366935 0.18809509 340.92643738 C-0.82815193 340.90447359 -1.84439896 340.8825098 -2.89144135 340.85988045 C-10.82203904 340.5625907 -17.77558591 338.82208528 -24.86073303 335.24723816 C-25.56198303 335.08223816 -26.26323303 334.91723816 -26.98573303 334.74723816 C-28.86073303 334.24723816 -28.86073303 334.24723816 -30.86073303 332.24723816 C-32.16010803 331.50473816 -32.16010803 331.50473816 -33.48573303 330.74723816 C-34.26948303 330.25223816 -35.05323303 329.75723816 -35.86073303 329.24723816 C-35.86073303 328.58723816 -35.86073303 327.92723816 -35.86073303 327.24723816 C-36.85073303 326.91723816 -37.84073303 326.58723816 -38.86073303 326.24723816 C-38.86073303 325.58723816 -38.86073303 324.92723816 -38.86073303 324.24723816 C-39.52073303 324.24723816 -40.18073303 324.24723816 -40.86073303 324.24723816 C-41.19073303 322.59723816 -41.52073303 320.94723816 -41.86073303 319.24723816 C-42.52073303 319.24723816 -43.18073303 319.24723816 -43.86073303 319.24723816 C-51.03276594 307.75008135 -49.53419822 294.53647029 -49.44422913 281.51799011 C-49.44445604 278.90031328 -49.44687386 276.28263586 -49.4513092 273.66496277 C-49.45809787 267.31470359 -49.43854857 260.96479047 -49.41014592 254.61460201 C-49.37817523 247.21059344 -49.37388902 239.80664431 -49.37095399 232.40257671 C-49.36490036 219.18885644 -49.33584086 205.97529013 -49.29286194 192.76164246 C-49.25124329 179.95499874 -49.222921 167.14842721 -49.21083069 154.34172058 C-49.21008247 153.55243407 -49.20933426 152.76314756 -49.20856337 151.94994328 C-49.20558867 148.77682125 -49.20265138 145.60369918 -49.19977709 142.43057706 C-49.18702748 128.7268834 -49.16330569 115.02320563 -49.13813883 101.31952998 C-49.13416285 99.10624443 -49.13044284 96.89295858 -49.1267848 94.67967248 C-49.11263053 86.27137956 -49.0929999 77.8631319 -49.06530762 69.45487213 C-49.05760225 66.90919375 -49.0515335 64.36350981 -49.04722977 61.81782341 C-49.04098663 58.34022693 -49.02862048 54.8627046 -49.01463318 51.38513184 C-49.01413542 50.38064965 -49.01363766 49.37616747 -49.01312482 48.34124643 C-48.98197083 42.56673655 -48.59921759 36.97565439 -47.86073303 31.24723816 C-47.20073303 31.24723816 -46.54073303 31.24723816 -45.86073303 31.24723816 C-45.94194397 30.37583191 -46.02315491 29.50442566 -46.10682678 28.60661316 C-45.80089512 24.43040317 -44.48828922 22.76103549 -41.92323303 19.49723816 C-39.14297202 16.02883847 -39.14297202 16.02883847 -36.86073303 12.24723816 C-35.87073303 12.24723816 -34.88073303 12.24723816 -33.86073303 12.24723816 C-33.86073303 11.58723816 -33.86073303 10.92723816 -33.86073303 10.24723816 C-23.25517169 1.97490031 -13.24878464 -0.07092514 0 0 Z M-18.29823303 31.68473816 C-18.93631897 32.2609491 -19.57440491 32.83716003 -20.23182678 33.43083191 C-23.16076047 36.69690904 -24.10982079 39.44598398 -24.12358856 43.80604076 C-24.13127085 44.72110431 -24.13895314 45.63616785 -24.14686823 46.5789606 C-24.14513526 47.58059861 -24.1434023 48.58223662 -24.14161682 49.61422729 C-24.14755907 50.68118562 -24.15350131 51.74814395 -24.15962362 52.84743434 C-24.17701367 56.43475397 -24.18001544 60.02194023 -24.18299866 63.60929871 C-24.19225391 66.17653693 -24.20230309 68.74377239 -24.21308899 71.31100464 C-24.24024371 78.29461343 -24.25230346 85.27819923 -24.26111031 92.26185203 C-24.26663774 96.6239017 -24.27511297 100.98594253 -24.28411865 105.34798622 C-24.30850349 117.42902793 -24.32910153 129.51006256 -24.33586884 141.59112835 C-24.33630797 142.36423795 -24.3367471 143.13734756 -24.33719954 143.93388473 C-24.33763609 144.70882957 -24.33807265 145.48377441 -24.33852243 146.28220242 C-24.33940936 147.85249754 -24.34030249 149.42279266 -24.34120178 150.99308777 C-24.34164464 151.77200604 -24.3420875 152.55092431 -24.34254378 153.35344616 C-24.35043692 165.96987826 -24.38533631 178.58607912 -24.43192083 191.20242193 C-24.47938007 204.16045343 -24.50427403 217.11836899 -24.50660467 230.07648879 C-24.50843652 237.34998627 -24.51989852 244.62318253 -24.5562439 251.89659691 C-24.59031857 258.73965937 -24.59352745 265.58214186 -24.57596588 272.42526436 C-24.5744239 274.93547978 -24.58312709 277.44572579 -24.60288239 279.95586395 C-24.62829546 283.38636689 -24.61658581 286.81484155 -24.59571838 290.24533081 C-24.61183119 291.23581521 -24.627944 292.22629961 -24.64454508 293.24679869 C-24.54457627 300.28651598 -22.60787856 304.99800521 -17.86073303 310.24723816 C0.86401395 324.73466589 42.00145867 317.39449106 64.56022477 317.38156366 C70.44771255 317.37899922 76.33519891 317.38138841 82.22268677 317.38294983 C92.08754257 317.38475789 101.95239083 317.38239932 111.81724548 317.37760925 C123.19191297 317.37214957 134.56656257 317.37394712 145.94122964 317.37943566 C155.76098559 317.38398238 165.58073618 317.38461029 175.40049285 317.38199699 C181.24284673 317.38044532 187.08519222 317.38021025 192.92754555 317.38353348 C198.40990089 317.38643562 203.89223323 317.38439367 209.37458611 317.37863922 C211.37678108 317.377325 213.37897801 317.3776828 215.38117218 317.37990189 C236.79382485 318.51299196 236.79382485 318.51299196 256.13926697 311.24723816 C260.17631066 306.9465508 263.2571325 302.95543364 263.27907467 296.96576595 C263.28476591 296.0616513 263.29045715 295.15753664 263.29632086 294.22602457 C263.29809067 292.72650187 263.29809067 292.72650187 263.29989624 291.19668579 C263.30498406 290.13960342 263.31007188 289.08252105 263.31531388 287.99340588 C263.33109375 284.427546 263.33957804 280.86170646 263.3480072 277.29582214 C263.35754128 274.74858469 263.36743223 272.20134855 263.37765503 269.65411377 C263.40637921 261.99151682 263.42613138 254.32891703 263.44304737 246.66628584 C263.44784189 244.50183069 263.45282529 242.33737604 263.4578526 240.17292142 C263.48882808 226.73192881 263.51551398 213.29093191 263.53227139 199.8499136 C263.53622091 196.73552887 263.54022389 193.62114421 263.54429626 190.50675964 C263.54580881 189.34565758 263.54580881 189.34565758 263.5473519 188.1610989 C263.56434971 175.62861325 263.60544724 163.09632537 263.65631925 150.56393623 C263.7081218 137.69637884 263.73721729 124.82892307 263.74446827 111.96126229 C263.74912774 104.73690524 263.7638489 97.51287182 263.80421257 90.28861809 C263.84215229 83.48990258 263.84949653 76.6918358 263.83620644 69.89299583 C263.83626043 67.39890078 263.84657424 64.90478143 263.86795807 62.41077805 C263.89561959 59.00207748 263.88613741 55.59539338 263.86752319 52.18667603 C263.88431812 51.20260928 263.90111305 50.21854254 263.91841692 49.20465559 C263.81074121 41.29915458 260.93551876 36.44411658 255.70119375 30.65740198 C249.37527008 24.7244494 240.95821164 24.95367581 232.82275391 24.98654175 C231.80954761 24.9827162 230.79634132 24.97889065 229.75243181 24.97494918 C226.37098819 24.96466354 222.98971577 24.96860292 219.60826111 24.97257996 C217.17836348 24.96823106 214.74846722 24.96304732 212.318573 24.95709229 C206.41173021 24.94509965 200.50492961 24.94254847 194.59807927 24.94489255 C189.79523372 24.94667849 184.99240194 24.94492016 180.18955803 24.94066811 C179.16264729 24.93977532 179.16264729 24.93977532 178.11499087 24.9388645 C176.72403872 24.9376527 175.33308658 24.93643857 173.94213443 24.93522213 C160.91024 24.92435629 147.87837148 24.92650466 134.84647559 24.93260697 C122.93522337 24.93777635 111.02405293 24.92651846 99.11281688 24.90750875 C86.86882805 24.88811844 74.62487789 24.87987638 62.38087362 24.883632 C55.51218978 24.8855421 48.64357554 24.88307509 41.77490425 24.86891747 C35.31604468 24.85573871 28.85730781 24.85827987 22.39844704 24.87132835 C20.03014826 24.8736944 17.66183797 24.87095848 15.2935524 24.86270523 C12.05643312 24.85223889 8.81986337 24.86033802 5.58276367 24.87301636 C4.64948103 24.86564207 3.71619838 24.85826779 2.75463444 24.85067004 C-5.0141417 24.91451776 -12.44315929 26.21919115 -18.29823303 31.68473816 Z " fill="#201E1F" transform="translate(251.86073303222656,195.7527618408203)"/>
<path d="M0 0 C4.44332772 -0.07535649 8.88629604 -0.12915723 13.33007812 -0.16479492 C14.83502701 -0.17968431 16.33993411 -0.2000027 17.84472656 -0.22631836 C30.74794338 -0.44596591 43.6736915 0.04431407 55 7 C56.010625 7.5775 57.02125 8.155 58.0625 8.75 C61.31092344 11.23815413 63.77294285 13.96713384 66.38671875 17.09765625 C67.92109796 18.9856604 67.92109796 18.9856604 69.546875 20.42578125 C71.43919866 22.47579855 72.40948736 24.58764929 73.5625 27.125 C73.97628906 28.01445312 74.39007813 28.90390625 74.81640625 29.8203125 C77.7418853 37.67952026 78.31608629 45.09410609 78.25 53.4375 C78.26160156 54.89639648 78.26160156 54.89639648 78.2734375 56.38476562 C78.23381268 71.21435499 73.97108838 81.95152707 64 93 C60.42828255 96.13731938 56.68009215 98.43630551 52.5 100.6875 C51.3965625 101.28949219 50.293125 101.89148438 49.15625 102.51171875 C46.27007864 103.87264856 44.11483199 104.49806171 41 105 C39.78699219 105.33459229 38.57398438 105.66918457 37.32421875 106.01391602 C33.24158223 107.04282728 29.44049467 107.22935883 25.21875 107.1953125 C24.51979614 107.1924826 23.82084229 107.18965271 23.10070801 107.18673706 C20.90028684 107.1756727 18.70029507 107.15059606 16.5 107.125 C14.99479761 107.11495235 13.48958874 107.10582965 11.984375 107.09765625 C8.32278062 107.07577893 4.66143232 107.04134696 1 107 C1 106.34 1 105.68 1 105 C0.38125 104.896875 -0.2375 104.79375 -0.875 104.6875 C-3 104 -3 104 -5 101 C-6.09897312 96.23689234 -6.15398444 91.5073407 -6.16113281 86.64306641 C-6.16609772 85.82598709 -6.17106262 85.00890778 -6.17617798 84.16706848 C-6.19071857 81.47855776 -6.19758729 78.79010599 -6.203125 76.1015625 C-6.20888221 74.22358195 -6.21463987 72.3456014 -6.22039795 70.46762085 C-6.23088424 66.53537728 -6.23674271 62.60315401 -6.24023438 58.67089844 C-6.24572043 53.64516357 -6.26976093 48.61969943 -6.29820633 43.59404945 C-6.31687463 39.71631089 -6.3220405 35.83863709 -6.32357025 31.96085739 C-6.32658678 30.10859062 -6.33458136 28.25632471 -6.34775543 26.40410233 C-6.36490732 23.80776861 -6.36291381 21.21209082 -6.35644531 18.61572266 C-6.3656601 17.85909836 -6.37487488 17.10247406 -6.3843689 16.32292175 C-6.34270552 10.95501445 -5.10861785 6.93937047 -3 2 C-2.34 2 -1.68 2 -1 2 C-0.67 1.34 -0.34 0.68 0 0 Z M17 22 C17 42.79 17 63.58 17 85 C29.32795908 85.78838415 29.32795908 85.78838415 39 82 C39.73734375 81.5978125 40.4746875 81.195625 41.234375 80.78125 C47.27634471 77.22715017 50.15928487 73.34088198 53 67 C53.495 66.01 53.495 66.01 54 65 C55.00480222 53.66860283 55.75560588 41.26070379 48.38671875 31.96484375 C43.24775276 26.41567205 37.39667292 23.52629759 30 22 C25.71 22 21.42 22 17 22 Z " fill="#211F20" transform="translate(417,311)"/>
<path d="M0 0 C0.98162109 -0.01998047 1.96324219 -0.03996094 2.97460938 -0.06054688 C11.63398933 -0.05481598 18.07378595 2.5857291 25.6875 6.4375 C25.6875 7.0975 25.6875 7.7575 25.6875 8.4375 C26.3475 8.4375 27.0075 8.4375 27.6875 8.4375 C30.18841372 13.12671322 30.4417774 18.24677384 29.6875 23.4375 C28.58984375 26.20703125 28.58984375 26.20703125 26.6875 28.4375 C21.32490918 29.64340924 15.18833051 29.80970895 10.28125 27.1171875 C8.60220536 25.64446614 7.15590521 24.11501355 5.6875 22.4375 C2.47642113 20.83196056 -0.82920728 20.96280944 -4.3125 21.4375 C-7.74808558 23.37935272 -9.01867036 24.83706552 -10.75 28.375 C-11.38665804 31.84124931 -10.93875299 33.3656888 -9.3125 36.4375 C-8.6525 36.4375 -7.9925 36.4375 -7.3125 36.4375 C-7.3125 37.0975 -7.3125 37.7575 -7.3125 38.4375 C-5.6625 38.7675 -4.0125 39.0975 -2.3125 39.4375 C-2.3125 40.0975 -2.3125 40.7575 -2.3125 41.4375 C-1.23742187 41.63085938 -1.23742187 41.63085938 -0.140625 41.828125 C8.63555393 43.71912488 19.69516588 47.37778136 25.6875 54.4375 C25.6875 55.0975 25.6875 55.7575 25.6875 56.4375 C26.3475 56.4375 27.0075 56.4375 27.6875 56.4375 C32.69094547 63.76397372 34.28652326 69.88057968 34.3125 78.625 C34.32796875 79.87071777 34.32796875 79.87071777 34.34375 81.14160156 C34.14482489 90.1038883 30.46151288 97.67768004 24.6875 104.4375 C21.875 105.375 21.875 105.375 19.6875 105.4375 C19.6875 106.0975 19.6875 106.7575 19.6875 107.4375 C16.7175 107.9325 16.7175 107.9325 13.6875 108.4375 C13.6875 109.0975 13.6875 109.7575 13.6875 110.4375 C9.35006761 110.5878376 5.0140852 110.69562607 0.67480469 110.76708984 C-0.79551664 110.79693268 -2.26566525 110.83762433 -3.73535156 110.89013672 C-14.79158442 111.27476692 -23.97723251 110.25928319 -32.55957031 102.37255859 C-36.40729701 98.12505417 -36.52730801 94.01299883 -36.48046875 88.5234375 C-36.23431421 85.46654157 -35.7375988 83.82008892 -33.4375 81.75 C-28.72883305 79.77235988 -24.32708907 79.37828842 -19.3125 80.4375 C-17.37173457 82.01621375 -16.13891072 83.6418427 -14.69921875 85.6796875 C-12.41126666 88.57990846 -9.77690511 89.40425637 -6.3125 90.4375 C-1.64616553 90.81936348 -1.64616553 90.81936348 2.6875 89.4375 C3.6775 89.9325 3.6775 89.9325 4.6875 90.4375 C4.6875 89.7775 4.6875 89.1175 4.6875 88.4375 C5.47125 87.715625 6.255 86.99375 7.0625 86.25 C10.20598035 82.88198534 10.73493363 80.85394409 11.6875 76.4375 C11.0275 76.4375 10.3675 76.4375 9.6875 76.4375 C8.82125 75.2928125 8.82125 75.2928125 7.9375 74.125 C4.18299546 69.64045291 -1.36948982 67.93678421 -6.625 65.5625 C-8.85624781 64.52529864 -11.08555037 63.48389802 -13.3125 62.4375 C-14.54613281 61.86902344 -14.54613281 61.86902344 -15.8046875 61.2890625 C-22.31825648 58.02068803 -30.2743125 52.61243297 -33.02636719 45.625 C-35.70616947 35.89937175 -36.0234205 23.69577258 -31.578125 14.5234375 C-28.03591747 8.68535471 -25.15025493 5.11205223 -18.3125 3.4375 C-17.32765625 2.93605469 -16.3428125 2.43460937 -15.328125 1.91796875 C-10.35482414 -0.24376806 -5.34226333 -0.03813426 0 0 Z " fill="#211F20" transform="translate(283.3125,307.5625)"/>
<path d="M0 0 C1.51787109 0.01921509 1.51787109 0.01921509 3.06640625 0.03881836 C12.39222149 0.29259741 19.69354923 1.45311664 26.625 8.0625 C30.23285259 12.02319881 32.09096101 14.8532331 31.84375 20.42578125 C31.30706553 24.38382924 30.61472574 25.84589066 27.5625 28.5 C22.78190541 29.30938203 18.34625991 29.27651079 13.5625 28.5 C10.375 26.125 10.375 26.125 8.5625 23.5 C5.14155758 21.21937172 3.88062778 21.28074993 -0.125 21.375 C-1.11886719 21.39304687 -2.11273438 21.41109375 -3.13671875 21.4296875 C-3.89597656 21.45289063 -4.65523438 21.47609375 -5.4375 21.5 C-5.4375 22.16 -5.4375 22.82 -5.4375 23.5 C-6.4275 23.83 -7.4175 24.16 -8.4375 24.5 C-10.19878808 27.94251762 -10.61287873 29.78387018 -9.6875 33.5625 C-5.13364093 39.50781601 2.30785644 41.43458021 9.125 44 C20.48319792 48.35419779 27.29782156 52.58525096 33.5625 63.5 C37.38302854 72.73581224 36.90445673 81.94612977 34.5625 91.5 C33.626627 93.5307983 32.64411526 95.54293372 31.5625 97.5 C30.9025 97.5 30.2425 97.5 29.5625 97.5 C29.49289062 98.08523438 29.42328125 98.67046875 29.3515625 99.2734375 C28.26041947 102.35240546 26.60976393 103.29235978 23.9375 105.125 C22.68066406 106.01058594 22.68066406 106.01058594 21.3984375 106.9140625 C13.77735885 111.17598802 6.24829704 110.8660732 -2.3125 110.875 C-3.54097656 110.89949219 -4.76945312 110.92398438 -6.03515625 110.94921875 C-14.92093131 110.97779037 -21.56416798 109.95231767 -28.3125 103.9375 C-29.01375 103.133125 -29.715 102.32875 -30.4375 101.5 C-31.015 100.984375 -31.5925 100.46875 -32.1875 99.9375 C-34.53565531 97.23712139 -34.43302035 94.56159513 -34.6875 91.0625 C-34.41593445 87.19269098 -33.89705495 85.46842839 -31.4375 82.5 C-27.51322871 80.21084175 -23.91262151 80.10043558 -19.4375 80.5 C-16.24119813 81.94594608 -14.42496854 83.5131741 -12 86.0625 C-8.60660662 89.290362 -5.94123323 90.46454891 -1.23046875 90.53125 C3.8402501 90.19488391 6.90853284 89.26815363 10.5625 85.5 C12.19972844 82.22554311 12.3716964 79.01086827 11.5625 75.5 C7.50456669 70.39413886 1.80575934 67.93618158 -4.125 65.625 C-8.95799868 63.71478061 -13.7062498 61.64849043 -18.4375 59.5 C-18.4375 58.84 -18.4375 58.18 -18.4375 57.5 C-19.159375 57.2525 -19.88125 57.005 -20.625 56.75 C-26.46175229 54.15588787 -29.77973862 50.60749251 -32.48828125 44.8828125 C-33.76107836 40.34683596 -33.91473681 36.06851242 -33.9375 31.375 C-33.94370361 30.52808594 -33.94990723 29.68117188 -33.95629883 28.80859375 C-33.84206177 23.09339744 -32.71351707 18.74210314 -30.4375 13.5 C-29.7775 13.5 -29.1175 13.5 -28.4375 13.5 C-28.210625 12.7575 -27.98375 12.015 -27.75 11.25 C-25.02156602 5.53328119 -19.89669636 3.55646648 -14.27294922 1.35766602 C-9.52190369 -0.07942912 -4.9308887 -0.09466716 0 0 Z " fill="#211F20" transform="translate(363.4375,307.5)"/>
<path d="" fill="#211F20" transform="translate(0,0)"/>
<path d="" fill="#211F20" transform="translate(0,0)"/>
</svg>
